<?xml version="1.0" encoding="UTF-8"?>
<svg width="32px" height="32px" viewBox="0 0 32 32" version="1.1" xmlns="http://www.w3.org/2000/svg" xmlns:xlink="http://www.w3.org/1999/xlink">
    <!-- Generator: Sketch 49.1 (51147) - http://www.bohemiancoding.com/sketch -->
    <title>right-arrow-circular-button</title>
    <desc>Created with Sketch.</desc>
    <defs></defs>
    <g id="Page-1" stroke="none" stroke-width="1" fill="none" fill-rule="evenodd">
        <g id="payment" transform="translate(-913.000000, -287.000000)" fill="#FFFFFF" fill-rule="nonzero">
            <g id="right-arrow-circular-button" transform="translate(913.000000, 287.000000)">
                <path d="M14.5139869,9.39498039 L14.5110065,9.39900654 C14.2430327,9.15299346 13.8910327,9 13.5000261,9 C12.6720523,9 12,9.672 12,10.5000261 C12,10.9380392 12.1900131,11.328 12.4889935,11.6020392 L12.4860131,11.6060654 L17.28,16 L12.4859608,20.3950327 L12.4889412,20.3990065 C12.1899608,20.672 11.9999477,21.0620131 11.9999477,21.5000261 C11.9999477,22.3280523 12.6719477,23.0000523 13.4999739,23.0000523 C13.8909804,23.0000523 14.2429804,22.8470588 14.5109542,22.6020915 L14.5139346,22.6060654 L20.5139346,17.1060392 C20.8229542,16.8210196 20.9999477,16.4210196 20.9999477,16.0000523 C20.9999477,15.579085 20.8229542,15.1790327 20.5139346,14.8940654 L14.5139869,9.39498039 Z M16,0 C7.16402614,0 0,7.16402614 0,16 C0,24.8359739 7.16402614,32 16,32 C24.8359739,32 32,24.8359739 32,16 C32,7.16402614 24.8359739,0 16,0 Z M16,29 C8.832,29 3,23.168 3,16 C3,8.832 8.832,3 16,3 C23.168,3 29,8.832 29,16 C29,23.168 23.168,29 16,29 Z" id="Shape"></path>
            </g>
        </g>
    </g>
</svg>