<svg width="27" height="25" viewBox="0 0 27 25" version="1.1" xmlns="http://www.w3.org/2000/svg" xmlns:xlink="http://www.w3.org/1999/xlink">
<title>Vector</title>
<desc>Created using Figma</desc>
<g id="Canvas" transform="translate(-4137 146)">
<g id="Vector">
<use xlink:href="#path0_stroke" transform="translate(4138 -145)" fill="#616161"/>
</g>
</g>
<defs>
<path id="path0_stroke" d="M 4.43864 23L 3.93864 23L 3.93864 23.5L 4.43864 23.5L 4.43864 23ZM 20.6182 23L 20.6182 23.5L 21.1182 23.5L 21.1182 23L 20.6182 23ZM 25.2 8.54924L 25.2 9.04924L 25.7 9.04924L 25.7 8.54924L 25.2 8.54924ZM 17.325 0.0419371L 17.2808 -0.456103L 16.8479 -0.417665L 16.8257 0.0163743L 17.325 0.0419371ZM 7.73182 0.0419371L 8.22886 -0.0123456L 8.18306 -0.431765L 7.76191 -0.457157L 7.73182 0.0419371ZM 0 8.54924L -0.5 8.54924L -0.5 9.04924L 0 9.04924L 0 8.54924ZM 4.43864 23.5L 20.6182 23.5L 20.6182 22.5L 4.43864 22.5L 4.43864 23.5ZM 21.1182 23L 21.1182 8.54924L 20.1182 8.54924L 20.1182 23L 21.1182 23ZM 21.1182 8.54924L 21.1182 5.28617L 20.1182 5.28617L 20.1182 8.54924L 21.1182 8.54924ZM 20.6182 9.04924L 25.2 9.04924L 25.2 8.04924L 20.6182 8.04924L 20.6182 9.04924ZM 25.2 8.54924C 25.7 8.54924 25.7 8.54924 25.7 8.54923C 25.7 8.54923 25.7 8.54922 25.7 8.54921C 25.7 8.54921 25.7 8.54919 25.7 8.54918C 25.7 8.54917 25.7 8.54915 25.7 8.54913C 25.7 8.54912 25.7 8.54909 25.7 8.54907C 25.7 8.54905 25.7 8.54902 25.7 8.549C 25.7 8.54897 25.7 8.54894 25.7 8.54891C 25.7 8.54887 25.7 8.54884 25.7 8.5488C 25.7 8.54877 25.7 8.54873 25.7 8.54868C 25.7 8.54864 25.7 8.5486 25.7 8.54855C 25.7 8.5485 25.7 8.54846 25.7 8.5484C 25.7 8.54835 25.7 8.5483 25.7 8.54824C 25.7 8.54818 25.7 8.54812 25.7 8.54806C 25.7 8.548 25.7 8.54794 25.7 8.54787C 25.7 8.5478 25.7 8.54773 25.7 8.54766C 25.7 8.54759 25.7 8.54752 25.7 8.54744C 25.7 8.54736 25.7 8.54728 25.7 8.5472C 25.7 8.54712 25.7 8.54703 25.7 8.54694C 25.7 8.54686 25.7 8.54677 25.7 8.54667C 25.7 8.54658 25.7 8.54648 25.7 8.54639C 25.7 8.54629 25.7 8.54619 25.7 8.54608C 25.7 8.54598 25.7 8.54587 25.7 8.54576C 25.7 8.54566 25.7 8.54554 25.7 8.54543C 25.7 8.54531 25.7 8.5452 25.7 8.54508C 25.7 8.54496 25.7 8.54483 25.7 8.54471C 25.7 8.54458 25.7 8.54445 25.7 8.54432C 25.7 8.54419 25.7 8.54406 25.7 8.54392C 25.7 8.54378 25.7 8.54364 25.7 8.5435C 25.7 8.54336 25.7 8.54321 25.7 8.54306C 25.7 8.54291 25.7 8.54276 25.7 8.54261C 25.7 8.54245 25.7 8.5423 25.7 8.54213C 25.7 8.54197 25.7 8.54181 25.7 8.54165C 25.7 8.54148 25.7 8.54131 25.7 8.54114C 25.7 8.54097 25.7 8.54079 25.7 8.54061C 25.7 8.54043 25.7 8.54025 25.7 8.54007C 25.7 8.53988 25.7 8.5397 25.7 8.53951C 25.7 8.53932 25.7 8.53912 25.7 8.53893C 25.7 8.53873 25.7 8.53853 25.7 8.53833C 25.7 8.53812 25.7 8.53792 25.7 8.53771C 25.7 8.5375 25.7 8.53729 25.7 8.53707C 25.7 8.53686 25.7 8.53664 25.7 8.53642C 25.7 8.53619 25.7 8.53597 25.7 8.53574C 25.7 8.53551 25.7 8.53528 25.7 8.53505C 25.7 8.53481 25.7 8.53458 25.7 8.53433C 25.7 8.53409 25.7 8.53385 25.7 8.5336C 25.7 8.53335 25.7 8.5331 25.7 8.53285C 25.7 8.53259 25.7 8.53234 25.7 8.53208C 25.7 8.53182 25.7 8.53155 25.7 8.53128C 25.7 8.53102 25.7 8.53075 25.7 8.53047C 25.7 8.5302 25.7 8.52992 25.7 8.52964C 25.7 8.52936 25.7 8.52907 25.7 8.52879C 25.7 8.5285 25.7 8.52821 25.7 8.52791C 25.7 8.52762 25.7 8.52732 25.7 8.52702C 25.7 8.52672 25.7 8.52641 25.7 8.5261C 25.7 8.5258 25.7 8.52548 25.7 8.52517C 25.7 8.52485 25.7 8.52454 25.7 8.52421C 25.7 8.52389 25.7 8.52356 25.7 8.52323C 25.7 8.5229 25.7 8.52257 25.7 8.52223C 25.7 8.5219 25.7 8.52156 25.7 8.52121C 25.7 8.52087 25.7 8.52052 25.7 8.52017C 25.7 8.51982 25.7 8.51947 25.7 8.51911C 25.7 8.51875 25.7 8.51839 25.7 8.51802C 25.7 8.51766 25.7 8.51729 25.7 8.51691C 25.7 8.51654 25.7 8.51616 25.7 8.51578C 25.7 8.5154 25.7 8.51502 25.7 8.51463C 25.7 8.51424 25.7 8.51385 25.7 8.51345C 25.7 8.51306 25.7 8.51266 25.7 8.51226C 25.7 8.51185 25.7 8.51145 25.7 8.51103C 25.7 8.51062 25.7 8.51021 25.7 8.50979C 25.7 8.50937 25.7 8.50895 25.7 8.50852C 25.7 8.5081 25.7 8.50767 25.7 8.50724C 25.7 8.5068 25.7 8.50636 25.7 8.50592C 25.7 8.50548 25.7 8.50504 25.7 8.50459C 25.7 8.50414 25.7 8.50368 25.7 8.50323C 25.7 8.50277 25.7 8.50231 25.7 8.50184C 25.7 8.50138 25.7 8.50091 25.7 8.50043C 25.7 8.49996 25.7 8.49948 25.7 8.499C 25.7 8.49852 25.7 8.49804 25.7 8.49755C 25.7 8.49706 25.7 8.49656 25.7 8.49607C 25.7 8.49557 25.7 8.49507 25.7 8.49456C 25.7 8.49405 25.7 8.49355 25.7 8.49303C 25.7 8.49252 25.7 8.492 25.7 8.49148C 25.7 8.49096 25.7 8.49043 25.7 8.4899C 25.7 8.48937 25.7 8.48883 25.7 8.48829C 25.7 8.48776 25.7 8.48721 25.7 8.48666C 25.7 8.48612 25.7 8.48557 25.7 8.48501C 25.7 8.48446 25.7 8.4839 25.7 8.48333C 25.7 8.48277 25.7 8.4822 25.7 8.48163C 25.7 8.48105 25.7 8.48048 25.7 8.47989C 25.7 8.47931 25.7 8.47873 25.7 8.47814C 25.7 8.47755 25.7 8.47695 25.7 8.47635C 25.7 8.47576 25.7 8.47515 25.7 8.47454C 25.7 8.47394 25.7 8.47333 25.7 8.47271C 25.7 8.47209 25.7 8.47147 25.7 8.47085C 25.7 8.47022 25.7 8.46959 25.7 8.46896C 25.7 8.46833 25.7 8.46769 25.7 8.46704C 25.7 8.4664 25.7 8.46575 25.7 8.4651C 25.7 8.46445 25.7 8.46379 25.7 8.46313C 25.7 8.46247 25.7 8.46181 25.7 8.46114C 25.7 8.46047 25.7 8.45979 25.7 8.45911C 25.7 8.45844 25.7 8.45775 25.7 8.45706C 25.7 8.45638 25.7 8.45568 25.7 8.45498C 25.7 8.45429 25.7 8.45359 25.7 8.45288C 25.7 8.45217 25.7 8.45146 25.7 8.45075C 25.7 8.45003 25.7 8.44931 25.7 8.44858C 25.7 8.44786 25.7 8.44713 25.7 8.44639C 25.7 8.44566 25.7 8.44492 25.7 8.44418C 25.7 8.44343 25.7 8.44268 25.7 8.44193C 25.7 8.44118 25.7 8.44042 25.7 8.43965C 25.7 8.43889 25.7 8.43812 25.7 8.43735C 25.7 8.43658 25.7 8.4358 25.7 8.43502C 25.7 8.43424 25.7 8.43345 25.7 8.43266C 25.7 8.43186 25.7 8.43107 25.7 8.43027C 25.7 8.42946 25.7 8.42866 25.7 8.42785C 25.7 8.42704 25.7 8.42622 25.7 8.4254C 25.7 8.42458 25.7 8.42375 25.7 8.42292C 25.7 8.42209 25.7 8.42125 25.7 8.42041C 25.7 8.41957 25.7 8.41872 25.7 8.41787C 25.7 8.41702 25.7 8.41617 25.7 8.4153C 25.7 8.41444 25.7 8.41358 25.7 8.41271C 25.7 8.41183 25.7 8.41096 25.7 8.41008C 25.7 8.4092 25.7 8.40831 25.7 8.40742C 25.7 8.40653 25.7 8.40563 25.7 8.40473C 25.7 8.40383 25.7 8.40292 25.7 8.40201C 25.7 8.4011 25.7 8.40018 25.7 8.39926C 25.7 8.39834 25.7 8.39741 25.7 8.39648C 25.7 8.39555 25.7 8.39461 25.7 8.39367C 25.7 8.39272 25.7 8.39178 25.7 8.39082C 25.7 8.38987 25.7 8.38891 25.7 8.38795C 25.7 8.38698 25.7 8.38601 25.7 8.38504C 25.7 8.38407 25.7 8.38309 25.7 8.3821C 25.7 8.38112 25.7 8.38013 25.7 8.37913C 25.7 8.37814 25.7 8.37714 25.7 8.37613C 25.7 8.37512 25.7 8.37411 25.7 8.3731C 25.7 8.37208 25.7 8.37106 25.7 8.37003C 25.7 8.369 25.7 8.36797 25.7 8.36693C 25.7 8.36589 25.7 8.36485 25.7 8.3638C 25.7 8.36275 25.7 8.3617 25.7 8.36064C 25.7 8.35958 25.7 8.35851 25.7 8.35744C 25.7 8.35637 25.7 8.35529 25.7 8.35421C 25.7 8.35313 25.7 8.35204 25.7 8.35095C 25.7 8.34986 25.7 8.34876 25.7 8.34765C 25.7 8.34655 25.7 8.34544 25.7 8.34433C 25.7 8.34321 25.7 8.34209 25.7 8.34096C 25.7 8.33984 25.7 8.33871 25.7 8.33757C 25.7 8.33643 25.7 8.33529 25.7 8.33414C 25.7 8.33299 25.7 8.33184 25.7 8.33068C 25.7 8.32952 25.7 8.32835 25.7 8.32718C 25.7 8.32601 25.7 8.32483 25.7 8.32365C 25.7 8.32246 25.7 8.32127 25.7 8.32008C 25.7 8.31889 25.7 8.31769 25.7 8.31648C 25.7 8.31528 25.7 8.31406 25.7 8.31285C 25.7 8.31163 25.7 8.31041 25.7 8.30918C 25.7 8.30795 25.7 8.30671 25.7 8.30547C 25.7 8.30423 25.7 8.30299 25.7 8.30173C 25.7 8.30048 25.7 8.29922 25.7 8.29796C 25.7 8.29669 25.7 8.29542 25.7 8.29415C 25.7 8.29287 25.7 8.29159 25.7 8.2903C 25.7 8.28902 25.7 8.28772 25.7 8.28642C 25.7 8.28512 25.7 8.28382 25.7 8.28251C 25.7 8.28119 25.7 8.27988 25.7 8.27855C 25.7 8.27723 25.7 8.2759 25.7 8.27457C 25.7 8.27323 25.7 8.27189 25.7 8.27054C 25.7 8.26919 25.7 8.26784 25.7 8.26648C 25.7 8.26512 25.7 8.26375 25.7 8.26238C 25.7 8.26101 25.7 8.25963 25.7 8.25825C 25.7 8.25687 25.7 8.25548 25.7 8.25408C 25.7 8.25268 25.7 8.25128 25.7 8.24987C 25.7 8.24846 25.7 8.24705 25.7 8.24563C 25.7 8.24421 25.7 8.24278 25.7 8.24135C 25.7 8.23991 25.7 8.23847 25.7 8.23703C 25.7 8.23558 25.7 8.23413 25.7 8.23267C 25.7 8.23121 25.7 8.22975 25.7 8.22828C 25.7 8.22681 25.7 8.22533 25.7 8.22385C 25.7 8.22236 25.7 8.22088 25.7 8.21938C 25.7 8.21788 25.7 8.21638 25.7 8.21487C 25.7 8.21336 25.7 8.21185 25.7 8.21033C 25.7 8.20881 25.7 8.20728 25.7 8.20574C 25.7 8.20421 25.7 8.20267 25.7 8.20112C 25.7 8.19958 25.7 8.19802 25.7 8.19646C 25.7 8.1949 25.7 8.19334 25.7 8.19176C 25.7 8.19019 25.7 8.18861 25.7 8.18703C 25.7 8.18544 25.7 8.18385 25.7 8.18225C 25.7 8.18065 25.7 8.17905 25.7 8.17743C 25.7 8.17582 25.7 8.1742 25.7 8.17258C 25.7 8.17096 25.7 8.16932 25.7 8.16769C 25.7 8.16605 25.7 8.1644 25.7 8.16275C 25.7 8.1611 25.7 8.15944 25.7 8.15778C 25.7 8.15611 25.7 8.15444 25.7 8.15277C 25.7 8.15109 25.7 8.1494 25.7 8.14771C 25.7 8.14602 25.7 8.14433 25.7 8.14262C 25.7 8.14092 25.7 8.1392 25.7 8.13749C 25.7 8.13577 25.7 8.13404 25.7 8.13231C 25.7 8.13058 25.7 8.12884 25.7 8.1271C 25.7 8.12535 25.7 8.1236 25.7 8.12185C 25.7 8.12009 25.7 8.11832 25.7 8.11655C 25.7 8.11478 25.7 8.113 25.7 8.11121C 25.7 8.10943 25.7 8.10764 25.7 8.10584C 25.7 8.10404 25.7 8.10223 25.7 8.10042C 25.7 8.0986 25.7 8.09678 25.7 8.09496C 25.7 8.09313 25.7 8.0913 25.7 8.08946C 25.7 8.08762 25.7 8.08577 25.7 8.08391C 25.7 8.08206 25.7 8.0802 25.7 8.07833C 25.7 8.07646 25.7 8.07458 25.7 8.0727C 25.7 8.07082 25.7 8.06893 25.7 8.06703C 25.7 8.06514 25.7 8.06323 25.7 8.06132C 25.7 8.05941 25.7 8.05749 25.7 8.05557C 25.7 8.05365 25.7 8.05171 25.7 8.04977C 25.7 8.04784 25.7 8.04589 25.7 8.04394C 25.7 8.04198 25.7 8.04002 25.7 8.03806C 25.7 8.03609 25.7 8.03411 25.7 8.03213C 25.7 8.03015 25.7 8.02816 25.7 8.02616C 25.7 8.02417 25.7 8.02217 25.7 8.02015C 25.7 8.01814 25.7 8.01613 25.7 8.0141C 25.7 8.01208 25.7 8.01004 25.7 8.008C 25.7 8.00597 25.7 8.00392 25.7 8.00186C 25.7 7.99981 25.7 7.99775 25.7 7.99568C 25.7 7.99361 25.7 7.99154 25.7 7.98945C 25.7 7.98737 25.7 7.98528 25.7 7.98318C 25.7 7.98108 25.7 7.97898 25.7 7.97686C 25.7 7.97475 25.7 7.97263 25.7 7.9705C 25.7 7.96838 25.7 7.96624 25.7 7.9641C 25.7 7.96196 25.7 7.95981 25.7 7.95765C 25.7 7.95549 25.7 7.95333 25.7 7.95116C 25.7 7.94898 25.7 7.94681 25.7 7.94462C 25.7 7.94243 25.7 7.94024 25.7 7.93803C 25.7 7.93583 25.7 7.93362 25.7 7.93141C 25.7 7.92919 25.7 7.92696 25.7 7.92473C 25.7 7.9225 25.7 7.92026 25.7 7.91801C 25.7 7.91576 25.7 7.91351 25.7 7.91125C 25.7 7.90898 25.7 7.90671 25.7 7.90444C 25.7 7.90216 25.7 7.89987 25.7 7.89758C 25.7 7.89529 25.7 7.89298 25.7 7.89068C 25.7 7.88837 25.7 7.88605 25.7 7.88373C 25.7 7.8814 25.7 7.87907 25.7 7.87673C 25.7 7.87439 25.7 7.87205 25.7 7.86969C 25.7 7.86734 25.7 7.86497 25.7 7.8626C 25.7 7.86023 25.7 7.85785 25.7 7.85547C 25.7 7.85308 25.7 7.85069 25.7 7.84829C 25.7 7.84589 25.7 7.84348 25.7 7.84106C 25.7 7.83864 25.7 7.83622 25.7 7.83378C 25.7 7.83135 25.7 7.82891 25.7 7.82646C 25.7 7.82401 25.7 7.82156 25.7 7.81909C 25.7 7.81663 25.7 7.81415 25.7 7.81167C 25.7 7.80919 25.7 7.8067 25.7 7.80421C 25.7 7.80171 25.7 7.79921 25.7 7.79669C 25.7 7.79418 25.7 7.79166 25.7 7.78913C 25.7 7.78661 25.7 7.78407 25.7 7.78153C 25.7 7.77898 25.7 7.77643 25.7 7.77387C 25.7 7.77131 25.7 7.76874 25.7 7.76616C 25.7 7.76359 25.7 7.761 25.7 7.75841C 25.7 7.75582 25.7 7.75321 25.7 7.75061C 25.7 7.748 25.7 7.74538 25.7 7.74275C 25.7 7.74013 25.7 7.73749 25.7 7.73485C 25.7 7.73221 25.7 7.72956 25.7 7.7269C 25.7 7.72425 25.7 7.72158 25.7 7.7189C 25.7 7.71623 25.7 7.71355 25.7 7.71086C 25.7 7.70817 25.7 7.70547 25.7 7.70276C 25.7 7.70005 25.7 7.69734 25.7 7.69461C 25.7 7.69189 25.7 7.68916 25.7 7.68642C 25.7 7.68367 25.7 7.68093 25.7 7.67817C 25.7 7.67541 25.7 7.67265 25.7 7.66987C 25.7 7.6671 25.7 7.66431 25.7 7.66152C 25.7 7.65873 25.7 7.65593 25.7 7.65313C 25.7 7.65032 25.7 7.6475 25.7 7.64468C 25.7 7.64185 25.7 7.63902 25.7 7.63618C 25.7 7.63334 25.7 7.63049 25.7 7.62763C 25.7 7.62477 25.7 7.62191 25.7 7.61903C 25.7 7.61616 25.7 7.61327 25.7 7.61038C 25.7 7.60749 25.7 7.60459 25.7 7.60168C 25.7 7.59877 25.7 7.59585 25.7 7.59292C 25.7 7.59 25.7 7.58706 25.7 7.58412C 25.7 7.58117 25.7 7.57822 25.7 7.57526C 25.7 7.5723 25.7 7.56933 25.7 7.56635C 25.7 7.56337 25.7 7.56039 25.7 7.55739C 25.7 7.5544 25.7 7.55139 25.7 7.54838C 25.7 7.54537 25.7 7.54235 25.7 7.53932C 25.7 7.53629 25.7 7.53325 25.7 7.5302C 25.7 7.52715 25.7 7.52409 25.7 7.52103C 25.7 7.51796 25.7 7.51489 25.7 7.51181C 25.7 7.50872 25.7 7.50563 25.7 7.50253C 25.7 7.49943 25.7 7.49632 25.7 7.49321C 25.7 7.49009 25.7 7.48696 25.7 7.48383C 25.7 7.48069 25.7 7.47754 25.7 7.47439C 25.7 7.47124 25.7 7.46808 25.7 7.4649C 25.7 7.46173 25.7 7.45855 25.7 7.45536C 25.7 7.45218 25.7 7.44898 25.7 7.44577C 25.7 7.44256 25.7 7.43935 25.7 7.43612C 25.7 7.4329 25.7 7.42966 25.7 7.42642C 25.7 7.42318 25.7 7.41993 25.7 7.41667C 25.7 7.4134 25.7 7.41014 25.7 7.40686C 25.7 7.40358 25.7 7.40029 25.7 7.39699C 25.7 7.3937 25.7 7.39039 25.7 7.38707C 25.7 7.38376 25.7 7.38043 25.7 7.3771C 25.7 7.37377 25.7 7.37043 25.7 7.36707C 25.7 7.36372 25.7 7.36036 25.7 7.35699C 25.7 7.35362 25.7 7.35024 25.7 7.34685C 25.7 7.34347 25.7 7.34007 25.7 7.33666C 25.7 7.33326 25.7 7.32984 25.7 7.32641C 25.7 7.32299 25.7 7.31955 25.7 7.31611C 25.7 7.31267 25.7 7.30922 25.7 7.30575C 25.7 7.30229 25.7 7.29882 25.7 7.29534C 25.7 7.29186 25.7 7.28837 25.7 7.28487C 25.7 7.28137 25.7 7.27786 25.7 7.27434C 25.7 7.27082 25.7 7.2673 25.7 7.26376C 25.7 7.26022 25.7 7.25668 25.7 7.25312C 25.7 7.24957 25.7 7.246 25.7 7.24243C 25.7 7.23885 25.7 7.23527 25.7 7.23168C 25.7 7.22808 25.7 7.22448 25.7 7.22087C 25.7 7.21726 25.7 7.21363 25.7 7.21C 25.7 7.20637 25.7 7.20273 25.7 7.19908C 25.7 7.19543 25.7 7.19177 25.7 7.1881C 25.7 7.18443 25.7 7.18076 25.7 7.17707C 25.7 7.17338 25.7 7.16968 25.7 7.16597C 25.7 7.16227 25.7 7.15855 25.7 7.15482C 25.7 7.1511 25.7 7.14736 25.7 7.14361C 25.7 7.13987 25.7 7.13611 25.7 7.13235C 25.7 7.12858 25.7 7.12481 25.7 7.12102C 25.7 7.11724 25.7 7.11345 25.7 7.10964C 25.7 7.10584 25.7 7.10202 25.7 7.0982C 25.7 7.09438 25.7 7.09055 25.7 7.0867C 25.7 7.08286 25.7 7.07901 25.7 7.07514C 25.7 7.07128 25.7 7.06741 25.7 7.06353C 25.7 7.05965 25.7 7.05576 25.7 7.05185C 25.7 7.04795 25.7 7.04404 25.7 7.04012C 25.7 7.0362 25.7 7.03227 25.7 7.02833C 25.7 7.02439 25.7 7.02044 25.7 7.01648C 25.7 7.01252 25.7 7.00855 25.7 7.00457C 25.7 7.00058 25.7 6.99659 25.7 6.99259C 25.7 6.98859 25.7 6.98458 25.7 6.98056C 25.7 6.97654 25.7 6.97251 25.7 6.96847C 25.7 6.96443 25.7 6.96038 25.7 6.95632C 25.7 6.95226 25.7 6.94819 25.7 6.94411C 25.7 6.94003 25.7 6.93594 25.7 6.93184C 25.7 6.92774 25.7 6.92363 25.7 6.91951C 25.7 6.91539 25.7 6.91126 25.7 6.90712C 25.7 6.90298 25.7 6.89883 25.7 6.89467C 25.7 6.89051 25.7 6.88634 25.7 6.88216C 25.7 6.87798 25.7 6.87379 25.7 6.86959C 25.7 6.86538 25.7 6.86117 25.7 6.85695C 25.7 6.85273 25.7 6.8485 25.7 6.84426C 25.7 6.84001 25.7 6.83576 25.7 6.8315C 25.7 6.82724 25.7 6.82296 25.7 6.81868C 25.7 6.8144 25.7 6.81011 25.7 6.8058C 25.7 6.8015 25.7 6.79718 25.7 6.79286C 25.7 6.78854 25.7 6.7842 25.7 6.77986C 25.7 6.77551 25.7 6.77116 25.7 6.76679C 25.7 6.76243 25.7 6.75805 25.7 6.75366C 25.7 6.74928 25.7 6.74488 25.7 6.74048C 25.7 6.73607 25.7 6.73165 25.7 6.72722C 25.7 6.7228 25.7 6.71836 25.7 6.71391C 25.7 6.70946 25.7 6.705 25.7 6.70053C 25.7 6.69606 25.7 6.69158 25.7 6.68709C 25.7 6.6826 25.7 6.6781 25.7 6.67359C 25.7 6.66908 25.7 6.66455 25.7 6.66002C 25.7 6.65549 25.7 6.65095 25.7 6.64639C 25.7 6.64184 25.7 6.63727 25.7 6.6327C 25.7 6.62812 25.7 6.62354 25.7 6.61894C 25.7 6.61435 25.7 6.60974 25.7 6.60512C 25.7 6.6005 25.7 6.59588 25.7 6.59124C 25.7 6.5866 25.7 6.58195 25.7 6.57729C 25.7 6.57263 25.7 6.56796 25.7 6.56328C 25.7 6.5586 25.7 6.5539 25.7 6.5492C 25.7 6.5445 25.7 6.53978 25.7 6.53506C 25.7 6.53034 25.7 6.5256 25.7 6.52085C 25.7 6.51611 25.7 6.51135 25.7 6.50658C 25.7 6.50182 25.7 6.49704 25.7 6.49225C 25.7 6.48746 25.7 6.48266 25.7 6.47785C 25.7 6.47304 25.7 6.46822 25.7 6.46338C 25.7 6.45855 25.7 6.45371 25.7 6.44885C 25.7 6.444 25.7 6.43914 25.7 6.43426C 25.7 6.42938 25.7 6.4245 25.7 6.4196C 25.7 6.4147 25.7 6.40979 25.7 6.40487C 25.7 6.39995 25.7 6.39502 25.7 6.39008C 25.7 6.38514 25.7 6.38018 25.7 6.37522C 25.7 6.37026 25.7 6.36528 25.7 6.3603C 25.7 6.35531 25.7 6.35031 25.7 6.3453C 25.7 6.3403 25.7 6.33528 25.7 6.33025C 25.7 6.32522 25.7 6.32018 25.7 6.31512C 25.7 6.31007 25.7 6.30501 25.7 6.29993C 25.7 6.29486 25.7 6.28977 25.7 6.28468C 25.7 6.27958 25.7 6.27447 25.7 6.26935C 25.7 6.26423 25.7 6.2591 25.7 6.25396C 25.7 6.24882 25.7 6.24367 25.7 6.2385C 25.7 6.23334 25.7 6.22816 25.7 6.22298C 25.7 6.21779 25.7 6.21259 25.7 6.20738C 25.7 6.20217 25.7 6.19695 25.7 6.19172C 25.7 6.18649 25.7 6.18125 25.7 6.17599C 25.7 6.17074 25.7 6.16547 25.7 6.1602C 25.7 6.15492 25.7 6.14963 25.7 6.14433C 25.7 6.13903 25.7 6.13372 25.7 6.1284C 25.7 6.12308 25.7 6.11774 25.7 6.1124C 25.7 6.10705 25.7 6.1017 25.7 6.09633C 25.7 6.09096 25.7 6.08558 25.7 6.08019C 25.7 6.0748 25.7 6.0694 25.7 6.06398C 25.7 6.05857 25.7 6.05315 25.7 6.04771C 25.7 6.04227 25.7 6.03682 25.7 6.03136C 25.7 6.0259 25.7 6.02043 25.7 6.01495C 25.7 6.00947 25.7 6.00397 25.7 5.99847C 25.7 5.99296 25.7 5.98744 25.7 5.98191C 25.7 5.97638 25.7 5.97084 25.7 5.96529C 25.7 5.95974 25.7 5.95417 25.7 5.9486C 25.7 5.94302 25.7 5.93744 25.7 5.93184C 25.7 5.92624 25.7 5.92063 25.7 5.91501C 25.7 5.90938 25.7 5.90375 25.7 5.8981C 25.7 5.89246 25.7 5.8868 25.7 5.88113C 25.7 5.87546 25.7 5.86978 25.7 5.86409C 25.7 5.85839 25.7 5.85269 25.7 5.84697C 25.7 5.84126 25.7 5.83553 25.7 5.82979C 25.7 5.82405 25.7 5.8183 25.7 5.81253C 25.7 5.80677 25.7 5.801 25.7 5.79521C 25.7 5.78942 25.7 5.78362 25.7 5.77781C 25.7 5.772 25.7 5.76618 25.7 5.76034C 25.7 5.75451 25.7 5.74866 25.7 5.7428C 25.7 5.73694 25.7 5.73107 25.7 5.72519C 25.7 5.71931 25.7 5.71341 25.7 5.70751C 25.7 5.7016 25.7 5.69568 25.7 5.68975C 25.7 5.68382 25.7 5.67788 25.7 5.67193C 25.7 5.66597 25.7 5.66 25.7 5.65403C 25.7 5.64805 25.7 5.64206 25.7 5.63605C 25.7 5.63005 25.7 5.62404 25.7 5.61801C 25.7 5.61198 25.7 5.60594 25.7 5.59989C 25.7 5.59384 25.7 5.58778 25.7 5.5817C 25.7 5.57563 25.7 5.56954 25.7 5.56344C 25.7 5.55734 25.7 5.55123 25.7 5.54511C 25.7 5.53898 25.7 5.53285 25.7 5.5267C 25.7 5.52055 25.7 5.51439 25.7 5.50822C 25.7 5.50205 25.7 5.49586 25.7 5.48966C 25.7 5.48347 25.7 5.47726 25.7 5.47103C 25.7 5.46481 25.7 5.45858 25.7 5.45233C 25.7 5.44609 25.7 5.43983 25.7 5.43356C 25.7 5.42729 25.7 5.421 25.7 5.41471C 25.7 5.40841 25.7 5.4021 25.7 5.39578C 25.7 5.38946 25.7 5.38313 25.7 5.37678C 25.7 5.37044 25.7 5.36408 25.7 5.35771C 25.7 5.35134 25.7 5.34496 25.7 5.33856C 25.7 5.33217 25.7 5.32576 25.7 5.31934C 25.7 5.31292 25.7 5.30649 25.7 5.30005C 25.7 5.2936 25.7 5.28714 25.7 5.28068C 25.7 5.27421 25.7 5.26772 25.7 5.26123C 25.7 5.25473 25.7 5.24823 25.7 5.24171C 25.7 5.23519 25.7 5.22865 25.7 5.22211C 25.7 5.21556 25.7 5.20901 25.7 5.20244C 25.7 5.19587 25.7 5.18928 25.7 5.18269C 25.7 5.17609 25.7 5.16949 25.7 5.16286C 25.7 5.15624 25.7 5.14961 25.7 5.14296C 25.7 5.13632 25.7 5.12966 25.7 5.12299C 25.7 5.11632 25.7 5.10963 25.7 5.10294C 25.7 5.09624 25.7 5.08953 25.7 5.08281C 25.7 5.07609 25.7 5.06935 25.7 5.0626C 25.7 5.05585 25.7 5.04909 25.7 5.04232C 25.7 5.03555 25.7 5.02876 25.7 5.02196C 25.7 5.01516 25.7 5.00835 25.7 5.00153C 25.7 4.9947 25.7 4.98786 25.7 4.98101C 25.7 4.97416 25.7 4.9673 25.7 4.96042C 25.7 4.95355 25.7 4.94666 25.7 4.93976C 25.7 4.93285 25.7 4.92594 25.7 4.91901C 25.7 4.91208 25.7 4.90514 25.7 4.89819C 25.7 4.89124 25.7 4.88427 25.7 4.87729C 25.7 4.87031 25.7 4.86332 25.7 4.85631C 25.7 4.84931 25.7 4.84229 25.7 4.83526C 25.7 4.82822 25.7 4.82118 25.7 4.81412C 25.7 4.80706 25.7 4.79999 25.7 4.79291C 25.7 4.78583 25.7 4.77873 25.7 4.77162C 25.7 4.76451 25.7 4.75739 25.7 4.75025C 25.7 4.74311 25.7 4.73596 25.7 4.7288C 25.7 4.72164 25.7 4.71446 25.7 4.70727C 25.7 4.70009 25.7 4.69288 25.7 4.68567C 25.7 4.67845 25.7 4.67122 25.7 4.66398C 25.7 4.65674 25.7 4.64949 25.7 4.64222C 25.7 4.63495 25.7 4.62767 25.7 4.62037C 25.7 4.61308 25.7 4.60577 25.7 4.59845C 25.7 4.59113 25.7 4.58379 25.7 4.57645C 25.7 4.5691 25.7 4.56174 25.7 4.55436C 25.7 4.54699 25.7 4.5396 25.7 4.5322C 25.7 4.5248 25.7 4.51739 25.7 4.50996C 25.7 4.50253 25.7 4.49509 25.7 4.48763C 25.7 4.48018 25.7 4.47271 25.7 4.46523C 25.7 4.45775 25.7 4.45025 25.7 4.44274C 25.7 4.43524 25.7 4.42771 25.7 4.42018C 25.7 4.41264 25.7 4.4051 25.7 4.39753C 25.7 4.38997 25.7 4.38239 25.7 4.37481C 25.7 4.36722 25.7 4.35961 25.7 4.352C 25.7 4.34438 25.7 4.33675 25.7 4.32911C 25.7 4.32146 25.7 4.31381 25.7 4.30614C 25.7 4.29847 25.7 4.29078 25.7 4.28308C 25.7 4.27539 25.7 4.26767 25.7 4.25995C 25.7 4.25222 25.7 4.24449 25.7 4.23673C 25.7 4.22898 25.7 4.22121 25.7 4.21344C 25.7 4.20566 25.7 4.19786 25.7 4.19005C 25.7 4.18225 25.7 4.17443 25.7 4.16659C 25.7 4.15876 25.7 4.15091 25.7 4.14305C 25.7 4.13519 25.7 4.12731 25.7 4.11942C 25.7 4.11153 25.7 4.10363 25.7 4.09571C 25.7 4.08779 25.7 4.07986 25.7 4.07192C 25.7 4.06397 25.7 4.05601 25.7 4.04804C 25.7 4.04007 25.7 4.03208 25.7 4.02408C 25.7 4.01608 25.7 4.00807 25.7 4.00004C 25.7 3.99201 25.7 3.98397 25.7 3.97591C 25.7 3.96786 25.7 3.95979 25.7 3.9517C 25.7 3.94362 25.7 3.93552 25.7 3.92741C 25.7 3.9193 25.7 3.91117 25.7 3.90303C 25.7 3.8949 25.7 3.88674 25.7 3.87857C 25.7 3.87041 25.7 3.86223 25.7 3.85403C 25.7 3.84583 25.7 3.83762 25.7 3.8294C 25.7 3.82118 25.7 3.81294 25.7 3.80469C 25.7 3.79644 25.7 3.78817 25.7 3.77989C 25.7 3.77161 25.7 3.76332 25.7 3.75501C 25.7 3.7467 25.7 3.73838 25.7 3.73004C 25.7 3.7217 25.7 3.71335 25.7 3.70499C 25.7 3.69662 25.7 3.68824 25.7 3.67985C 25.7 3.67146 25.7 3.66305 25.7 3.65463L 24.7 3.65463C 24.7 3.66305 24.7 3.67146 24.7 3.67985C 24.7 3.68824 24.7 3.69662 24.7 3.70499C 24.7 3.71335 24.7 3.7217 24.7 3.73004C 24.7 3.73838 24.7 3.7467 24.7 3.75501C 24.7 3.76332 24.7 3.77161 24.7 3.77989C 24.7 3.78817 24.7 3.79644 24.7 3.80469C 24.7 3.81294 24.7 3.82118 24.7 3.8294C 24.7 3.83762 24.7 3.84583 24.7 3.85403C 24.7 3.86223 24.7 3.87041 24.7 3.87857C 24.7 3.88674 24.7 3.8949 24.7 3.90303C 24.7 3.91117 24.7 3.9193 24.7 3.92741C 24.7 3.93552 24.7 3.94362 24.7 3.9517C 24.7 3.95979 24.7 3.96786 24.7 3.97591C 24.7 3.98397 24.7 3.99201 24.7 4.00004C 24.7 4.00807 24.7 4.01608 24.7 4.02408C 24.7 4.03208 24.7 4.04007 24.7 4.04804C 24.7 4.05601 24.7 4.06397 24.7 4.07192C 24.7 4.07986 24.7 4.08779 24.7 4.09571C 24.7 4.10363 24.7 4.11153 24.7 4.11942C 24.7 4.12731 24.7 4.13519 24.7 4.14305C 24.7 4.15091 24.7 4.15876 24.7 4.16659C 24.7 4.17443 24.7 4.18225 24.7 4.19005C 24.7 4.19786 24.7 4.20566 24.7 4.21344C 24.7 4.22121 24.7 4.22898 24.7 4.23673C 24.7 4.24449 24.7 4.25222 24.7 4.25995C 24.7 4.26767 24.7 4.27539 24.7 4.28308C 24.7 4.29078 24.7 4.29847 24.7 4.30614C 24.7 4.31381 24.7 4.32146 24.7 4.32911C 24.7 4.33675 24.7 4.34438 24.7 4.352C 24.7 4.35961 24.7 4.36722 24.7 4.37481C 24.7 4.38239 24.7 4.38997 24.7 4.39753C 24.7 4.4051 24.7 4.41264 24.7 4.42018C 24.7 4.42771 24.7 4.43524 24.7 4.44274C 24.7 4.45025 24.7 4.45775 24.7 4.46523C 24.7 4.47271 24.7 4.48018 24.7 4.48763C 24.7 4.49509 24.7 4.50253 24.7 4.50996C 24.7 4.51739 24.7 4.5248 24.7 4.5322C 24.7 4.5396 24.7 4.54699 24.7 4.55436C 24.7 4.56174 24.7 4.5691 24.7 4.57645C 24.7 4.58379 24.7 4.59113 24.7 4.59845C 24.7 4.60577 24.7 4.61308 24.7 4.62037C 24.7 4.62767 24.7 4.63495 24.7 4.64222C 24.7 4.64949 24.7 4.65674 24.7 4.66398C 24.7 4.67122 24.7 4.67845 24.7 4.68567C 24.7 4.69288 24.7 4.70009 24.7 4.70727C 24.7 4.71446 24.7 4.72164 24.7 4.7288C 24.7 4.73596 24.7 4.74311 24.7 4.75025C 24.7 4.75739 24.7 4.76451 24.7 4.77162C 24.7 4.77873 24.7 4.78583 24.7 4.79291C 24.7 4.79999 24.7 4.80706 24.7 4.81412C 24.7 4.82118 24.7 4.82822 24.7 4.83526C 24.7 4.84229 24.7 4.84931 24.7 4.85631C 24.7 4.86332 24.7 4.87031 24.7 4.87729C 24.7 4.88427 24.7 4.89124 24.7 4.89819C 24.7 4.90514 24.7 4.91208 24.7 4.91901C 24.7 4.92594 24.7 4.93285 24.7 4.93976C 24.7 4.94666 24.7 4.95355 24.7 4.96042C 24.7 4.9673 24.7 4.97416 24.7 4.98101C 24.7 4.98786 24.7 4.9947 24.7 5.00153C 24.7 5.00835 24.7 5.01516 24.7 5.02196C 24.7 5.02876 24.7 5.03555 24.7 5.04232C 24.7 5.04909 24.7 5.05585 24.7 5.0626C 24.7 5.06935 24.7 5.07609 24.7 5.08281C 24.7 5.08953 24.7 5.09624 24.7 5.10294C 24.7 5.10963 24.7 5.11632 24.7 5.12299C 24.7 5.12966 24.7 5.13632 24.7 5.14296C 24.7 5.14961 24.7 5.15624 24.7 5.16286C 24.7 5.16949 24.7 5.17609 24.7 5.18269C 24.7 5.18928 24.7 5.19587 24.7 5.20244C 24.7 5.20901 24.7 5.21556 24.7 5.22211C 24.7 5.22865 24.7 5.23519 24.7 5.24171C 24.7 5.24823 24.7 5.25473 24.7 5.26123C 24.7 5.26772 24.7 5.27421 24.7 5.28068C 24.7 5.28714 24.7 5.2936 24.7 5.30005C 24.7 5.30649 24.7 5.31292 24.7 5.31934C 24.7 5.32576 24.7 5.33217 24.7 5.33856C 24.7 5.34496 24.7 5.35134 24.7 5.35771C 24.7 5.36408 24.7 5.37044 24.7 5.37678C 24.7 5.38313 24.7 5.38946 24.7 5.39578C 24.7 5.4021 24.7 5.40841 24.7 5.41471C 24.7 5.421 24.7 5.42729 24.7 5.43356C 24.7 5.43983 24.7 5.44609 24.7 5.45233C 24.7 5.45858 24.7 5.46481 24.7 5.47103C 24.7 5.47726 24.7 5.48347 24.7 5.48966C 24.7 5.49586 24.7 5.50205 24.7 5.50822C 24.7 5.51439 24.7 5.52055 24.7 5.5267C 24.7 5.53285 24.7 5.53898 24.7 5.54511C 24.7 5.55123 24.7 5.55734 24.7 5.56344C 24.7 5.56954 24.7 5.57563 24.7 5.5817C 24.7 5.58778 24.7 5.59384 24.7 5.59989C 24.7 5.60594 24.7 5.61198 24.7 5.61801C 24.7 5.62404 24.7 5.63005 24.7 5.63605C 24.7 5.64206 24.7 5.64805 24.7 5.65403C 24.7 5.66 24.7 5.66597 24.7 5.67193C 24.7 5.67788 24.7 5.68382 24.7 5.68975C 24.7 5.69568 24.7 5.7016 24.7 5.70751C 24.7 5.71341 24.7 5.71931 24.7 5.72519C 24.7 5.73107 24.7 5.73694 24.7 5.7428C 24.7 5.74866 24.7 5.75451 24.7 5.76034C 24.7 5.76618 24.7 5.772 24.7 5.77781C 24.7 5.78362 24.7 5.78942 24.7 5.79521C 24.7 5.801 24.7 5.80677 24.7 5.81253C 24.7 5.8183 24.7 5.82405 24.7 5.82979C 24.7 5.83553 24.7 5.84126 24.7 5.84697C 24.7 5.85269 24.7 5.85839 24.7 5.86409C 24.7 5.86978 24.7 5.87546 24.7 5.88113C 24.7 5.8868 24.7 5.89246 24.7 5.8981C 24.7 5.90375 24.7 5.90938 24.7 5.91501C 24.7 5.92063 24.7 5.92624 24.7 5.93184C 24.7 5.93744 24.7 5.94302 24.7 5.9486C 24.7 5.95417 24.7 5.95974 24.7 5.96529C 24.7 5.97084 24.7 5.97638 24.7 5.98191C 24.7 5.98744 24.7 5.99296 24.7 5.99847C 24.7 6.00397 24.7 6.00947 24.7 6.01495C 24.7 6.02043 24.7 6.0259 24.7 6.03136C 24.7 6.03682 24.7 6.04227 24.7 6.04771C 24.7 6.05315 24.7 6.05857 24.7 6.06398C 24.7 6.0694 24.7 6.0748 24.7 6.08019C 24.7 6.08558 24.7 6.09096 24.7 6.09633C 24.7 6.1017 24.7 6.10705 24.7 6.1124C 24.7 6.11774 24.7 6.12308 24.7 6.1284C 24.7 6.13372 24.7 6.13903 24.7 6.14433C 24.7 6.14963 24.7 6.15492 24.7 6.1602C 24.7 6.16547 24.7 6.17074 24.7 6.17599C 24.7 6.18125 24.7 6.18649 24.7 6.19172C 24.7 6.19695 24.7 6.20217 24.7 6.20738C 24.7 6.21259 24.7 6.21779 24.7 6.22298C 24.7 6.22816 24.7 6.23334 24.7 6.2385C 24.7 6.24367 24.7 6.24882 24.7 6.25396C 24.7 6.2591 24.7 6.26423 24.7 6.26935C 24.7 6.27447 24.7 6.27958 24.7 6.28468C 24.7 6.28977 24.7 6.29486 24.7 6.29993C 24.7 6.30501 24.7 6.31007 24.7 6.31512C 24.7 6.32018 24.7 6.32522 24.7 6.33025C 24.7 6.33528 24.7 6.3403 24.7 6.3453C 24.7 6.35031 24.7 6.35531 24.7 6.3603C 24.7 6.36528 24.7 6.37026 24.7 6.37522C 24.7 6.38018 24.7 6.38514 24.7 6.39008C 24.7 6.39502 24.7 6.39995 24.7 6.40487C 24.7 6.40979 24.7 6.4147 24.7 6.4196C 24.7 6.4245 24.7 6.42938 24.7 6.43426C 24.7 6.43914 24.7 6.444 24.7 6.44885C 24.7 6.45371 24.7 6.45855 24.7 6.46338C 24.7 6.46822 24.7 6.47304 24.7 6.47785C 24.7 6.48266 24.7 6.48746 24.7 6.49225C 24.7 6.49704 24.7 6.50182 24.7 6.50658C 24.7 6.51135 24.7 6.51611 24.7 6.52085C 24.7 6.5256 24.7 6.53034 24.7 6.53506C 24.7 6.53978 24.7 6.5445 24.7 6.5492C 24.7 6.5539 24.7 6.5586 24.7 6.56328C 24.7 6.56796 24.7 6.57263 24.7 6.57729C 24.7 6.58195 24.7 6.5866 24.7 6.59124C 24.7 6.59588 24.7 6.6005 24.7 6.60512C 24.7 6.60974 24.7 6.61435 24.7 6.61894C 24.7 6.62354 24.7 6.62812 24.7 6.6327C 24.7 6.63727 24.7 6.64184 24.7 6.64639C 24.7 6.65095 24.7 6.65549 24.7 6.66002C 24.7 6.66455 24.7 6.66908 24.7 6.67359C 24.7 6.6781 24.7 6.6826 24.7 6.68709C 24.7 6.69158 24.7 6.69606 24.7 6.70053C 24.7 6.705 24.7 6.70946 24.7 6.71391C 24.7 6.71836 24.7 6.7228 24.7 6.72722C 24.7 6.73165 24.7 6.73607 24.7 6.74048C 24.7 6.74488 24.7 6.74928 24.7 6.75366C 24.7 6.75805 24.7 6.76243 24.7 6.76679C 24.7 6.77116 24.7 6.77551 24.7 6.77986C 24.7 6.7842 24.7 6.78854 24.7 6.79286C 24.7 6.79718 24.7 6.8015 24.7 6.8058C 24.7 6.81011 24.7 6.8144 24.7 6.81868C 24.7 6.82296 24.7 6.82724 24.7 6.8315C 24.7 6.83576 24.7 6.84001 24.7 6.84426C 24.7 6.8485 24.7 6.85273 24.7 6.85695C 24.7 6.86117 24.7 6.86538 24.7 6.86959C 24.7 6.87379 24.7 6.87798 24.7 6.88216C 24.7 6.88634 24.7 6.89051 24.7 6.89467C 24.7 6.89883 24.7 6.90298 24.7 6.90712C 24.7 6.91126 24.7 6.91539 24.7 6.91951C 24.7 6.92363 24.7 6.92774 24.7 6.93184C 24.7 6.93594 24.7 6.94003 24.7 6.94411C 24.7 6.94819 24.7 6.95226 24.7 6.95632C 24.7 6.96038 24.7 6.96443 24.7 6.96847C 24.7 6.97251 24.7 6.97654 24.7 6.98056C 24.7 6.98458 24.7 6.98859 24.7 6.99259C 24.7 6.99659 24.7 7.00058 24.7 7.00457C 24.7 7.00855 24.7 7.01252 24.7 7.01648C 24.7 7.02044 24.7 7.02439 24.7 7.02833C 24.7 7.03227 24.7 7.0362 24.7 7.04012C 24.7 7.04404 24.7 7.04795 24.7 7.05185C 24.7 7.05576 24.7 7.05965 24.7 7.06353C 24.7 7.06741 24.7 7.07128 24.7 7.07514C 24.7 7.07901 24.7 7.08286 24.7 7.0867C 24.7 7.09055 24.7 7.09438 24.7 7.0982C 24.7 7.10202 24.7 7.10584 24.7 7.10964C 24.7 7.11345 24.7 7.11724 24.7 7.12102C 24.7 7.12481 24.7 7.12858 24.7 7.13235C 24.7 7.13611 24.7 7.13987 24.7 7.14361C 24.7 7.14736 24.7 7.1511 24.7 7.15482C 24.7 7.15855 24.7 7.16227 24.7 7.16597C 24.7 7.16968 24.7 7.17338 24.7 7.17707C 24.7 7.18076 24.7 7.18443 24.7 7.1881C 24.7 7.19177 24.7 7.19543 24.7 7.19908C 24.7 7.20273 24.7 7.20637 24.7 7.21C 24.7 7.21363 24.7 7.21726 24.7 7.22087C 24.7 7.22448 24.7 7.22808 24.7 7.23168C 24.7 7.23527 24.7 7.23885 24.7 7.24243C 24.7 7.246 24.7 7.24957 24.7 7.25312C 24.7 7.25668 24.7 7.26022 24.7 7.26376C 24.7 7.2673 24.7 7.27082 24.7 7.27434C 24.7 7.27786 24.7 7.28137 24.7 7.28487C 24.7 7.28837 24.7 7.29186 24.7 7.29534C 24.7 7.29882 24.7 7.30229 24.7 7.30575C 24.7 7.30922 24.7 7.31267 24.7 7.31611C 24.7 7.31955 24.7 7.32299 24.7 7.32641C 24.7 7.32984 24.7 7.33326 24.7 7.33666C 24.7 7.34007 24.7 7.34347 24.7 7.34685C 24.7 7.35024 24.7 7.35362 24.7 7.35699C 24.7 7.36036 24.7 7.36372 24.7 7.36707C 24.7 7.37043 24.7 7.37377 24.7 7.3771C 24.7 7.38043 24.7 7.38376 24.7 7.38707C 24.7 7.39039 24.7 7.3937 24.7 7.39699C 24.7 7.40029 24.7 7.40358 24.7 7.40686C 24.7 7.41014 24.7 7.4134 24.7 7.41667C 24.7 7.41993 24.7 7.42318 24.7 7.42642C 24.7 7.42966 24.7 7.4329 24.7 7.43612C 24.7 7.43935 24.7 7.44256 24.7 7.44577C 24.7 7.44898 24.7 7.45218 24.7 7.45536C 24.7 7.45855 24.7 7.46173 24.7 7.4649C 24.7 7.46808 24.7 7.47124 24.7 7.47439C 24.7 7.47754 24.7 7.48069 24.7 7.48383C 24.7 7.48696 24.7 7.49009 24.7 7.49321C 24.7 7.49632 24.7 7.49943 24.7 7.50253C 24.7 7.50563 24.7 7.50872 24.7 7.51181C 24.7 7.51489 24.7 7.51796 24.7 7.52103C 24.7 7.52409 24.7 7.52715 24.7 7.5302C 24.7 7.53325 24.7 7.53629 24.7 7.53932C 24.7 7.54235 24.7 7.54537 24.7 7.54838C 24.7 7.55139 24.7 7.5544 24.7 7.55739C 24.7 7.56039 24.7 7.56337 24.7 7.56635C 24.7 7.56933 24.7 7.5723 24.7 7.57526C 24.7 7.57822 24.7 7.58117 24.7 7.58412C 24.7 7.58706 24.7 7.59 24.7 7.59292C 24.7 7.59585 24.7 7.59877 24.7 7.60168C 24.7 7.60459 24.7 7.60749 24.7 7.61038C 24.7 7.61327 24.7 7.61616 24.7 7.61903C 24.7 7.62191 24.7 7.62477 24.7 7.62763C 24.7 7.63049 24.7 7.63334 24.7 7.63618C 24.7 7.63902 24.7 7.64185 24.7 7.64468C 24.7 7.6475 24.7 7.65032 24.7 7.65313C 24.7 7.65593 24.7 7.65873 24.7 7.66152C 24.7 7.66431 24.7 7.6671 24.7 7.66987C 24.7 7.67265 24.7 7.67541 24.7 7.67817C 24.7 7.68093 24.7 7.68367 24.7 7.68642C 24.7 7.68916 24.7 7.69189 24.7 7.69461C 24.7 7.69734 24.7 7.70005 24.7 7.70276C 24.7 7.70547 24.7 7.70817 24.7 7.71086C 24.7 7.71355 24.7 7.71623 24.7 7.7189C 24.7 7.72158 24.7 7.72425 24.7 7.7269C 24.7 7.72956 24.7 7.73221 24.7 7.73485C 24.7 7.73749 24.7 7.74013 24.7 7.74275C 24.7 7.74538 24.7 7.748 24.7 7.75061C 24.7 7.75321 24.7 7.75582 24.7 7.75841C 24.7 7.761 24.7 7.76359 24.7 7.76616C 24.7 7.76874 24.7 7.77131 24.7 7.77387C 24.7 7.77643 24.7 7.77898 24.7 7.78153C 24.7 7.78407 24.7 7.78661 24.7 7.78913C 24.7 7.79166 24.7 7.79418 24.7 7.79669C 24.7 7.79921 24.7 7.80171 24.7 7.80421C 24.7 7.8067 24.7 7.80919 24.7 7.81167C 24.7 7.81415 24.7 7.81663 24.7 7.81909C 24.7 7.82156 24.7 7.82401 24.7 7.82646C 24.7 7.82891 24.7 7.83135 24.7 7.83378C 24.7 7.83622 24.7 7.83864 24.7 7.84106C 24.7 7.84348 24.7 7.84589 24.7 7.84829C 24.7 7.85069 24.7 7.85308 24.7 7.85547C 24.7 7.85785 24.7 7.86023 24.7 7.8626C 24.7 7.86497 24.7 7.86734 24.7 7.86969C 24.7 7.87205 24.7 7.87439 24.7 7.87673C 24.7 7.87907 24.7 7.8814 24.7 7.88373C 24.7 7.88605 24.7 7.88837 24.7 7.89068C 24.7 7.89298 24.7 7.89529 24.7 7.89758C 24.7 7.89987 24.7 7.90216 24.7 7.90444C 24.7 7.90671 24.7 7.90898 24.7 7.91125C 24.7 7.91351 24.7 7.91576 24.7 7.91801C 24.7 7.92026 24.7 7.9225 24.7 7.92473C 24.7 7.92696 24.7 7.92919 24.7 7.93141C 24.7 7.93362 24.7 7.93583 24.7 7.93803C 24.7 7.94024 24.7 7.94243 24.7 7.94462C 24.7 7.94681 24.7 7.94898 24.7 7.95116C 24.7 7.95333 24.7 7.95549 24.7 7.95765C 24.7 7.95981 24.7 7.96196 24.7 7.9641C 24.7 7.96624 24.7 7.96838 24.7 7.9705C 24.7 7.97263 24.7 7.97475 24.7 7.97686C 24.7 7.97898 24.7 7.98108 24.7 7.98318C 24.7 7.98528 24.7 7.98737 24.7 7.98945C 24.7 7.99154 24.7 7.99361 24.7 7.99568C 24.7 7.99775 24.7 7.99981 24.7 8.00186C 24.7 8.00392 24.7 8.00597 24.7 8.008C 24.7 8.01004 24.7 8.01208 24.7 8.0141C 24.7 8.01613 24.7 8.01814 24.7 8.02015C 24.7 8.02217 24.7 8.02417 24.7 8.02616C 24.7 8.02816 24.7 8.03015 24.7 8.03213C 24.7 8.03411 24.7 8.03609 24.7 8.03806C 24.7 8.04002 24.7 8.04198 24.7 8.04394C 24.7 8.04589 24.7 8.04784 24.7 8.04977C 24.7 8.05171 24.7 8.05365 24.7 8.05557C 24.7 8.05749 24.7 8.05941 24.7 8.06132C 24.7 8.06323 24.7 8.06514 24.7 8.06703C 24.7 8.06893 24.7 8.07082 24.7 8.0727C 24.7 8.07458 24.7 8.07646 24.7 8.07833C 24.7 8.0802 24.7 8.08206 24.7 8.08391C 24.7 8.08577 24.7 8.08762 24.7 8.08946C 24.7 8.0913 24.7 8.09313 24.7 8.09496C 24.7 8.09678 24.7 8.0986 24.7 8.10042C 24.7 8.10223 24.7 8.10404 24.7 8.10584C 24.7 8.10764 24.7 8.10943 24.7 8.11121C 24.7 8.113 24.7 8.11478 24.7 8.11655C 24.7 8.11832 24.7 8.12009 24.7 8.12185C 24.7 8.1236 24.7 8.12535 24.7 8.1271C 24.7 8.12884 24.7 8.13058 24.7 8.13231C 24.7 8.13404 24.7 8.13577 24.7 8.13749C 24.7 8.1392 24.7 8.14092 24.7 8.14262C 24.7 8.14433 24.7 8.14602 24.7 8.14771C 24.7 8.1494 24.7 8.15109 24.7 8.15277C 24.7 8.15444 24.7 8.15611 24.7 8.15778C 24.7 8.15944 24.7 8.1611 24.7 8.16275C 24.7 8.1644 24.7 8.16605 24.7 8.16769C 24.7 8.16932 24.7 8.17096 24.7 8.17258C 24.7 8.1742 24.7 8.17582 24.7 8.17743C 24.7 8.17905 24.7 8.18065 24.7 8.18225C 24.7 8.18385 24.7 8.18544 24.7 8.18703C 24.7 8.18861 24.7 8.19019 24.7 8.19176C 24.7 8.19334 24.7 8.1949 24.7 8.19646C 24.7 8.19802 24.7 8.19958 24.7 8.20112C 24.7 8.20267 24.7 8.20421 24.7 8.20574C 24.7 8.20728 24.7 8.20881 24.7 8.21033C 24.7 8.21185 24.7 8.21336 24.7 8.21487C 24.7 8.21638 24.7 8.21788 24.7 8.21938C 24.7 8.22088 24.7 8.22236 24.7 8.22385C 24.7 8.22533 24.7 8.22681 24.7 8.22828C 24.7 8.22975 24.7 8.23121 24.7 8.23267C 24.7 8.23413 24.7 8.23558 24.7 8.23703C 24.7 8.23847 24.7 8.23991 24.7 8.24135C 24.7 8.24278 24.7 8.24421 24.7 8.24563C 24.7 8.24705 24.7 8.24846 24.7 8.24987C 24.7 8.25128 24.7 8.25268 24.7 8.25408C 24.7 8.25548 24.7 8.25687 24.7 8.25825C 24.7 8.25963 24.7 8.26101 24.7 8.26238C 24.7 8.26375 24.7 8.26512 24.7 8.26648C 24.7 8.26784 24.7 8.26919 24.7 8.27054C 24.7 8.27189 24.7 8.27323 24.7 8.27457C 24.7 8.2759 24.7 8.27723 24.7 8.27855C 24.7 8.27988 24.7 8.28119 24.7 8.28251C 24.7 8.28382 24.7 8.28512 24.7 8.28642C 24.7 8.28772 24.7 8.28902 24.7 8.2903C 24.7 8.29159 24.7 8.29287 24.7 8.29415C 24.7 8.29542 24.7 8.29669 24.7 8.29796C 24.7 8.29922 24.7 8.30048 24.7 8.30173C 24.7 8.30299 24.7 8.30423 24.7 8.30547C 24.7 8.30671 24.7 8.30795 24.7 8.30918C 24.7 8.31041 24.7 8.31163 24.7 8.31285C 24.7 8.31406 24.7 8.31528 24.7 8.31648C 24.7 8.31769 24.7 8.31889 24.7 8.32008C 24.7 8.32127 24.7 8.32246 24.7 8.32365C 24.7 8.32483 24.7 8.32601 24.7 8.32718C 24.7 8.32835 24.7 8.32952 24.7 8.33068C 24.7 8.33184 24.7 8.33299 24.7 8.33414C 24.7 8.33529 24.7 8.33643 24.7 8.33757C 24.7 8.33871 24.7 8.33984 24.7 8.34096C 24.7 8.34209 24.7 8.34321 24.7 8.34433C 24.7 8.34544 24.7 8.34655 24.7 8.34765C 24.7 8.34876 24.7 8.34986 24.7 8.35095C 24.7 8.35204 24.7 8.35313 24.7 8.35421C 24.7 8.35529 24.7 8.35637 24.7 8.35744C 24.7 8.35851 24.7 8.35958 24.7 8.36064C 24.7 8.3617 24.7 8.36275 24.7 8.3638C 24.7 8.36485 24.7 8.36589 24.7 8.36693C 24.7 8.36797 24.7 8.369 24.7 8.37003C 24.7 8.37106 24.7 8.37208 24.7 8.3731C 24.7 8.37411 24.7 8.37512 24.7 8.37613C 24.7 8.37714 24.7 8.37814 24.7 8.37913C 24.7 8.38013 24.7 8.38112 24.7 8.3821C 24.7 8.38309 24.7 8.38407 24.7 8.38504C 24.7 8.38601 24.7 8.38698 24.7 8.38795C 24.7 8.38891 24.7 8.38987 24.7 8.39082C 24.7 8.39178 24.7 8.39272 24.7 8.39367C 24.7 8.39461 24.7 8.39555 24.7 8.39648C 24.7 8.39741 24.7 8.39834 24.7 8.39926C 24.7 8.40018 24.7 8.4011 24.7 8.40201C 24.7 8.40292 24.7 8.40383 24.7 8.40473C 24.7 8.40563 24.7 8.40653 24.7 8.40742C 24.7 8.40831 24.7 8.4092 24.7 8.41008C 24.7 8.41096 24.7 8.41183 24.7 8.41271C 24.7 8.41358 24.7 8.41444 24.7 8.4153C 24.7 8.41617 24.7 8.41702 24.7 8.41787C 24.7 8.41872 24.7 8.41957 24.7 8.42041C 24.7 8.42125 24.7 8.42209 24.7 8.42292C 24.7 8.42375 24.7 8.42458 24.7 8.4254C 24.7 8.42622 24.7 8.42704 24.7 8.42785C 24.7 8.42866 24.7 8.42946 24.7 8.43027C 24.7 8.43107 24.7 8.43186 24.7 8.43266C 24.7 8.43345 24.7 8.43424 24.7 8.43502C 24.7 8.4358 24.7 8.43658 24.7 8.43735C 24.7 8.43812 24.7 8.43889 24.7 8.43965C 24.7 8.44042 24.7 8.44118 24.7 8.44193C 24.7 8.44268 24.7 8.44343 24.7 8.44418C 24.7 8.44492 24.7 8.44566 24.7 8.44639C 24.7 8.44713 24.7 8.44786 24.7 8.44858C 24.7 8.44931 24.7 8.45003 24.7 8.45075C 24.7 8.45146 24.7 8.45217 24.7 8.45288C 24.7 8.45359 24.7 8.45429 24.7 8.45498C 24.7 8.45568 24.7 8.45638 24.7 8.45706C 24.7 8.45775 24.7 8.45844 24.7 8.45911C 24.7 8.45979 24.7 8.46047 24.7 8.46114C 24.7 8.46181 24.7 8.46247 24.7 8.46313C 24.7 8.46379 24.7 8.46445 24.7 8.4651C 24.7 8.46575 24.7 8.4664 24.7 8.46704C 24.7 8.46769 24.7 8.46833 24.7 8.46896C 24.7 8.46959 24.7 8.47022 24.7 8.47085C 24.7 8.47147 24.7 8.47209 24.7 8.47271C 24.7 8.47333 24.7 8.47394 24.7 8.47454C 24.7 8.47515 24.7 8.47576 24.7 8.47635C 24.7 8.47695 24.7 8.47755 24.7 8.47814C 24.7 8.47873 24.7 8.47931 24.7 8.47989C 24.7 8.48048 24.7 8.48105 24.7 8.48163C 24.7 8.4822 24.7 8.48277 24.7 8.48333C 24.7 8.4839 24.7 8.48446 24.7 8.48501C 24.7 8.48557 24.7 8.48612 24.7 8.48666C 24.7 8.48721 24.7 8.48776 24.7 8.48829C 24.7 8.48883 24.7 8.48937 24.7 8.4899C 24.7 8.49043 24.7 8.49096 24.7 8.49148C 24.7 8.492 24.7 8.49252 24.7 8.49303C 24.7 8.49355 24.7 8.49405 24.7 8.49456C 24.7 8.49507 24.7 8.49557 24.7 8.49607C 24.7 8.49656 24.7 8.49706 24.7 8.49755C 24.7 8.49804 24.7 8.49852 24.7 8.499C 24.7 8.49948 24.7 8.49996 24.7 8.50043C 24.7 8.50091 24.7 8.50138 24.7 8.50184C 24.7 8.50231 24.7 8.50277 24.7 8.50323C 24.7 8.50368 24.7 8.50414 24.7 8.50459C 24.7 8.50504 24.7 8.50548 24.7 8.50592C 24.7 8.50636 24.7 8.5068 24.7 8.50724C 24.7 8.50767 24.7 8.5081 24.7 8.50852C 24.7 8.50895 24.7 8.50937 24.7 8.50979C 24.7 8.51021 24.7 8.51062 24.7 8.51103C 24.7 8.51145 24.7 8.51185 24.7 8.51226C 24.7 8.51266 24.7 8.51306 24.7 8.51345C 24.7 8.51385 24.7 8.51424 24.7 8.51463C 24.7 8.51502 24.7 8.5154 24.7 8.51578C 24.7 8.51616 24.7 8.51654 24.7 8.51691C 24.7 8.51729 24.7 8.51766 24.7 8.51802C 24.7 8.51839 24.7 8.51875 24.7 8.51911C 24.7 8.51947 24.7 8.51982 24.7 8.52017C 24.7 8.52052 24.7 8.52087 24.7 8.52121C 24.7 8.52156 24.7 8.5219 24.7 8.52223C 24.7 8.52257 24.7 8.5229 24.7 8.52323C 24.7 8.52356 24.7 8.52389 24.7 8.52421C 24.7 8.52454 24.7 8.52485 24.7 8.52517C 24.7 8.52548 24.7 8.5258 24.7 8.5261C 24.7 8.52641 24.7 8.52672 24.7 8.52702C 24.7 8.52732 24.7 8.52762 24.7 8.52791C 24.7 8.52821 24.7 8.5285 24.7 8.52879C 24.7 8.52907 24.7 8.52936 24.7 8.52964C 24.7 8.52992 24.7 8.5302 24.7 8.53047C 24.7 8.53075 24.7 8.53102 24.7 8.53128C 24.7 8.53155 24.7 8.53182 24.7 8.53208C 24.7 8.53234 24.7 8.53259 24.7 8.53285C 24.7 8.5331 24.7 8.53335 24.7 8.5336C 24.7 8.53385 24.7 8.53409 24.7 8.53433C 24.7 8.53458 24.7 8.53481 24.7 8.53505C 24.7 8.53528 24.7 8.53551 24.7 8.53574C 24.7 8.53597 24.7 8.53619 24.7 8.53642C 24.7 8.53664 24.7 8.53686 24.7 8.53707C 24.7 8.53729 24.7 8.5375 24.7 8.53771C 24.7 8.53792 24.7 8.53812 24.7 8.53833C 24.7 8.53853 24.7 8.53873 24.7 8.53893C 24.7 8.53912 24.7 8.53932 24.7 8.53951C 24.7 8.5397 24.7 8.53988 24.7 8.54007C 24.7 8.54025 24.7 8.54043 24.7 8.54061C 24.7 8.54079 24.7 8.54097 24.7 8.54114C 24.7 8.54131 24.7 8.54148 24.7 8.54165C 24.7 8.54181 24.7 8.54197 24.7 8.54213C 24.7 8.5423 24.7 8.54245 24.7 8.54261C 24.7 8.54276 24.7 8.54291 24.7 8.54306C 24.7 8.54321 24.7 8.54336 24.7 8.5435C 24.7 8.54364 24.7 8.54378 24.7 8.54392C 24.7 8.54406 24.7 8.54419 24.7 8.54432C 24.7 8.54445 24.7 8.54458 24.7 8.54471C 24.7 8.54483 24.7 8.54496 24.7 8.54508C 24.7 8.5452 24.7 8.54531 24.7 8.54543C 24.7 8.54554 24.7 8.54566 24.7 8.54576C 24.7 8.54587 24.7 8.54598 24.7 8.54608C 24.7 8.54619 24.7 8.54629 24.7 8.54639C 24.7 8.54648 24.7 8.54658 24.7 8.54667C 24.7 8.54677 24.7 8.54686 24.7 8.54694C 24.7 8.54703 24.7 8.54712 24.7 8.5472C 24.7 8.54728 24.7 8.54736 24.7 8.54744C 24.7 8.54752 24.7 8.54759 24.7 8.54766C 24.7 8.54773 24.7 8.5478 24.7 8.54787C 24.7 8.54794 24.7 8.548 24.7 8.54806C 24.7 8.54812 24.7 8.54818 24.7 8.54824C 24.7 8.5483 24.7 8.54835 24.7 8.5484C 24.7 8.54846 24.7 8.5485 24.7 8.54855C 24.7 8.5486 24.7 8.54864 24.7 8.54868C 24.7 8.54873 24.7 8.54877 24.7 8.5488C 24.7 8.54884 24.7 8.54887 24.7 8.54891C 24.7 8.54894 24.7 8.54897 24.7 8.549C 24.7 8.54902 24.7 8.54905 24.7 8.54907C 24.7 8.54909 24.7 8.54912 24.7 8.54913C 24.7 8.54915 24.7 8.54917 24.7 8.54918C 24.7 8.54919 24.7 8.54921 24.7 8.54921C 24.7 8.54922 24.7 8.54923 24.7 8.54923C 24.7 8.54924 24.7 8.54924 25.2 8.54924ZM 25.7 3.65463C 25.7 2.39456 25.1123 1.4884 24.265 0.867695C 23.4392 0.262784 22.37 -0.0722985 21.3534 -0.260347C 20.3292 -0.449823 19.3123 -0.498079 18.5567 -0.499942C 18.1776 -0.500877 17.8612 -0.49013 17.6386 -0.47907C 17.5272 -0.473538 17.4391 -0.467918 17.3783 -0.463623C 17.3478 -0.461476 17.3241 -0.459658 17.3077 -0.458346C 17.2995 -0.45769 17.2931 -0.457161 17.2886 -0.45678C 17.2864 -0.456589 17.2846 -0.456436 17.2833 -0.456322C 17.2826 -0.456265 17.2821 -0.456219 17.2817 -0.456182C 17.2815 -0.456164 17.2812 -0.456144 17.2811 -0.456135C 17.2809 -0.456118 17.2808 -0.456103 17.325 0.0419371C 17.3692 0.539978 17.3691 0.539987 17.369 0.539993C 17.3691 0.539992 17.369 0.539996 17.3691 0.539993C 17.3691 0.539988 17.3693 0.539972 17.3696 0.539946C 17.3702 0.539894 17.3713 0.539803 17.3728 0.539674C 17.3758 0.539415 17.3807 0.539008 17.3874 0.538472C 17.4008 0.537401 17.4214 0.535819 17.4486 0.533898C 17.5031 0.530056 17.5842 0.524863 17.6882 0.519698C 17.8962 0.509362 18.1951 0.499169 18.5542 0.500055C 19.2752 0.501833 20.2271 0.548265 21.1716 0.722971C 22.1237 0.899105 23.0233 1.1977 23.6741 1.67441C 24.3033 2.13533 24.7 2.75873 24.7 3.65463L 25.7 3.65463ZM 16.8257 0.0163743C 16.7614 1.27164 16.2307 2.16265 15.4797 2.74392C 14.7174 3.33405 13.698 3.62638 12.6453 3.6063C 10.5185 3.56573 8.4794 2.28171 8.22886 -0.0123456L 7.23477 0.0962199C 7.55697 3.0464 10.1712 4.55929 12.6263 4.60612C 13.8645 4.62974 15.1182 4.28839 16.0919 3.53469C 17.077 2.77213 17.7454 1.60915 17.8243 0.0675L 16.8257 0.0163743ZM 7.73182 0.0419371C 7.76191 -0.457157 7.76175 -0.457166 7.76156 -0.457177C 7.76146 -0.457183 7.76125 -0.457196 7.76104 -0.457208C 7.76063 -0.457233 7.76011 -0.457263 7.75947 -0.457301C 7.75818 -0.457375 7.75643 -0.457476 7.75422 -0.4576C 7.7498 -0.457848 7.74354 -0.45819 7.7355 -0.458607C 7.71941 -0.45944 7.69619 -0.460571 7.66632 -0.461847C 7.60658 -0.464398 7.52018 -0.467528 7.41089 -0.469999C 7.19244 -0.474938 6.88195 -0.477258 6.50991 -0.466977C 5.7683 -0.446485 4.77078 -0.375655 3.76621 -0.171246C 2.76923 0.0316191 1.72186 0.374459 0.913022 0.965733C 0.0848618 1.57113 -0.5 2.44623 -0.5 3.65463L 0.5 3.65463C 0.5 2.8236 0.881615 2.2274 1.50317 1.77303C 2.14405 1.30453 3.02963 0.999125 3.96561 0.808674C 4.89399 0.619766 5.82943 0.552208 6.53753 0.532641C 6.89036 0.522892 7.18391 0.525125 7.38829 0.529746C 7.49042 0.532055 7.57013 0.534957 7.62365 0.537242C 7.65041 0.538385 7.67061 0.539373 7.68378 0.540055C 7.69037 0.540396 7.6952 0.540661 7.69821 0.54083C 7.69971 0.540914 7.70076 0.540975 7.70135 0.541009C 7.70165 0.541026 7.70183 0.541037 7.70189 0.541041C 7.70192 0.541042 7.70188 0.54104 7.7019 0.541041C 7.70183 0.541037 7.70173 0.541031 7.73182 0.0419371ZM -0.5 3.65463C -0.5 3.66259 -0.5 3.67055 -0.5 3.67849C -0.5 3.68643 -0.5 3.69436 -0.5 3.70228C -0.5 3.71019 -0.5 3.7181 -0.5 3.72599C -0.5 3.73388 -0.5 3.74176 -0.5 3.74963C -0.5 3.7575 -0.5 3.76535 -0.5 3.77319C -0.5 3.78104 -0.5 3.78887 -0.5 3.79668C -0.5 3.8045 -0.5 3.81231 -0.5 3.8201C -0.5 3.82789 -0.5 3.83567 -0.5 3.84344C -0.5 3.85121 -0.5 3.85897 -0.5 3.86671C -0.5 3.87446 -0.5 3.88219 -0.5 3.88991C -0.5 3.89763 -0.5 3.90533 -0.5 3.91303C -0.5 3.92072 -0.5 3.92841 -0.5 3.93608C -0.5 3.94375 -0.5 3.9514 -0.5 3.95905C -0.5 3.9667 -0.5 3.97433 -0.5 3.98195C -0.5 3.98957 -0.5 3.99718 -0.5 4.00478C -0.5 4.01238 -0.5 4.01996 -0.5 4.02753C -0.5 4.03511 -0.5 4.04267 -0.5 4.05022C -0.5 4.05777 -0.5 4.0653 -0.5 4.07283C -0.5 4.08035 -0.5 4.08786 -0.5 4.09536C -0.5 4.10286 -0.5 4.11035 -0.5 4.11783C -0.5 4.1253 -0.5 4.13277 -0.5 4.14022C -0.5 4.14767 -0.5 4.15511 -0.5 4.16254C -0.5 4.16996 -0.5 4.17738 -0.5 4.18478C -0.5 4.19219 -0.5 4.19958 -0.5 4.20696C -0.5 4.21434 -0.5 4.22171 -0.5 4.22906C -0.5 4.23642 -0.5 4.24376 -0.5 4.25109C -0.5 4.25842 -0.5 4.26574 -0.5 4.27305C -0.5 4.28036 -0.5 4.28765 -0.5 4.29494C -0.5 4.30222 -0.5 4.30949 -0.5 4.31675C -0.5 4.32401 -0.5 4.33126 -0.5 4.3385C -0.5 4.34573 -0.5 4.35296 -0.5 4.36017C -0.5 4.36738 -0.5 4.37458 -0.5 4.38177C -0.5 4.38896 -0.5 4.39614 -0.5 4.4033C -0.5 4.41046 -0.5 4.41762 -0.5 4.42476C -0.5 4.4319 -0.5 4.43903 -0.5 4.44615C -0.5 4.45326 -0.5 4.46037 -0.5 4.46746C -0.5 4.47456 -0.5 4.48164 -0.5 4.48871C -0.5 4.49578 -0.5 4.50284 -0.5 4.50989C -0.5 4.51693 -0.5 4.52397 -0.5 4.53099C -0.5 4.53801 -0.5 4.54503 -0.5 4.55203C -0.5 4.55903 -0.5 4.56601 -0.5 4.57299C -0.5 4.57997 -0.5 4.58693 -0.5 4.59388C -0.5 4.60084 -0.5 4.60778 -0.5 4.61471C -0.5 4.62164 -0.5 4.62856 -0.5 4.63546C -0.5 4.64237 -0.5 4.64926 -0.5 4.65615C -0.5 4.66303 -0.5 4.6699 -0.5 4.67676C -0.5 4.68362 -0.5 4.69047 -0.5 4.69731C -0.5 4.70414 -0.5 4.71097 -0.5 4.71778C -0.5 4.7246 -0.5 4.7314 -0.5 4.73819C -0.5 4.74498 -0.5 4.75176 -0.5 4.75852C -0.5 4.76529 -0.5 4.77205 -0.5 4.77879C -0.5 4.78554 -0.5 4.79227 -0.5 4.79899C -0.5 4.80571 -0.5 4.81242 -0.5 4.81912C -0.5 4.82582 -0.5 4.8325 -0.5 4.83918C -0.5 4.84586 -0.5 4.85252 -0.5 4.85917C -0.5 4.86582 -0.5 4.87246 -0.5 4.87909C -0.5 4.88572 -0.5 4.89234 -0.5 4.89895C -0.5 4.90556 -0.5 4.91215 -0.5 4.91873C -0.5 4.92532 -0.5 4.93189 -0.5 4.93845C -0.5 4.94501 -0.5 4.95156 -0.5 4.9581C -0.5 4.96464 -0.5 4.97117 -0.5 4.97768C -0.5 4.9842 -0.5 4.9907 -0.5 4.9972C -0.5 5.00369 -0.5 5.01017 -0.5 5.01664C -0.5 5.02311 -0.5 5.02957 -0.5 5.03602C -0.5 5.04247 -0.5 5.0489 -0.5 5.05533C -0.5 5.06175 -0.5 5.06817 -0.5 5.07457C -0.5 5.08097 -0.5 5.08737 -0.5 5.09375C -0.5 5.10013 -0.5 5.1065 -0.5 5.11285C -0.5 5.11921 -0.5 5.12556 -0.5 5.13189C -0.5 5.13823 -0.5 5.14455 -0.5 5.15087C -0.5 5.15718 -0.5 5.16348 -0.5 5.16977C -0.5 5.17606 -0.5 5.18234 -0.5 5.18861C -0.5 5.19488 -0.5 5.20114 -0.5 5.20738C -0.5 5.21363 -0.5 5.21987 -0.5 5.22609C -0.5 5.23231 -0.5 5.23853 -0.5 5.24473C -0.5 5.25093 -0.5 5.25712 -0.5 5.2633C -0.5 5.26948 -0.5 5.27565 -0.5 5.28181C -0.5 5.28796 -0.5 5.29411 -0.5 5.30025C -0.5 5.30638 -0.5 5.31251 -0.5 5.31862C -0.5 5.32473 -0.5 5.33084 -0.5 5.33693C -0.5 5.34302 -0.5 5.3491 -0.5 5.35517C -0.5 5.36124 -0.5 5.3673 -0.5 5.37335C -0.5 5.37939 -0.5 5.38543 -0.5 5.39146C -0.5 5.39748 -0.5 5.4035 -0.5 5.4095C -0.5 5.4155 -0.5 5.4215 -0.5 5.42748C -0.5 5.43346 -0.5 5.43943 -0.5 5.44539C -0.5 5.45135 -0.5 5.4573 -0.5 5.46324C -0.5 5.46918 -0.5 5.47511 -0.5 5.48103C -0.5 5.48694 -0.5 5.49285 -0.5 5.49874C -0.5 5.50464 -0.5 5.51052 -0.5 5.5164C -0.5 5.52227 -0.5 5.52813 -0.5 5.53399C -0.5 5.53984 -0.5 5.54568 -0.5 5.55151C -0.5 5.55734 -0.5 5.56316 -0.5 5.56897C -0.5 5.57478 -0.5 5.58058 -0.5 5.58636C -0.5 5.59215 -0.5 5.59793 -0.5 5.60369C -0.5 5.60946 -0.5 5.61521 -0.5 5.62096C -0.5 5.6267 -0.5 5.63244 -0.5 5.63816C -0.5 5.64388 -0.5 5.6496 -0.5 5.6553C -0.5 5.661 -0.5 5.66669 -0.5 5.67237C -0.5 5.67805 -0.5 5.68372 -0.5 5.68938C -0.5 5.69504 -0.5 5.70069 -0.5 5.70633C -0.5 5.71197 -0.5 5.71759 -0.5 5.72321C -0.5 5.72883 -0.5 5.73443 -0.5 5.74003C -0.5 5.74563 -0.5 5.75121 -0.5 5.75678C -0.5 5.76236 -0.5 5.76792 -0.5 5.77348C -0.5 5.77903 -0.5 5.78457 -0.5 5.79011C -0.5 5.79564 -0.5 5.80116 -0.5 5.80667C -0.5 5.81218 -0.5 5.81768 -0.5 5.82317C -0.5 5.82867 -0.5 5.83415 -0.5 5.83961C -0.5 5.84508 -0.5 5.85054 -0.5 5.85599C -0.5 5.86144 -0.5 5.86688 -0.5 5.87231C -0.5 5.87773 -0.5 5.88315 -0.5 5.88856C -0.5 5.89397 -0.5 5.89936 -0.5 5.90475C -0.5 5.91013 -0.5 5.91551 -0.5 5.92088C -0.5 5.92624 -0.5 5.9316 -0.5 5.93694C -0.5 5.94229 -0.5 5.94762 -0.5 5.95294C -0.5 5.95827 -0.5 5.96358 -0.5 5.96888C -0.5 5.97419 -0.5 5.97948 -0.5 5.98476C -0.5 5.99005 -0.5 5.99532 -0.5 6.00058C -0.5 6.00584 -0.5 6.0111 -0.5 6.01634C -0.5 6.02158 -0.5 6.02681 -0.5 6.03203C -0.5 6.03725 -0.5 6.04246 -0.5 6.04766C -0.5 6.05286 -0.5 6.05805 -0.5 6.06324C -0.5 6.06842 -0.5 6.07359 -0.5 6.07875C -0.5 6.08391 -0.5 6.08905 -0.5 6.09419C -0.5 6.09933 -0.5 6.10446 -0.5 6.10958C -0.5 6.1147 -0.5 6.11981 -0.5 6.12491C -0.5 6.13001 -0.5 6.1351 -0.5 6.14018C -0.5 6.14525 -0.5 6.15032 -0.5 6.15538C -0.5 6.16044 -0.5 6.16549 -0.5 6.17053C -0.5 6.17556 -0.5 6.18059 -0.5 6.18561C -0.5 6.19063 -0.5 6.19564 -0.5 6.20063C -0.5 6.20563 -0.5 6.21062 -0.5 6.2156C -0.5 6.22058 -0.5 6.22554 -0.5 6.2305C -0.5 6.23546 -0.5 6.24041 -0.5 6.24535C -0.5 6.25028 -0.5 6.25521 -0.5 6.26013C -0.5 6.26505 -0.5 6.26996 -0.5 6.27485C -0.5 6.27975 -0.5 6.28464 -0.5 6.28952C -0.5 6.2944 -0.5 6.29927 -0.5 6.30412C -0.5 6.30898 -0.5 6.31383 -0.5 6.31867C -0.5 6.32351 -0.5 6.32834 -0.5 6.33316C -0.5 6.33797 -0.5 6.34278 -0.5 6.34758C -0.5 6.35238 -0.5 6.35717 -0.5 6.36195C -0.5 6.36673 -0.5 6.3715 -0.5 6.37626C -0.5 6.38102 -0.5 6.38577 -0.5 6.39051C -0.5 6.39525 -0.5 6.39998 -0.5 6.4047C -0.5 6.40942 -0.5 6.41413 -0.5 6.41883C -0.5 6.42353 -0.5 6.42822 -0.5 6.4329C -0.5 6.43758 -0.5 6.44226 -0.5 6.44692C -0.5 6.45158 -0.5 6.45623 -0.5 6.46088C -0.5 6.46552 -0.5 6.47015 -0.5 6.47477C -0.5 6.4794 -0.5 6.48401 -0.5 6.48861C -0.5 6.49322 -0.5 6.49781 -0.5 6.5024C -0.5 6.50698 -0.5 6.51155 -0.5 6.51612C -0.5 6.52068 -0.5 6.52524 -0.5 6.52979C -0.5 6.53433 -0.5 6.53887 -0.5 6.54339C -0.5 6.54792 -0.5 6.55244 -0.5 6.55695C -0.5 6.56145 -0.5 6.56595 -0.5 6.57044C -0.5 6.57493 -0.5 6.57941 -0.5 6.58387C -0.5 6.58834 -0.5 6.5928 -0.5 6.59725C -0.5 6.6017 -0.5 6.60614 -0.5 6.61057C -0.5 6.61501 -0.5 6.61943 -0.5 6.62384C -0.5 6.62825 -0.5 6.63265 -0.5 6.63705C -0.5 6.64144 -0.5 6.64582 -0.5 6.6502C -0.5 6.65457 -0.5 6.65894 -0.5 6.66329C -0.5 6.66765 -0.5 6.67199 -0.5 6.67633C -0.5 6.68067 -0.5 6.68499 -0.5 6.68931C -0.5 6.69363 -0.5 6.69794 -0.5 6.70223C -0.5 6.70653 -0.5 6.71082 -0.5 6.7151C -0.5 6.71938 -0.5 6.72365 -0.5 6.72791C -0.5 6.73217 -0.5 6.73643 -0.5 6.74067C -0.5 6.74491 -0.5 6.74915 -0.5 6.75337C -0.5 6.75759 -0.5 6.76181 -0.5 6.76601C -0.5 6.77022 -0.5 6.77441 -0.5 6.7786C -0.5 6.78279 -0.5 6.78697 -0.5 6.79113C -0.5 6.7953 -0.5 6.79946 -0.5 6.80361C -0.5 6.80776 -0.5 6.8119 -0.5 6.81603C -0.5 6.82016 -0.5 6.82429 -0.5 6.8284C -0.5 6.83251 -0.5 6.83661 -0.5 6.84071C -0.5 6.8448 -0.5 6.84889 -0.5 6.85296C -0.5 6.85704 -0.5 6.86111 -0.5 6.86517C -0.5 6.86922 -0.5 6.87327 -0.5 6.87731C -0.5 6.88135 -0.5 6.88538 -0.5 6.8894C -0.5 6.89342 -0.5 6.89744 -0.5 6.90144C -0.5 6.90544 -0.5 6.90944 -0.5 6.91342C -0.5 6.91741 -0.5 6.92138 -0.5 6.92535C -0.5 6.92932 -0.5 6.93327 -0.5 6.93722C -0.5 6.94117 -0.5 6.94511 -0.5 6.94904C -0.5 6.95297 -0.5 6.95689 -0.5 6.96081C -0.5 6.96472 -0.5 6.96862 -0.5 6.97252C -0.5 6.97641 -0.5 6.9803 -0.5 6.98417C -0.5 6.98805 -0.5 6.99192 -0.5 6.99578C -0.5 6.99964 -0.5 7.00349 -0.5 7.00733C -0.5 7.01117 -0.5 7.015 -0.5 7.01882C -0.5 7.02265 -0.5 7.02646 -0.5 7.03026C -0.5 7.03407 -0.5 7.03787 -0.5 7.04165C -0.5 7.04544 -0.5 7.04922 -0.5 7.05299C -0.5 7.05676 -0.5 7.06052 -0.5 7.06427C -0.5 7.06802 -0.5 7.07177 -0.5 7.0755C -0.5 7.07924 -0.5 7.08296 -0.5 7.08668C -0.5 7.0904 -0.5 7.0941 -0.5 7.0978C -0.5 7.1015 -0.5 7.10519 -0.5 7.10887C -0.5 7.11256 -0.5 7.11623 -0.5 7.11989C -0.5 7.12356 -0.5 7.12721 -0.5 7.13086C -0.5 7.13451 -0.5 7.13814 -0.5 7.14177C -0.5 7.1454 -0.5 7.14902 -0.5 7.15263C -0.5 7.15625 -0.5 7.15985 -0.5 7.16344C -0.5 7.16704 -0.5 7.17062 -0.5 7.1742C -0.5 7.17778 -0.5 7.18135 -0.5 7.18491C -0.5 7.18847 -0.5 7.19202 -0.5 7.19556C -0.5 7.1991 -0.5 7.20264 -0.5 7.20616C -0.5 7.20969 -0.5 7.2132 -0.5 7.21671C -0.5 7.22022 -0.5 7.22372 -0.5 7.22721C -0.5 7.2307 -0.5 7.23419 -0.5 7.23766C -0.5 7.24113 -0.5 7.2446 -0.5 7.24806C -0.5 7.25151 -0.5 7.25496 -0.5 7.2584C -0.5 7.26184 -0.5 7.26527 -0.5 7.26869C -0.5 7.27212 -0.5 7.27553 -0.5 7.27894C -0.5 7.28234 -0.5 7.28574 -0.5 7.28913C -0.5 7.29252 -0.5 7.2959 -0.5 7.29927C -0.5 7.30264 -0.5 7.30601 -0.5 7.30936C -0.5 7.31272 -0.5 7.31606 -0.5 7.3194C -0.5 7.32274 -0.5 7.32607 -0.5 7.32939C -0.5 7.33271 -0.5 7.33603 -0.5 7.33933C -0.5 7.34264 -0.5 7.34593 -0.5 7.34922C -0.5 7.35251 -0.5 7.35579 -0.5 7.35906C -0.5 7.36233 -0.5 7.3656 -0.5 7.36885C -0.5 7.37211 -0.5 7.37535 -0.5 7.37859C -0.5 7.38183 -0.5 7.38506 -0.5 7.38828C -0.5 7.3915 -0.5 7.39471 -0.5 7.39792C -0.5 7.40112 -0.5 7.40432 -0.5 7.40751C -0.5 7.4107 -0.5 7.41388 -0.5 7.41705C -0.5 7.42022 -0.5 7.42339 -0.5 7.42654C -0.5 7.4297 -0.5 7.43285 -0.5 7.43599C -0.5 7.43913 -0.5 7.44226 -0.5 7.44538C -0.5 7.4485 -0.5 7.45162 -0.5 7.45473C -0.5 7.45783 -0.5 7.46093 -0.5 7.46402C -0.5 7.46711 -0.5 7.47019 -0.5 7.47327C -0.5 7.47634 -0.5 7.47941 -0.5 7.48247C -0.5 7.48552 -0.5 7.48857 -0.5 7.49162C -0.5 7.49466 -0.5 7.49769 -0.5 7.50072C -0.5 7.50374 -0.5 7.50676 -0.5 7.50977C -0.5 7.51278 -0.5 7.51578 -0.5 7.51878C -0.5 7.52177 -0.5 7.52476 -0.5 7.52773C -0.5 7.53071 -0.5 7.53368 -0.5 7.53664C -0.5 7.5396 -0.5 7.54256 -0.5 7.5455C -0.5 7.54845 -0.5 7.55139 -0.5 7.55432C -0.5 7.55725 -0.5 7.56017 -0.5 7.56308C -0.5 7.566 -0.5 7.5689 -0.5 7.5718C -0.5 7.5747 -0.5 7.57759 -0.5 7.58047C -0.5 7.58335 -0.5 7.58623 -0.5 7.58909C -0.5 7.59196 -0.5 7.59482 -0.5 7.59767C -0.5 7.60052 -0.5 7.60336 -0.5 7.6062C -0.5 7.60903 -0.5 7.61186 -0.5 7.61468C -0.5 7.6175 -0.5 7.62031 -0.5 7.62312C -0.5 7.62592 -0.5 7.62871 -0.5 7.6315C -0.5 7.63429 -0.5 7.63707 -0.5 7.63984C -0.5 7.64262 -0.5 7.64538 -0.5 7.64814C -0.5 7.6509 -0.5 7.65365 -0.5 7.65639C -0.5 7.65913 -0.5 7.66186 -0.5 7.66459C -0.5 7.66732 -0.5 7.67003 -0.5 7.67275C -0.5 7.67546 -0.5 7.67816 -0.5 7.68086C -0.5 7.68355 -0.5 7.68624 -0.5 7.68892C -0.5 7.6916 -0.5 7.69427 -0.5 7.69694C -0.5 7.6996 -0.5 7.70226 -0.5 7.70491C -0.5 7.70756 -0.5 7.7102 -0.5 7.71284C -0.5 7.71547 -0.5 7.7181 -0.5 7.72072C -0.5 7.72334 -0.5 7.72595 -0.5 7.72855C -0.5 7.73116 -0.5 7.73375 -0.5 7.73634C -0.5 7.73893 -0.5 7.74151 -0.5 7.74409C -0.5 7.74666 -0.5 7.74923 -0.5 7.75179C -0.5 7.75434 -0.5 7.7569 -0.5 7.75944C -0.5 7.76198 -0.5 7.76452 -0.5 7.76705C -0.5 7.76958 -0.5 7.7721 -0.5 7.77461C -0.5 7.77713 -0.5 7.77963 -0.5 7.78213C -0.5 7.78463 -0.5 7.78713 -0.5 7.78961C -0.5 7.79209 -0.5 7.79457 -0.5 7.79704C -0.5 7.79951 -0.5 7.80197 -0.5 7.80443C -0.5 7.80688 -0.5 7.80933 -0.5 7.81177C -0.5 7.81421 -0.5 7.81664 -0.5 7.81907C -0.5 7.82149 -0.5 7.82391 -0.5 7.82632C -0.5 7.82873 -0.5 7.83114 -0.5 7.83353C -0.5 7.83593 -0.5 7.83832 -0.5 7.8407C -0.5 7.84308 -0.5 7.84545 -0.5 7.84782C -0.5 7.85019 -0.5 7.85255 -0.5 7.8549C -0.5 7.85725 -0.5 7.8596 -0.5 7.86193C -0.5 7.86427 -0.5 7.8666 -0.5 7.86893C -0.5 7.87125 -0.5 7.87357 -0.5 7.87587C -0.5 7.87818 -0.5 7.88049 -0.5 7.88278C -0.5 7.88508 -0.5 7.88736 -0.5 7.88964C -0.5 7.89192 -0.5 7.8942 -0.5 7.89646C -0.5 7.89873 -0.5 7.90099 -0.5 7.90324C -0.5 7.90549 -0.5 7.90774 -0.5 7.90997C -0.5 7.91221 -0.5 7.91444 -0.5 7.91666C -0.5 7.91889 -0.5 7.9211 -0.5 7.92331C -0.5 7.92552 -0.5 7.92772 -0.5 7.92992C -0.5 7.93211 -0.5 7.9343 -0.5 7.93648C -0.5 7.93866 -0.5 7.94084 -0.5 7.94301C -0.5 7.94517 -0.5 7.94733 -0.5 7.94949C -0.5 7.95164 -0.5 7.95378 -0.5 7.95592C -0.5 7.95806 -0.5 7.96019 -0.5 7.96232C -0.5 7.96444 -0.5 7.96656 -0.5 7.96867C -0.5 7.97078 -0.5 7.97289 -0.5 7.97499C -0.5 7.97708 -0.5 7.97917 -0.5 7.98126C -0.5 7.98334 -0.5 7.98542 -0.5 7.98749C -0.5 7.98956 -0.5 7.99162 -0.5 7.99367C -0.5 7.99573 -0.5 7.99778 -0.5 7.99982C -0.5 8.00186 -0.5 8.0039 -0.5 8.00593C -0.5 8.00796 -0.5 8.00998 -0.5 8.01199C -0.5 8.01401 -0.5 8.01602 -0.5 8.01802C -0.5 8.02002 -0.5 8.02201 -0.5 8.024C -0.5 8.02599 -0.5 8.02797 -0.5 8.02994C -0.5 8.03192 -0.5 8.03388 -0.5 8.03584C -0.5 8.03781 -0.5 8.03976 -0.5 8.04171C -0.5 8.04365 -0.5 8.04559 -0.5 8.04753C -0.5 8.04946 -0.5 8.05139 -0.5 8.05331C -0.5 8.05523 -0.5 8.05714 -0.5 8.05905C -0.5 8.06096 -0.5 8.06286 -0.5 8.06475C -0.5 8.06664 -0.5 8.06853 -0.5 8.07041C -0.5 8.07229 -0.5 8.07417 -0.5 8.07603C -0.5 8.0779 -0.5 8.07976 -0.5 8.08161C -0.5 8.08347 -0.5 8.08532 -0.5 8.08716C -0.5 8.089 -0.5 8.09083 -0.5 8.09266C -0.5 8.09449 -0.5 8.09631 -0.5 8.09812C -0.5 8.09994 -0.5 8.10174 -0.5 8.10355C -0.5 8.10535 -0.5 8.10714 -0.5 8.10893C -0.5 8.11072 -0.5 8.1125 -0.5 8.11428C -0.5 8.11605 -0.5 8.11782 -0.5 8.11958C -0.5 8.12135 -0.5 8.1231 -0.5 8.12485C -0.5 8.1266 -0.5 8.12834 -0.5 8.13008C -0.5 8.13182 -0.5 8.13355 -0.5 8.13527C -0.5 8.137 -0.5 8.13871 -0.5 8.14042C -0.5 8.14214 -0.5 8.14384 -0.5 8.14554C -0.5 8.14724 -0.5 8.14893 -0.5 8.15061C -0.5 8.1523 -0.5 8.15398 -0.5 8.15565C -0.5 8.15732 -0.5 8.15899 -0.5 8.16065C -0.5 8.16231 -0.5 8.16397 -0.5 8.16561C -0.5 8.16726 -0.5 8.1689 -0.5 8.17054C -0.5 8.17217 -0.5 8.1738 -0.5 8.17542C -0.5 8.17705 -0.5 8.17866 -0.5 8.18027C -0.5 8.18188 -0.5 8.18349 -0.5 8.18508C -0.5 8.18668 -0.5 8.18827 -0.5 8.18986C -0.5 8.19144 -0.5 8.19302 -0.5 8.19459C -0.5 8.19617 -0.5 8.19773 -0.5 8.19929C -0.5 8.20085 -0.5 8.20241 -0.5 8.20395C -0.5 8.2055 -0.5 8.20704 -0.5 8.20858C -0.5 8.21012 -0.5 8.21165 -0.5 8.21317C -0.5 8.21469 -0.5 8.21621 -0.5 8.21772C -0.5 8.21923 -0.5 8.22074 -0.5 8.22223C -0.5 8.22373 -0.5 8.22523 -0.5 8.22671C -0.5 8.2282 -0.5 8.22968 -0.5 8.23116C -0.5 8.23263 -0.5 8.2341 -0.5 8.23556C -0.5 8.23702 -0.5 8.23848 -0.5 8.23993C -0.5 8.24138 -0.5 8.24283 -0.5 8.24426C -0.5 8.2457 -0.5 8.24714 -0.5 8.24856C -0.5 8.24999 -0.5 8.25141 -0.5 8.25282C -0.5 8.25424 -0.5 8.25565 -0.5 8.25705C -0.5 8.25845 -0.5 8.25985 -0.5 8.26124C -0.5 8.26263 -0.5 8.26402 -0.5 8.2654C -0.5 8.26678 -0.5 8.26815 -0.5 8.26952C -0.5 8.27088 -0.5 8.27224 -0.5 8.2736C -0.5 8.27496 -0.5 8.27631 -0.5 8.27765C -0.5 8.27899 -0.5 8.28033 -0.5 8.28166C -0.5 8.283 -0.5 8.28432 -0.5 8.28564C -0.5 8.28696 -0.5 8.28828 -0.5 8.28959C -0.5 8.29089 -0.5 8.2922 -0.5 8.2935C -0.5 8.29479 -0.5 8.29608 -0.5 8.29737C -0.5 8.29866 -0.5 8.29994 -0.5 8.30121C -0.5 8.30248 -0.5 8.30375 -0.5 8.30502C -0.5 8.30628 -0.5 8.30754 -0.5 8.30879C -0.5 8.31004 -0.5 8.31129 -0.5 8.31252C -0.5 8.31376 -0.5 8.315 -0.5 8.31623C -0.5 8.31746 -0.5 8.31868 -0.5 8.3199C -0.5 8.32111 -0.5 8.32233 -0.5 8.32353C -0.5 8.32474 -0.5 8.32594 -0.5 8.32713C -0.5 8.32833 -0.5 8.32952 -0.5 8.3307C -0.5 8.33189 -0.5 8.33306 -0.5 8.33424C -0.5 8.33541 -0.5 8.33658 -0.5 8.33774C -0.5 8.3389 -0.5 8.34005 -0.5 8.3412C -0.5 8.34235 -0.5 8.3435 -0.5 8.34464C -0.5 8.34578 -0.5 8.34691 -0.5 8.34804C -0.5 8.34917 -0.5 8.35029 -0.5 8.35141C -0.5 8.35253 -0.5 8.35364 -0.5 8.35474C -0.5 8.35585 -0.5 8.35695 -0.5 8.35805C -0.5 8.35914 -0.5 8.36023 -0.5 8.36132C -0.5 8.3624 -0.5 8.36348 -0.5 8.36455C -0.5 8.36563 -0.5 8.3667 -0.5 8.36776C -0.5 8.36882 -0.5 8.36988 -0.5 8.37093C -0.5 8.37198 -0.5 8.37303 -0.5 8.37407C -0.5 8.37511 -0.5 8.37615 -0.5 8.37718C -0.5 8.37821 -0.5 8.37924 -0.5 8.38025C -0.5 8.38128 -0.5 8.38229 -0.5 8.3833C -0.5 8.38431 -0.5 8.38531 -0.5 8.38631C -0.5 8.38731 -0.5 8.3883 -0.5 8.38929C -0.5 8.39028 -0.5 8.39126 -0.5 8.39224C -0.5 8.39322 -0.5 8.39419 -0.5 8.39516C -0.5 8.39613 -0.5 8.39709 -0.5 8.39805C -0.5 8.399 -0.5 8.39995 -0.5 8.4009C -0.5 8.40185 -0.5 8.40279 -0.5 8.40372C -0.5 8.40466 -0.5 8.40559 -0.5 8.40652C -0.5 8.40744 -0.5 8.40836 -0.5 8.40928C -0.5 8.41019 -0.5 8.41111 -0.5 8.41201C -0.5 8.41292 -0.5 8.41382 -0.5 8.41471C -0.5 8.41561 -0.5 8.4165 -0.5 8.41738C -0.5 8.41827 -0.5 8.41914 -0.5 8.42002C -0.5 8.42089 -0.5 8.42176 -0.5 8.42263C -0.5 8.42349 -0.5 8.42435 -0.5 8.42521C -0.5 8.42606 -0.5 8.42691 -0.5 8.42776C -0.5 8.4286 -0.5 8.42944 -0.5 8.43027C -0.5 8.43111 -0.5 8.43194 -0.5 8.43276C -0.5 8.43359 -0.5 8.43441 -0.5 8.43522C -0.5 8.43604 -0.5 8.43685 -0.5 8.43765C -0.5 8.43846 -0.5 8.43925 -0.5 8.44005C -0.5 8.44084 -0.5 8.44164 -0.5 8.44242C -0.5 8.4432 -0.5 8.44398 -0.5 8.44476C -0.5 8.44554 -0.5 8.44631 -0.5 8.44707C -0.5 8.44784 -0.5 8.4486 -0.5 8.44935C -0.5 8.45011 -0.5 8.45086 -0.5 8.45161C -0.5 8.45235 -0.5 8.45309 -0.5 8.45383C -0.5 8.45457 -0.5 8.4553 -0.5 8.45603C -0.5 8.45675 -0.5 8.45747 -0.5 8.45819C -0.5 8.45891 -0.5 8.45962 -0.5 8.46033C -0.5 8.46104 -0.5 8.46174 -0.5 8.46244C -0.5 8.46314 -0.5 8.46383 -0.5 8.46452C -0.5 8.46521 -0.5 8.46589 -0.5 8.46657C -0.5 8.46725 -0.5 8.46793 -0.5 8.4686C -0.5 8.46927 -0.5 8.46993 -0.5 8.47059C -0.5 8.47125 -0.5 8.47191 -0.5 8.47256C -0.5 8.47321 -0.5 8.47386 -0.5 8.4745C -0.5 8.47514 -0.5 8.47578 -0.5 8.47641C -0.5 8.47705 -0.5 8.47768 -0.5 8.4783C -0.5 8.47892 -0.5 8.47954 -0.5 8.48016C -0.5 8.48077 -0.5 8.48138 -0.5 8.48199C -0.5 8.48259 -0.5 8.48319 -0.5 8.48379C -0.5 8.48439 -0.5 8.48498 -0.5 8.48557C -0.5 8.48615 -0.5 8.48674 -0.5 8.48731C -0.5 8.48789 -0.5 8.48847 -0.5 8.48904C -0.5 8.4896 -0.5 8.49017 -0.5 8.49073C -0.5 8.49129 -0.5 8.49185 -0.5 8.4924C -0.5 8.49295 -0.5 8.4935 -0.5 8.49404C -0.5 8.49458 -0.5 8.49512 -0.5 8.49565C -0.5 8.49619 -0.5 8.49672 -0.5 8.49724C -0.5 8.49777 -0.5 8.49829 -0.5 8.4988C -0.5 8.49932 -0.5 8.49983 -0.5 8.50034C -0.5 8.50085 -0.5 8.50135 -0.5 8.50185C -0.5 8.50235 -0.5 8.50284 -0.5 8.50333C -0.5 8.50382 -0.5 8.50431 -0.5 8.50479C -0.5 8.50527 -0.5 8.50575 -0.5 8.50622C -0.5 8.5067 -0.5 8.50716 -0.5 8.50763C -0.5 8.50809 -0.5 8.50855 -0.5 8.50901C -0.5 8.50947 -0.5 8.50992 -0.5 8.51036C -0.5 8.51081 -0.5 8.51126 -0.5 8.51169C -0.5 8.51213 -0.5 8.51257 -0.5 8.513C -0.5 8.51343 -0.5 8.51386 -0.5 8.51428C -0.5 8.5147 -0.5 8.51512 -0.5 8.51553C -0.5 8.51595 -0.5 8.51636 -0.5 8.51676C -0.5 8.51717 -0.5 8.51757 -0.5 8.51797C -0.5 8.51836 -0.5 8.51876 -0.5 8.51915C -0.5 8.51954 -0.5 8.51992 -0.5 8.5203C -0.5 8.52068 -0.5 8.52106 -0.5 8.52143C -0.5 8.52181 -0.5 8.52218 -0.5 8.52254C -0.5 8.52291 -0.5 8.52327 -0.5 8.52362C -0.5 8.52398 -0.5 8.52433 -0.5 8.52468C -0.5 8.52503 -0.5 8.52537 -0.5 8.52572C -0.5 8.52606 -0.5 8.52639 -0.5 8.52673C -0.5 8.52706 -0.5 8.52739 -0.5 8.52771C -0.5 8.52804 -0.5 8.52836 -0.5 8.52868C -0.5 8.52899 -0.5 8.52931 -0.5 8.52961C -0.5 8.52992 -0.5 8.53023 -0.5 8.53053C -0.5 8.53083 -0.5 8.53113 -0.5 8.53142C -0.5 8.53172 -0.5 8.53201 -0.5 8.53229C -0.5 8.53258 -0.5 8.53286 -0.5 8.53314C -0.5 8.53342 -0.5 8.53369 -0.5 8.53396C -0.5 8.53423 -0.5 8.5345 -0.5 8.53476C -0.5 8.53502 -0.5 8.53528 -0.5 8.53554C -0.5 8.53579 -0.5 8.53604 -0.5 8.53629C -0.5 8.53654 -0.5 8.53678 -0.5 8.53702C -0.5 8.53726 -0.5 8.5375 -0.5 8.53773C -0.5 8.53797 -0.5 8.53819 -0.5 8.53842C -0.5 8.53864 -0.5 8.53887 -0.5 8.53908C -0.5 8.5393 -0.5 8.53952 -0.5 8.53973C -0.5 8.53994 -0.5 8.54014 -0.5 8.54035C -0.5 8.54055 -0.5 8.54075 -0.5 8.54095C -0.5 8.54114 -0.5 8.54133 -0.5 8.54152C -0.5 8.54171 -0.5 8.5419 -0.5 8.54208C -0.5 8.54226 -0.5 8.54244 -0.5 8.54261C -0.5 8.54278 -0.5 8.54295 -0.5 8.54312C -0.5 8.54329 -0.5 8.54345 -0.5 8.54361C -0.5 8.54377 -0.5 8.54393 -0.5 8.54408C -0.5 8.54423 -0.5 8.54438 -0.5 8.54453C -0.5 8.54467 -0.5 8.54482 -0.5 8.54496C -0.5 8.54509 -0.5 8.54523 -0.5 8.54536C -0.5 8.54549 -0.5 8.54562 -0.5 8.54575C -0.5 8.54587 -0.5 8.54599 -0.5 8.54611C -0.5 8.54623 -0.5 8.54634 -0.5 8.54645C -0.5 8.54657 -0.5 8.54667 -0.5 8.54678C -0.5 8.54688 -0.5 8.54698 -0.5 8.54708C -0.5 8.54718 -0.5 8.54727 -0.5 8.54736C -0.5 8.54745 -0.5 8.54754 -0.5 8.54762C -0.5 8.54771 -0.5 8.54779 -0.5 8.54787C -0.5 8.54794 -0.5 8.54802 -0.5 8.54809C -0.5 8.54816 -0.5 8.54823 -0.5 8.54829C -0.5 8.54835 -0.5 8.54841 -0.5 8.54847C -0.5 8.54853 -0.5 8.54858 -0.5 8.54863C -0.5 8.54869 -0.5 8.54873 -0.5 8.54878C -0.5 8.54882 -0.5 8.54886 -0.5 8.5489C -0.5 8.54894 -0.5 8.54897 -0.5 8.54901C -0.5 8.54904 -0.5 8.54907 -0.5 8.54909C -0.5 8.54912 -0.5 8.54914 -0.5 8.54916C -0.5 8.54918 -0.5 8.54919 -0.5 8.5492C -0.5 8.54922 -0.5 8.54923 -0.5 8.54923C -0.5 8.54924 -0.5 8.54924 0 8.54924C 0.5 8.54924 0.5 8.54924 0.5 8.54923C 0.5 8.54923 0.5 8.54922 0.5 8.5492C 0.5 8.54919 0.5 8.54918 0.5 8.54916C 0.5 8.54914 0.5 8.54912 0.5 8.54909C 0.5 8.54907 0.5 8.54904 0.5 8.54901C 0.5 8.54897 0.5 8.54894 0.5 8.5489C 0.5 8.54886 0.5 8.54882 0.5 8.54878C 0.5 8.54873 0.5 8.54869 0.5 8.54863C 0.5 8.54858 0.5 8.54853 0.5 8.54847C 0.5 8.54841 0.5 8.54835 0.5 8.54829C 0.5 8.54823 0.5 8.54816 0.5 8.54809C 0.5 8.54802 0.5 8.54794 0.5 8.54787C 0.5 8.54779 0.5 8.54771 0.5 8.54762C 0.5 8.54754 0.5 8.54745 0.5 8.54736C 0.5 8.54727 0.5 8.54718 0.5 8.54708C 0.5 8.54698 0.5 8.54688 0.5 8.54678C 0.5 8.54667 0.5 8.54657 0.5 8.54645C 0.5 8.54634 0.5 8.54623 0.5 8.54611C 0.5 8.54599 0.5 8.54587 0.5 8.54575C 0.5 8.54562 0.5 8.54549 0.5 8.54536C 0.5 8.54523 0.5 8.54509 0.5 8.54496C 0.5 8.54482 0.5 8.54467 0.5 8.54453C 0.5 8.54438 0.5 8.54423 0.5 8.54408C 0.5 8.54393 0.5 8.54377 0.5 8.54361C 0.5 8.54345 0.5 8.54329 0.5 8.54312C 0.5 8.54295 0.5 8.54278 0.5 8.54261C 0.5 8.54244 0.5 8.54226 0.5 8.54208C 0.5 8.5419 0.5 8.54171 0.5 8.54152C 0.5 8.54133 0.5 8.54114 0.5 8.54095C 0.5 8.54075 0.5 8.54055 0.5 8.54035C 0.5 8.54014 0.5 8.53994 0.5 8.53973C 0.5 8.53952 0.5 8.5393 0.5 8.53908C 0.5 8.53887 0.5 8.53864 0.5 8.53842C 0.5 8.53819 0.5 8.53797 0.5 8.53773C 0.5 8.5375 0.5 8.53726 0.5 8.53702C 0.5 8.53678 0.5 8.53654 0.5 8.53629C 0.5 8.53604 0.5 8.53579 0.5 8.53554C 0.5 8.53528 0.5 8.53502 0.5 8.53476C 0.5 8.5345 0.5 8.53423 0.5 8.53396C 0.5 8.53369 0.5 8.53342 0.5 8.53314C 0.5 8.53286 0.5 8.53258 0.5 8.53229C 0.5 8.53201 0.5 8.53172 0.5 8.53142C 0.5 8.53113 0.5 8.53083 0.5 8.53053C 0.5 8.53023 0.5 8.52992 0.5 8.52961C 0.5 8.52931 0.5 8.52899 0.5 8.52868C 0.5 8.52836 0.5 8.52804 0.5 8.52771C 0.5 8.52739 0.5 8.52706 0.5 8.52673C 0.5 8.52639 0.5 8.52606 0.5 8.52572C 0.5 8.52537 0.5 8.52503 0.5 8.52468C 0.5 8.52433 0.5 8.52398 0.5 8.52362C 0.5 8.52327 0.5 8.52291 0.5 8.52254C 0.5 8.52218 0.5 8.52181 0.5 8.52143C 0.5 8.52106 0.5 8.52068 0.5 8.5203C 0.5 8.51992 0.5 8.51954 0.5 8.51915C 0.5 8.51876 0.5 8.51836 0.5 8.51797C 0.5 8.51757 0.5 8.51717 0.5 8.51676C 0.5 8.51636 0.5 8.51595 0.5 8.51553C 0.5 8.51512 0.5 8.5147 0.5 8.51428C 0.5 8.51386 0.5 8.51343 0.5 8.513C 0.5 8.51257 0.5 8.51213 0.5 8.51169C 0.5 8.51126 0.5 8.51081 0.5 8.51036C 0.5 8.50992 0.5 8.50947 0.5 8.50901C 0.5 8.50855 0.5 8.50809 0.5 8.50763C 0.5 8.50716 0.5 8.5067 0.5 8.50622C 0.5 8.50575 0.5 8.50527 0.5 8.50479C 0.5 8.50431 0.5 8.50382 0.5 8.50333C 0.5 8.50284 0.5 8.50235 0.5 8.50185C 0.5 8.50135 0.5 8.50085 0.5 8.50034C 0.5 8.49983 0.5 8.49932 0.5 8.4988C 0.5 8.49829 0.5 8.49777 0.5 8.49724C 0.5 8.49672 0.5 8.49619 0.5 8.49565C 0.5 8.49512 0.5 8.49458 0.5 8.49404C 0.5 8.4935 0.5 8.49295 0.5 8.4924C 0.5 8.49185 0.5 8.49129 0.5 8.49073C 0.5 8.49017 0.5 8.4896 0.5 8.48904C 0.5 8.48847 0.5 8.48789 0.5 8.48731C 0.5 8.48674 0.5 8.48615 0.5 8.48557C 0.5 8.48498 0.5 8.48439 0.5 8.48379C 0.5 8.48319 0.5 8.48259 0.5 8.48199C 0.5 8.48138 0.5 8.48077 0.5 8.48016C 0.5 8.47954 0.5 8.47892 0.5 8.4783C 0.5 8.47768 0.5 8.47705 0.5 8.47641C 0.5 8.47578 0.5 8.47514 0.5 8.4745C 0.5 8.47386 0.5 8.47321 0.5 8.47256C 0.5 8.47191 0.5 8.47125 0.5 8.47059C 0.5 8.46993 0.5 8.46927 0.5 8.4686C 0.5 8.46793 0.5 8.46725 0.5 8.46657C 0.5 8.46589 0.5 8.46521 0.5 8.46452C 0.5 8.46383 0.5 8.46314 0.5 8.46244C 0.5 8.46174 0.5 8.46104 0.5 8.46033C 0.5 8.45962 0.5 8.45891 0.5 8.45819C 0.5 8.45747 0.5 8.45675 0.5 8.45603C 0.5 8.4553 0.5 8.45457 0.5 8.45383C 0.5 8.45309 0.5 8.45235 0.5 8.45161C 0.5 8.45086 0.5 8.45011 0.5 8.44935C 0.5 8.4486 0.5 8.44784 0.5 8.44707C 0.5 8.44631 0.5 8.44554 0.5 8.44476C 0.5 8.44398 0.5 8.4432 0.5 8.44242C 0.5 8.44164 0.5 8.44084 0.5 8.44005C 0.5 8.43925 0.5 8.43846 0.5 8.43765C 0.5 8.43685 0.5 8.43604 0.5 8.43522C 0.5 8.43441 0.5 8.43359 0.5 8.43276C 0.5 8.43194 0.5 8.43111 0.5 8.43027C 0.5 8.42944 0.5 8.4286 0.5 8.42776C 0.5 8.42691 0.5 8.42606 0.5 8.42521C 0.5 8.42435 0.5 8.42349 0.5 8.42263C 0.5 8.42176 0.5 8.42089 0.5 8.42002C 0.5 8.41914 0.5 8.41827 0.5 8.41738C 0.5 8.4165 0.5 8.41561 0.5 8.41471C 0.5 8.41382 0.5 8.41292 0.5 8.41201C 0.5 8.41111 0.5 8.41019 0.5 8.40928C 0.5 8.40836 0.5 8.40744 0.5 8.40652C 0.5 8.40559 0.5 8.40466 0.5 8.40372C 0.5 8.40279 0.5 8.40185 0.5 8.4009C 0.5 8.39995 0.5 8.399 0.5 8.39805C 0.5 8.39709 0.5 8.39613 0.5 8.39516C 0.5 8.39419 0.5 8.39322 0.5 8.39224C 0.5 8.39126 0.5 8.39028 0.5 8.38929C 0.5 8.3883 0.5 8.38731 0.5 8.38631C 0.5 8.38531 0.5 8.38431 0.5 8.3833C 0.5 8.38229 0.5 8.38128 0.5 8.38025C 0.5 8.37924 0.5 8.37821 0.5 8.37718C 0.5 8.37615 0.5 8.37511 0.5 8.37407C 0.5 8.37303 0.5 8.37198 0.5 8.37093C 0.5 8.36988 0.5 8.36882 0.5 8.36776C 0.5 8.3667 0.5 8.36563 0.5 8.36455C 0.5 8.36348 0.5 8.3624 0.5 8.36132C 0.5 8.36023 0.5 8.35914 0.5 8.35805C 0.5 8.35695 0.5 8.35585 0.5 8.35474C 0.5 8.35364 0.5 8.35253 0.5 8.35141C 0.5 8.35029 0.5 8.34917 0.5 8.34804C 0.5 8.34691 0.5 8.34578 0.5 8.34464C 0.5 8.3435 0.5 8.34235 0.5 8.3412C 0.5 8.34005 0.5 8.3389 0.5 8.33774C 0.5 8.33658 0.5 8.33541 0.5 8.33424C 0.5 8.33306 0.5 8.33189 0.5 8.3307C 0.5 8.32952 0.5 8.32833 0.5 8.32713C 0.5 8.32594 0.5 8.32474 0.5 8.32353C 0.5 8.32233 0.5 8.32111 0.5 8.3199C 0.5 8.31868 0.5 8.31746 0.5 8.31623C 0.5 8.315 0.5 8.31376 0.5 8.31252C 0.5 8.31129 0.5 8.31004 0.5 8.30879C 0.5 8.30754 0.5 8.30628 0.5 8.30502C 0.5 8.30375 0.5 8.30248 0.5 8.30121C 0.5 8.29994 0.5 8.29866 0.5 8.29737C 0.5 8.29608 0.5 8.29479 0.5 8.2935C 0.5 8.2922 0.5 8.29089 0.5 8.28959C 0.5 8.28828 0.5 8.28696 0.5 8.28564C 0.5 8.28432 0.5 8.283 0.5 8.28166C 0.5 8.28033 0.5 8.27899 0.5 8.27765C 0.5 8.27631 0.5 8.27496 0.5 8.2736C 0.5 8.27224 0.5 8.27088 0.5 8.26952C 0.5 8.26815 0.5 8.26678 0.5 8.2654C 0.5 8.26402 0.5 8.26263 0.5 8.26124C 0.5 8.25985 0.5 8.25845 0.5 8.25705C 0.5 8.25565 0.5 8.25424 0.5 8.25282C 0.5 8.25141 0.5 8.24999 0.5 8.24856C 0.5 8.24714 0.5 8.2457 0.5 8.24426C 0.5 8.24283 0.5 8.24138 0.5 8.23993C 0.5 8.23848 0.5 8.23702 0.5 8.23556C 0.5 8.2341 0.5 8.23263 0.5 8.23116C 0.5 8.22968 0.5 8.2282 0.5 8.22671C 0.5 8.22523 0.5 8.22373 0.5 8.22223C 0.5 8.22074 0.5 8.21923 0.5 8.21772C 0.5 8.21621 0.5 8.21469 0.5 8.21317C 0.5 8.21165 0.5 8.21012 0.5 8.20858C 0.5 8.20704 0.5 8.2055 0.5 8.20395C 0.5 8.20241 0.5 8.20085 0.5 8.19929C 0.5 8.19773 0.5 8.19617 0.5 8.19459C 0.5 8.19302 0.5 8.19144 0.5 8.18986C 0.5 8.18827 0.5 8.18668 0.5 8.18508C 0.5 8.18349 0.5 8.18188 0.5 8.18027C 0.5 8.17866 0.5 8.17705 0.5 8.17542C 0.5 8.1738 0.5 8.17217 0.5 8.17054C 0.5 8.1689 0.5 8.16726 0.5 8.16561C 0.5 8.16397 0.5 8.16231 0.5 8.16065C 0.5 8.15899 0.5 8.15732 0.5 8.15565C 0.5 8.15398 0.5 8.1523 0.5 8.15061C 0.5 8.14893 0.5 8.14724 0.5 8.14554C 0.5 8.14384 0.5 8.14214 0.5 8.14042C 0.5 8.13871 0.5 8.137 0.5 8.13527C 0.5 8.13355 0.5 8.13182 0.5 8.13008C 0.5 8.12834 0.5 8.1266 0.5 8.12485C 0.5 8.1231 0.5 8.12135 0.5 8.11958C 0.5 8.11782 0.5 8.11605 0.5 8.11428C 0.5 8.1125 0.5 8.11072 0.5 8.10893C 0.5 8.10714 0.5 8.10535 0.5 8.10355C 0.5 8.10174 0.5 8.09994 0.5 8.09812C 0.5 8.09631 0.5 8.09449 0.5 8.09266C 0.5 8.09083 0.5 8.089 0.5 8.08716C 0.5 8.08532 0.5 8.08347 0.5 8.08161C 0.5 8.07976 0.5 8.0779 0.5 8.07603C 0.5 8.07417 0.5 8.07229 0.5 8.07041C 0.5 8.06853 0.5 8.06664 0.5 8.06475C 0.5 8.06286 0.5 8.06096 0.5 8.05905C 0.5 8.05714 0.5 8.05523 0.5 8.05331C 0.5 8.05139 0.5 8.04946 0.5 8.04753C 0.5 8.04559 0.5 8.04365 0.5 8.04171C 0.5 8.03976 0.5 8.03781 0.5 8.03584C 0.5 8.03388 0.5 8.03192 0.5 8.02994C 0.5 8.02797 0.5 8.02599 0.5 8.024C 0.5 8.02201 0.5 8.02002 0.5 8.01802C 0.5 8.01602 0.5 8.01401 0.5 8.01199C 0.5 8.00998 0.5 8.00796 0.5 8.00593C 0.5 8.0039 0.5 8.00186 0.5 7.99982C 0.5 7.99778 0.5 7.99573 0.5 7.99367C 0.5 7.99162 0.5 7.98956 0.5 7.98749C 0.5 7.98542 0.5 7.98334 0.5 7.98126C 0.5 7.97917 0.5 7.97708 0.5 7.97499C 0.5 7.97289 0.5 7.97078 0.5 7.96867C 0.5 7.96656 0.5 7.96444 0.5 7.96232C 0.5 7.96019 0.5 7.95806 0.5 7.95592C 0.5 7.95378 0.5 7.95164 0.5 7.94949C 0.5 7.94733 0.5 7.94517 0.5 7.94301C 0.5 7.94084 0.5 7.93866 0.5 7.93648C 0.5 7.9343 0.5 7.93211 0.5 7.92992C 0.5 7.92772 0.5 7.92552 0.5 7.92331C 0.5 7.9211 0.5 7.91889 0.5 7.91666C 0.5 7.91444 0.5 7.91221 0.5 7.90997C 0.5 7.90774 0.5 7.90549 0.5 7.90324C 0.5 7.90099 0.5 7.89873 0.5 7.89646C 0.5 7.8942 0.5 7.89192 0.5 7.88964C 0.5 7.88736 0.5 7.88508 0.5 7.88278C 0.5 7.88049 0.5 7.87818 0.5 7.87587C 0.5 7.87357 0.5 7.87125 0.5 7.86893C 0.5 7.8666 0.5 7.86427 0.5 7.86193C 0.5 7.8596 0.5 7.85725 0.5 7.8549C 0.5 7.85255 0.5 7.85019 0.5 7.84782C 0.5 7.84545 0.5 7.84308 0.5 7.8407C 0.5 7.83832 0.5 7.83593 0.5 7.83353C 0.5 7.83114 0.5 7.82873 0.5 7.82632C 0.5 7.82391 0.5 7.82149 0.5 7.81907C 0.5 7.81664 0.5 7.81421 0.5 7.81177C 0.5 7.80933 0.5 7.80688 0.5 7.80443C 0.5 7.80197 0.5 7.79951 0.5 7.79704C 0.5 7.79457 0.5 7.79209 0.5 7.78961C 0.5 7.78713 0.5 7.78463 0.5 7.78213C 0.5 7.77963 0.5 7.77713 0.5 7.77461C 0.5 7.7721 0.5 7.76958 0.5 7.76705C 0.5 7.76452 0.5 7.76198 0.5 7.75944C 0.5 7.7569 0.5 7.75434 0.5 7.75179C 0.5 7.74923 0.5 7.74666 0.5 7.74409C 0.5 7.74151 0.5 7.73893 0.5 7.73634C 0.5 7.73375 0.5 7.73116 0.5 7.72855C 0.5 7.72595 0.5 7.72334 0.5 7.72072C 0.5 7.7181 0.5 7.71547 0.5 7.71284C 0.5 7.7102 0.5 7.70756 0.5 7.70491C 0.5 7.70226 0.5 7.6996 0.5 7.69694C 0.5 7.69427 0.5 7.6916 0.5 7.68892C 0.5 7.68624 0.5 7.68355 0.5 7.68086C 0.5 7.67816 0.5 7.67546 0.5 7.67275C 0.5 7.67003 0.5 7.66732 0.5 7.66459C 0.5 7.66186 0.5 7.65913 0.5 7.65639C 0.5 7.65365 0.5 7.6509 0.5 7.64814C 0.5 7.64538 0.5 7.64262 0.5 7.63984C 0.5 7.63707 0.5 7.63429 0.5 7.6315C 0.5 7.62871 0.5 7.62592 0.5 7.62312C 0.5 7.62031 0.5 7.6175 0.5 7.61468C 0.5 7.61186 0.5 7.60903 0.5 7.6062C 0.5 7.60336 0.5 7.60052 0.5 7.59767C 0.5 7.59482 0.5 7.59196 0.5 7.58909C 0.5 7.58623 0.5 7.58335 0.5 7.58047C 0.5 7.57759 0.5 7.5747 0.5 7.5718C 0.5 7.5689 0.5 7.566 0.5 7.56308C 0.5 7.56017 0.5 7.55725 0.5 7.55432C 0.5 7.55139 0.5 7.54845 0.5 7.5455C 0.5 7.54256 0.5 7.5396 0.5 7.53664C 0.5 7.53368 0.5 7.53071 0.5 7.52773C 0.5 7.52476 0.5 7.52177 0.5 7.51878C 0.5 7.51578 0.5 7.51278 0.5 7.50977C 0.5 7.50676 0.5 7.50374 0.5 7.50072C 0.5 7.49769 0.5 7.49466 0.5 7.49162C 0.5 7.48857 0.5 7.48552 0.5 7.48247C 0.5 7.47941 0.5 7.47634 0.5 7.47327C 0.5 7.47019 0.5 7.46711 0.5 7.46402C 0.5 7.46093 0.5 7.45783 0.5 7.45473C 0.5 7.45162 0.5 7.4485 0.5 7.44538C 0.5 7.44226 0.5 7.43913 0.5 7.43599C 0.5 7.43285 0.5 7.4297 0.5 7.42654C 0.5 7.42339 0.5 7.42022 0.5 7.41705C 0.5 7.41388 0.5 7.4107 0.5 7.40751C 0.5 7.40432 0.5 7.40112 0.5 7.39792C 0.5 7.39471 0.5 7.3915 0.5 7.38828C 0.5 7.38506 0.5 7.38183 0.5 7.37859C 0.5 7.37535 0.5 7.37211 0.5 7.36885C 0.5 7.3656 0.5 7.36233 0.5 7.35906C 0.5 7.35579 0.5 7.35251 0.5 7.34922C 0.5 7.34593 0.5 7.34264 0.5 7.33933C 0.5 7.33603 0.5 7.33271 0.5 7.32939C 0.5 7.32607 0.5 7.32274 0.5 7.3194C 0.5 7.31606 0.5 7.31272 0.5 7.30936C 0.5 7.30601 0.5 7.30264 0.5 7.29927C 0.5 7.2959 0.5 7.29252 0.5 7.28913C 0.5 7.28574 0.5 7.28234 0.5 7.27894C 0.5 7.27553 0.5 7.27212 0.5 7.26869C 0.5 7.26527 0.5 7.26184 0.5 7.2584C 0.5 7.25496 0.5 7.25151 0.5 7.24806C 0.5 7.2446 0.5 7.24113 0.5 7.23766C 0.5 7.23419 0.5 7.2307 0.5 7.22721C 0.5 7.22372 0.5 7.22022 0.5 7.21671C 0.5 7.2132 0.5 7.20969 0.5 7.20616C 0.5 7.20264 0.5 7.1991 0.5 7.19556C 0.5 7.19202 0.5 7.18847 0.5 7.18491C 0.5 7.18135 0.5 7.17778 0.5 7.1742C 0.5 7.17062 0.5 7.16704 0.5 7.16344C 0.5 7.15985 0.5 7.15625 0.5 7.15263C 0.5 7.14902 0.5 7.1454 0.5 7.14177C 0.5 7.13814 0.5 7.13451 0.5 7.13086C 0.5 7.12721 0.5 7.12356 0.5 7.11989C 0.5 7.11623 0.5 7.11256 0.5 7.10887C 0.5 7.10519 0.5 7.1015 0.5 7.0978C 0.5 7.0941 0.5 7.0904 0.5 7.08668C 0.5 7.08296 0.5 7.07924 0.5 7.0755C 0.5 7.07177 0.5 7.06802 0.5 7.06427C 0.5 7.06052 0.5 7.05676 0.5 7.05299C 0.5 7.04922 0.5 7.04544 0.5 7.04165C 0.5 7.03787 0.5 7.03407 0.5 7.03026C 0.5 7.02646 0.5 7.02265 0.5 7.01882C 0.5 7.015 0.5 7.01117 0.5 7.00733C 0.5 7.00349 0.5 6.99964 0.5 6.99578C 0.5 6.99192 0.5 6.98805 0.5 6.98417C 0.5 6.9803 0.5 6.97641 0.5 6.97252C 0.5 6.96862 0.5 6.96472 0.5 6.96081C 0.5 6.95689 0.5 6.95297 0.5 6.94904C 0.5 6.94511 0.5 6.94117 0.5 6.93722C 0.5 6.93327 0.5 6.92932 0.5 6.92535C 0.5 6.92138 0.5 6.91741 0.5 6.91342C 0.5 6.90944 0.5 6.90544 0.5 6.90144C 0.5 6.89744 0.5 6.89342 0.5 6.8894C 0.5 6.88538 0.5 6.88135 0.5 6.87731C 0.5 6.87327 0.5 6.86922 0.5 6.86517C 0.5 6.86111 0.5 6.85704 0.5 6.85296C 0.5 6.84889 0.5 6.8448 0.5 6.84071C 0.5 6.83661 0.5 6.83251 0.5 6.8284C 0.5 6.82429 0.5 6.82016 0.5 6.81603C 0.5 6.8119 0.5 6.80776 0.5 6.80361C 0.5 6.79946 0.5 6.7953 0.5 6.79113C 0.5 6.78697 0.5 6.78279 0.5 6.7786C 0.5 6.77441 0.5 6.77022 0.5 6.76601C 0.5 6.76181 0.5 6.75759 0.5 6.75337C 0.5 6.74915 0.5 6.74491 0.5 6.74067C 0.5 6.73643 0.5 6.73217 0.5 6.72791C 0.5 6.72365 0.5 6.71938 0.5 6.7151C 0.5 6.71082 0.5 6.70653 0.5 6.70223C 0.5 6.69794 0.5 6.69363 0.5 6.68931C 0.5 6.68499 0.5 6.68067 0.5 6.67633C 0.5 6.67199 0.5 6.66765 0.5 6.66329C 0.5 6.65894 0.5 6.65457 0.5 6.6502C 0.5 6.64582 0.5 6.64144 0.5 6.63705C 0.5 6.63265 0.5 6.62825 0.5 6.62384C 0.5 6.61943 0.5 6.61501 0.5 6.61057C 0.5 6.60614 0.5 6.6017 0.5 6.59725C 0.5 6.5928 0.5 6.58834 0.5 6.58387C 0.5 6.57941 0.5 6.57493 0.5 6.57044C 0.5 6.56595 0.5 6.56145 0.5 6.55695C 0.5 6.55244 0.5 6.54792 0.5 6.54339C 0.5 6.53887 0.5 6.53433 0.5 6.52979C 0.5 6.52524 0.5 6.52068 0.5 6.51612C 0.5 6.51155 0.5 6.50698 0.5 6.5024C 0.5 6.49781 0.5 6.49322 0.5 6.48861C 0.5 6.48401 0.5 6.4794 0.5 6.47477C 0.5 6.47015 0.5 6.46552 0.5 6.46088C 0.5 6.45623 0.5 6.45158 0.5 6.44692C 0.5 6.44226 0.5 6.43758 0.5 6.4329C 0.5 6.42822 0.5 6.42353 0.5 6.41883C 0.5 6.41413 0.5 6.40942 0.5 6.4047C 0.5 6.39998 0.5 6.39525 0.5 6.39051C 0.5 6.38577 0.5 6.38102 0.5 6.37626C 0.5 6.3715 0.5 6.36673 0.5 6.36195C 0.5 6.35717 0.5 6.35238 0.5 6.34758C 0.5 6.34278 0.5 6.33797 0.5 6.33316C 0.5 6.32834 0.5 6.32351 0.5 6.31867C 0.5 6.31383 0.5 6.30898 0.5 6.30412C 0.5 6.29927 0.5 6.2944 0.5 6.28952C 0.5 6.28464 0.5 6.27975 0.5 6.27485C 0.5 6.26996 0.5 6.26505 0.5 6.26013C 0.5 6.25521 0.5 6.25028 0.5 6.24535C 0.5 6.24041 0.5 6.23546 0.5 6.2305C 0.5 6.22554 0.5 6.22058 0.5 6.2156C 0.5 6.21062 0.5 6.20563 0.5 6.20063C 0.5 6.19564 0.5 6.19063 0.5 6.18561C 0.5 6.18059 0.5 6.17556 0.5 6.17053C 0.5 6.16549 0.5 6.16044 0.5 6.15538C 0.5 6.15032 0.5 6.14525 0.5 6.14018C 0.5 6.1351 0.5 6.13001 0.5 6.12491C 0.5 6.11981 0.5 6.1147 0.5 6.10958C 0.5 6.10446 0.5 6.09933 0.5 6.09419C 0.5 6.08905 0.5 6.08391 0.5 6.07875C 0.5 6.07359 0.5 6.06842 0.5 6.06324C 0.5 6.05805 0.5 6.05286 0.5 6.04766C 0.5 6.04246 0.5 6.03725 0.5 6.03203C 0.5 6.02681 0.5 6.02158 0.5 6.01634C 0.5 6.0111 0.5 6.00584 0.5 6.00058C 0.5 5.99532 0.5 5.99005 0.5 5.98476C 0.5 5.97948 0.5 5.97419 0.5 5.96888C 0.5 5.96358 0.5 5.95827 0.5 5.95294C 0.5 5.94762 0.5 5.94229 0.5 5.93694C 0.5 5.9316 0.5 5.92624 0.5 5.92088C 0.5 5.91551 0.5 5.91013 0.5 5.90475C 0.5 5.89936 0.5 5.89397 0.5 5.88856C 0.5 5.88315 0.5 5.87773 0.5 5.87231C 0.5 5.86688 0.5 5.86144 0.5 5.85599C 0.5 5.85054 0.5 5.84508 0.5 5.83961C 0.5 5.83415 0.5 5.82867 0.5 5.82317C 0.5 5.81768 0.5 5.81218 0.5 5.80667C 0.5 5.80116 0.5 5.79564 0.5 5.79011C 0.5 5.78457 0.5 5.77903 0.5 5.77348C 0.5 5.76792 0.5 5.76236 0.5 5.75678C 0.5 5.75121 0.5 5.74563 0.5 5.74003C 0.5 5.73443 0.5 5.72883 0.5 5.72321C 0.5 5.71759 0.5 5.71197 0.5 5.70633C 0.5 5.70069 0.5 5.69504 0.5 5.68938C 0.5 5.68372 0.5 5.67805 0.5 5.67237C 0.5 5.66669 0.5 5.661 0.5 5.6553C 0.5 5.6496 0.5 5.64388 0.5 5.63816C 0.5 5.63244 0.5 5.6267 0.5 5.62096C 0.5 5.61521 0.5 5.60946 0.5 5.60369C 0.5 5.59793 0.5 5.59215 0.5 5.58636C 0.5 5.58058 0.5 5.57478 0.5 5.56897C 0.5 5.56316 0.5 5.55734 0.5 5.55151C 0.5 5.54568 0.5 5.53984 0.5 5.53399C 0.5 5.52813 0.5 5.52227 0.5 5.5164C 0.5 5.51052 0.5 5.50464 0.5 5.49874C 0.5 5.49285 0.5 5.48694 0.5 5.48103C 0.5 5.47511 0.5 5.46918 0.5 5.46324C 0.5 5.4573 0.5 5.45135 0.5 5.44539C 0.5 5.43943 0.5 5.43346 0.5 5.42748C 0.5 5.4215 0.5 5.4155 0.5 5.4095C 0.5 5.4035 0.5 5.39748 0.5 5.39146C 0.5 5.38543 0.5 5.37939 0.5 5.37335C 0.5 5.3673 0.5 5.36124 0.5 5.35517C 0.5 5.3491 0.5 5.34302 0.5 5.33693C 0.5 5.33084 0.5 5.32473 0.5 5.31862C 0.5 5.31251 0.5 5.30638 0.5 5.30025C 0.5 5.29411 0.5 5.28796 0.5 5.28181C 0.5 5.27565 0.5 5.26948 0.5 5.2633C 0.5 5.25712 0.5 5.25093 0.5 5.24473C 0.5 5.23853 0.5 5.23231 0.5 5.22609C 0.5 5.21987 0.5 5.21363 0.5 5.20738C 0.5 5.20114 0.5 5.19488 0.5 5.18861C 0.5 5.18234 0.5 5.17606 0.5 5.16977C 0.5 5.16348 0.5 5.15718 0.5 5.15087C 0.5 5.14455 0.5 5.13823 0.5 5.13189C 0.5 5.12556 0.5 5.11921 0.5 5.11285C 0.5 5.1065 0.5 5.10013 0.5 5.09375C 0.5 5.08737 0.5 5.08097 0.5 5.07457C 0.5 5.06817 0.5 5.06175 0.5 5.05533C 0.5 5.0489 0.5 5.04247 0.5 5.03602C 0.5 5.02957 0.5 5.02311 0.5 5.01664C 0.5 5.01017 0.5 5.00369 0.5 4.9972C 0.5 4.9907 0.5 4.9842 0.5 4.97768C 0.5 4.97117 0.5 4.96464 0.5 4.9581C 0.5 4.95156 0.5 4.94501 0.5 4.93845C 0.5 4.93189 0.5 4.92532 0.5 4.91873C 0.5 4.91215 0.5 4.90556 0.5 4.89895C 0.5 4.89234 0.5 4.88572 0.5 4.87909C 0.5 4.87246 0.5 4.86582 0.5 4.85917C 0.5 4.85252 0.5 4.84586 0.5 4.83918C 0.5 4.8325 0.5 4.82582 0.5 4.81912C 0.5 4.81242 0.5 4.80571 0.5 4.79899C 0.5 4.79227 0.5 4.78554 0.5 4.77879C 0.5 4.77205 0.5 4.76529 0.5 4.75852C 0.5 4.75176 0.5 4.74498 0.5 4.73819C 0.5 4.7314 0.5 4.7246 0.5 4.71778C 0.5 4.71097 0.5 4.70414 0.5 4.69731C 0.5 4.69047 0.5 4.68362 0.5 4.67676C 0.5 4.6699 0.5 4.66303 0.5 4.65615C 0.5 4.64926 0.5 4.64237 0.5 4.63546C 0.5 4.62856 0.5 4.62164 0.5 4.61471C 0.5 4.60778 0.5 4.60084 0.5 4.59388C 0.5 4.58693 0.5 4.57997 0.5 4.57299C 0.5 4.56601 0.5 4.55903 0.5 4.55203C 0.5 4.54503 0.5 4.53801 0.5 4.53099C 0.5 4.52397 0.5 4.51693 0.5 4.50989C 0.5 4.50284 0.5 4.49578 0.5 4.48871C 0.5 4.48164 0.5 4.47456 0.5 4.46746C 0.5 4.46037 0.5 4.45326 0.5 4.44615C 0.5 4.43903 0.5 4.4319 0.5 4.42476C 0.5 4.41762 0.5 4.41046 0.5 4.4033C 0.5 4.39614 0.5 4.38896 0.5 4.38177C 0.5 4.37458 0.5 4.36738 0.5 4.36017C 0.5 4.35296 0.5 4.34573 0.5 4.3385C 0.5 4.33126 0.5 4.32401 0.5 4.31675C 0.5 4.30949 0.5 4.30222 0.5 4.29494C 0.5 4.28765 0.5 4.28036 0.5 4.27305C 0.5 4.26574 0.5 4.25842 0.5 4.25109C 0.5 4.24376 0.5 4.23642 0.5 4.22906C 0.5 4.22171 0.5 4.21434 0.5 4.20696C 0.5 4.19958 0.5 4.19219 0.5 4.18478C 0.5 4.17738 0.5 4.16996 0.5 4.16254C 0.5 4.15511 0.5 4.14767 0.5 4.14022C 0.5 4.13277 0.5 4.1253 0.5 4.11783C 0.5 4.11035 0.5 4.10286 0.5 4.09536C 0.5 4.08786 0.5 4.08035 0.5 4.07283C 0.5 4.0653 0.5 4.05777 0.5 4.05022C 0.5 4.04267 0.5 4.03511 0.5 4.02753C 0.5 4.01996 0.5 4.01238 0.5 4.00478C 0.5 3.99718 0.5 3.98957 0.5 3.98195C 0.5 3.97433 0.5 3.9667 0.5 3.95905C 0.5 3.9514 0.5 3.94375 0.5 3.93608C 0.5 3.92841 0.5 3.92072 0.5 3.91303C 0.5 3.90533 0.5 3.89763 0.5 3.88991C 0.5 3.88219 0.5 3.87446 0.5 3.86671C 0.5 3.85897 0.5 3.85121 0.5 3.84344C 0.5 3.83567 0.5 3.82789 0.5 3.8201C 0.5 3.81231 0.5 3.8045 0.5 3.79668C 0.5 3.78887 0.5 3.78104 0.5 3.77319C 0.5 3.76535 0.5 3.7575 0.5 3.74963C 0.5 3.74176 0.5 3.73388 0.5 3.72599C 0.5 3.7181 0.5 3.71019 0.5 3.70228C 0.5 3.69436 0.5 3.68643 0.5 3.67849C 0.5 3.67055 0.5 3.66259 0.5 3.65463L -0.5 3.65463ZM 3.93864 5.28617L 3.93864 8.54924L 4.93864 8.54924L 4.93864 5.28617L 3.93864 5.28617ZM 3.93864 8.54924L 3.93864 23L 4.93864 23L 4.93864 8.54924L 3.93864 8.54924ZM 0 9.04924L 4.43864 9.04924L 4.43864 8.04924L 0 8.04924L 0 9.04924Z"/>
</defs>
</svg>
