<?xml version="1.0" encoding="UTF-8"?>
<svg width="16px" height="17px" viewBox="0 0 16 17" version="1.1" xmlns="http://www.w3.org/2000/svg" xmlns:xlink="http://www.w3.org/1999/xlink">
    <!-- Generator: Sketch 49.1 (51147) - http://www.bohemiancoding.com/sketch -->
    <title>arrow-pointing-to-right</title>
    <desc>Created with Sketch.</desc>
    <defs></defs>
    <g id="Page-1" stroke="none" stroke-width="1" fill="none" fill-rule="evenodd">
        <g id="LandingV2" transform="translate(-1042.000000, -469.000000)" fill="#403E69" fill-rule="nonzero">
            <g id="button" transform="translate(752.000000, 448.000000)">
                <g id="Group-3" transform="translate(33.000000, 15.000000)">
                    <g id="arrow-pointing-to-right" transform="translate(257.000000, 6.000000)">
                        <path d="M15.5978157,7.5179659 L8.52170892,0.414590335 C8.24656824,0.13815856 7.91668114,0 7.5326187,0 C7.15571366,0 6.82967175,0.13815856 6.55430264,0.414590335 L5.73915982,1.23291706 C5.46375263,1.49482594 5.32608711,1.82216427 5.32608711,2.21500849 C5.32608711,2.60777627 5.46375263,2.9351146 5.73915982,3.19709992 L8.92393133,6.40501557 L1.27165479,6.40501557 C0.894940097,6.40501557 0.58877137,6.54137788 0.353262822,6.81421715 C0.117754274,7.08705642 0,7.41622922 0,7.80165912 L0,9.1983791 C0,9.58392365 0.117792345,9.9129818 0.353262822,10.1858211 C0.588733299,10.4586603 0.894940097,10.594908 1.27165479,10.594908 L8.92377904,10.594908 L5.7390456,13.7921608 C5.46363842,14.0684015 5.3259729,14.399447 5.3259729,14.7851062 C5.3259729,15.1706889 5.46363842,15.5016962 5.7390456,15.7779369 L6.55418843,16.5962636 C6.83690529,16.8654339 7.16294719,17 7.53250449,17 C7.90937147,17 8.23918242,16.8654339 8.52163278,16.5962636 L15.5977015,9.49288805 C15.865837,9.22371773 16,8.89282511 16,8.49994267 C16,8.09991345 15.865837,7.77242224 15.5978157,7.5179659 Z" id="Shape"></path>
                    </g>
                </g>
            </g>
        </g>
    </g>
</svg>