<?xml version="1.0" encoding="UTF-8"?>
<svg width="140px" height="60px" viewBox="0 0 140 60" version="1.1" xmlns="http://www.w3.org/2000/svg" xmlns:xlink="http://www.w3.org/1999/xlink">
    <!-- Generator: Sketch 49.1 (51147) - http://www.bohemiancoding.com/sketch -->
    <title>bombo_outline2</title>
    <desc>Created with Sketch.</desc>
    <defs></defs>
    <g id="Page-1" stroke="none" stroke-width="1" fill="none" fill-rule="evenodd">
        <g id="LandingV2" transform="translate(-69.000000, -57.000000)" fill="#FFFFFF" fill-rule="nonzero">
            <g id="inner_toolbar" transform="translate(69.000000, 57.000000)">
                <g id="bombo_outline2">
                    <path d="M35.8050416,11.7900496 C38.2174297,9.73244929 40.4010569,8.41558512 42.355923,7.83945705 C45.842118,6.81202367 49.6118763,7.53785 51.2152102,8.82710518 C53.8355627,10.9341542 54.4178633,13.5678826 52.9621119,16.7282902 C54.1683059,16.4813782 55.2497213,16.3784982 56.2063579,16.4196502 C57.1629946,16.4608022 58.2444099,16.7282902 59.4506039,17.2221142 C60.3240548,15.9052501 62.0293635,15.28797 64.5665303,15.3702741 C67.1036971,15.4525781 68.5178555,16.0287061 68.8090058,17.0986583 C70.2647572,16.7282902 71.4709513,16.6254102 72.427588,16.7900182 C73.3842246,16.9546263 74.1536931,17.2632664 74.7359937,17.7159384 C75.4430729,17.3455704 76.274931,17.0780823 77.2315677,16.9134743 C78.1882041,16.7488662 79.2072302,16.6871382 80.2886456,16.7282902 C80.5623884,14.6402364 80.8327423,13.0764601 81.0997071,12.0369616 C81.5001542,10.4777138 82.0979366,9.38265725 82.2227153,9.19747322 C82.3474939,9.01228919 85.0926251,7.71600102 87.9001458,7.96291306 C89.7718261,8.12752108 91.0820025,8.64192115 91.8306746,9.50611326 C93.0767443,8.29494517 94.0333809,7.43075305 94.7005845,6.91353692 C95.3677881,6.39632078 96.428407,5.6967367 97.8824412,4.81478464 C98.0072199,3.7448325 98.6519098,2.94236839 99.8165109,2.40739232 C100.981112,1.87241625 101.979342,1.83126425 102.811199,2.28393631 C106.305003,0.761312101 109.653231,0 112.855884,0 C116.058537,0 118.762076,0.679008091 120.966499,2.03702427 C122.380658,1.79011224 123.566055,2.2222083 124.522692,3.33331244 C125.479329,4.44441658 125.874461,5.43206472 125.70809,6.29625684 C130.782423,10.8641294 134.068262,13.9505299 135.565606,15.5554581 C137.811623,17.9628503 138.435516,19.0122265 138.747463,19.6295067 C138.895302,19.9220513 140.322517,23.1249617 139.932861,27.9010596 C139.500328,33.2027029 137.013397,40.4843753 129.201893,48.7651264 C122.453207,55.9192148 113.61255,59.9414952 106.55456,59.999624 C103.259748,60.0267596 99.8165109,58.5798798 98.5063347,57.3453197 C97.6328837,56.5222796 93.5359834,52.7568711 86.2156334,46.0490941 C85.2174039,45.8844862 84.3855459,45.4523901 83.7200596,44.752806 C83.0545733,44.0532219 82.6594407,43.2096058 82.5346619,42.2219576 C81.8364073,41.1397824 81.358089,40.2755901 81.0997071,39.6293812 C80.8413251,38.9831723 80.5709712,37.9749483 80.2886456,36.6047088 C79.0863114,36.6296115 78.1920642,36.5678833 77.6059037,36.4195249 C77.0197431,36.2711662 76.1254959,35.8802222 74.9231617,35.2466927 C73.8001535,36.0285808 72.6355524,36.4195249 71.4293585,36.4195249 C70.2231643,36.4195249 68.7674129,36.0285808 67.0621041,35.2466927 C65.897503,35.8639727 64.7121055,36.1726128 63.5059114,36.1726128 C62.2997174,36.1726128 60.843966,35.8433967 59.1386571,35.1849647 C57.6413129,36.4195249 56.0399863,37.119109 54.3346775,37.2837169 C52.6293688,37.4483251 50.7576883,37.077957 48.7196364,36.1726128 C47.2638849,37.695237 45.4961869,38.8474931 43.416542,39.6293812 C41.3368971,40.4112693 39.1116771,40.5553014 36.7408819,40.0614773 C35.8396383,42.3329813 34.8622052,44.0819414 33.8085826,45.308358 C33.3898367,45.7957783 33.9333614,47.2836542 32.6231851,48.7651264 C31.3130087,50.2465987 29.6284964,50.6786947 28.3183202,50.6169667 C27.0081439,50.5552387 26.3825595,49.988807 25.6979677,49.1972225 C25.2415731,48.6694996 24.1185648,46.9616914 22.328943,44.0737979 C20.5001116,43.9746976 19.0859532,43.7689377 18.0864673,43.4565177 C16.4767913,42.9533642 14.9853609,42.2275887 13.8439918,40.8639415 C12.0049906,38.6668003 11.7547242,35.8427956 13.157709,32.9010284 C13.3435643,32.5113286 13.4891394,32.1203845 13.5944344,31.7281963 L9.78868433,26.4195876 C9.20638377,26.6253475 8.35372937,26.6047715 7.23072113,26.3578594 C6.10771291,26.1109475 5.23426205,25.5965473 4.6103686,24.8146592 C2.15638764,21.4401949 0.804618481,19.4648985 0.555061096,18.8887705 C0.180725018,18.0245785 -0.131221713,16.9134743 0.055946326,15.6171861 C0.180725018,14.752994 0.763025583,13.8476499 1.80284801,12.9011537 C4.94676273,10.6232284 6.88083246,9.30636426 7.60505722,8.95056119 C8.69139436,8.41685658 9.16479086,8.2715531 10.8493032,8.45673713 C11.9723115,8.58019314 12.8873552,9.09459322 13.5944344,9.99993732 C16.0484154,13.4155538 17.3793881,15.28797 17.5873526,15.6171861 C17.8992993,16.1110101 18.5855821,17.2221142 18.3360248,18.8887705 C18.1696532,19.9998747 17.6913349,20.9052188 16.9010698,21.6048029 L21.455492,28.1479717 L23.077615,28.2714277 C21.2475276,27.1603237 20.1037229,25.6582755 19.646201,23.7652832 C19.3550615,22.5606966 19.40103,20.8000397 20.4572625,19.0122265 C21.0608859,17.9905143 22.3913323,16.6048342 23.264783,15.9258261 C24.138234,15.246818 26.321861,13.6418898 29.0046029,12.9011537 C30.7930975,12.4073297 33.0599104,12.0369616 35.8050416,11.7900496 Z M91.2846513,13.051947 C91.1182986,11.7749903 90.3489182,10.868763 88.9765099,10.333265 C86.9178975,9.53001808 84.235463,10.333265 83.7364055,11.0747237 C83.2373479,11.8161825 82.9173382,13.666949 82.6135259,15.2145349 C82.4109844,16.2462589 82.1406617,17.8733488 81.8025573,20.0958049 C81.3450879,19.2719617 80.3261787,18.8600403 78.7458298,18.8600403 C77.1654808,18.8600403 75.5435438,19.33375 73.8800185,20.2811695 C73.8384304,19.4161344 73.0690499,18.9424246 71.5718772,18.8600403 C70.0747044,18.7776561 68.3903852,19.33375 66.5189194,20.5283224 C67.2259175,19.2101736 67.3090937,18.3863305 66.7684481,18.0567934 C65.9574795,17.5624876 65.0217466,17.3771229 63.6493382,17.5006993 C62.7343994,17.5830836 61.9442248,17.7890444 61.2788148,18.1185815 C61.0232749,18.5593192 60.8361284,19.0330289 60.7173751,19.5397107 C60.5986218,20.0463926 60.5154456,20.726063 60.4678462,21.5787222 C60.2183176,20.136997 59.1370261,19.1895775 57.2239721,18.7364639 C55.3109181,18.2833502 52.7116599,18.8806363 49.4261976,20.5283224 C49.5509619,19.869248 49.5301679,19.2101736 49.3638153,18.5510992 C49.1974628,17.8920247 48.9063458,17.2741425 48.4904645,16.6974524 C48.9543283,16.727862 49.3078273,16.7072659 49.5509619,16.6356641 C50.4640594,16.3667621 51.2114542,15.7003478 51.3600456,14.9055938 C51.6719567,13.2373117 51.1105168,12.1251236 50.5490771,11.3836649 C49.9876373,10.6422061 48.4280823,8.85034758 44.0613287,9.65359452 C41.1501595,10.1890925 38.7172539,11.5690295 36.7626116,13.7934057 C33.5254745,14.1589579 31.2589214,14.5296873 29.9629523,14.9055938 C25.1233261,16.3093672 22.3546208,18.62789 21.7908846,21.3315693 C21.4303041,23.0609139 21.8532667,25.1006512 24.0366436,26.4599921 C25.4922282,27.3662195 27.634017,27.4280077 30.4620098,26.6453568 C29.9629523,27.7163528 29.4431006,28.6431762 28.902455,29.425827 C28.3618093,30.2084779 27.7171932,30.9705328 26.9686069,31.7119914 C25.7410672,31.2020678 24.8261284,30.8725305 24.2237902,30.7233799 C23.6214521,30.5742291 22.7065132,30.4506525 21.4789735,30.3526504 L15.240754,21.5787222 C15.9061641,21.2079929 16.3844276,20.5901107 16.6755445,19.7250754 C17.1122199,18.4275227 16.8003089,17.438911 16.5507801,17.0063934 C16.3012513,16.5738759 12.6830839,11.4454531 12.4335552,11.1983002 C12.1840264,10.9511473 11.43544,10.0861121 10.1877961,9.96253566 C8.94015215,9.8389592 8.55486802,10.0251823 7.75489043,10.4568415 C6.95491282,10.8885006 3.2633723,13.4226763 2.70193252,14.0405586 C2.14049277,14.6584409 1.80067575,15.0411924 1.64143519,15.9559936 C1.48219463,16.870795 1.52780596,17.34383 2.20287496,18.5510992 C2.87794396,19.7583683 5.07245599,22.9380632 5.82104235,23.8030985 C6.56962869,24.6681336 7.61058592,25.2860158 8.44109459,25.2860158 C8.99476702,25.2860158 9.72255931,25.1212473 10.6244714,24.79171 L15.9269581,32.4534501 C14.0970804,35.0073635 13.8683457,37.2729318 15.240754,39.250155 C16.6131623,41.2273783 19.046068,42.0924135 22.539471,41.8452605 C25.3751261,46.0382396 27.0802395,48.3861921 27.654811,48.8891185 C28.5166684,49.6435077 30.1053752,49.0746009 30.7115387,48.6419656 C31.3177021,48.2093303 32.2811108,47.2915094 31.8968005,45.8614954 C31.6405934,44.9081526 30.4137435,43.0133137 28.2162507,40.1769784 C28.6321321,39.8474413 29.0272193,39.5385001 29.4015125,39.250155 C29.9629523,38.8176374 30.0685947,38.5640922 31.0234497,39.0647903 C31.6600195,39.3985892 32.5333703,40.2842204 33.6435018,41.7216842 C34.0600271,41.0745222 34.3303498,40.4978322 34.4544704,39.9916137 C34.578591,39.4853955 34.6409731,38.6409564 34.6416171,37.4582964 C37.3864337,38.5704845 39.9441036,38.7352532 42.3146272,37.9526023 C44.6851506,37.1699515 46.5982046,35.687034 48.0537891,33.5038499 C50.4243127,34.9867674 52.5453073,35.5222654 54.4167733,35.110344 C56.2882391,34.6984223 57.9933525,33.6480225 59.5321133,31.9591443 C59.5321133,32.8653716 59.9272006,33.4420618 60.7173751,33.6892147 C61.9026367,34.059944 63.0878985,34.1835206 63.7741026,34.1835206 C64.4603068,34.1835206 64.9593644,34.059944 65.6455686,33.6274265 C66.1030381,33.3390814 66.2901846,32.8859677 66.2070083,32.2680855 C67.9537099,33.6274265 69.5132647,34.3688852 70.885673,34.4924616 C72.2580813,34.6160381 73.5057253,33.9775597 74.6286049,32.5770267 C75.8656063,33.4139155 76.7597512,33.9494135 77.3110393,34.1835206 C77.9874467,34.4707598 78.8581811,34.6407586 79.3072695,34.6778262 C80.3053846,34.7602106 81.2203235,34.4512694 82.0520862,33.7510028 C82.1245832,35.3633099 82.3117297,36.6402667 82.6135259,37.581873 C82.9153221,38.5234793 83.5599382,39.8416281 84.5473741,41.5363195 C84.2562571,42.3601625 84.3394333,43.0192369 84.7969028,43.5135427 C85.2543722,44.0078485 85.9613705,44.1932132 86.9178975,44.0696368 L98.8328969,55.1915175 C102.659005,58.9811955 108.522931,59.1871562 116.424676,55.8093997 C128.277294,50.7427653 136.199832,37.6436611 137.82177,30.229074 C138.903061,25.2860158 137.780181,21.0020322 134.453131,17.3771229 L123.286718,6.87312432 C123.661011,6.21404991 123.557041,5.55497548 122.974807,4.89590107 C122.392573,4.23682666 121.602399,4.09265413 120.604283,4.46338349 C119.023934,2.89808175 116.591029,2.11543088 113.305567,2.11543088 C110.020104,2.11543088 106.422731,2.98046604 102.513447,4.71053639 C101.76486,4.17503842 101.09945,4.09265413 100.517216,4.46338349 C99.9349825,4.83411285 99.7478358,5.3696108 99.9557765,6.06987738 C97.3741216,7.71057653 95.6690084,8.86395676 94.8404363,9.53001808 C94.0118644,10.1960794 92.8266028,11.3700557 91.2846513,13.051947 Z" id="bottom"></path>
                    <path d="M27.7149912,33.3738818 C29.4567981,30.9590396 30.6669196,29.0993425 31.3453557,27.7947906 C32.0237918,26.4902385 33.4216906,23.335022 35.5390525,18.3291412 C33.1188096,18.9142145 31.7835031,19.7500335 31.5331331,20.836598 C31.4139984,21.3536232 31.6564074,21.4802387 31.7788876,21.588835 C32.0425086,21.8225727 32.534613,21.7142079 32.7849829,22.2156992 C33.0353528,22.7171906 31.5957256,24.5977831 30.3438759,25.1619609 C29.092026,25.7261386 24.6479591,27.5440448 23.6464792,22.5291313 C23.2498806,20.5431622 25.6676667,17.6418607 28.966841,16.2604894 C30.4700504,15.6310925 33.2658483,15.2340786 37.3542347,15.0694475 C40.3586742,11.600799 43.0918797,10.1381159 45.553851,10.6813982 C47.0787859,11.017905 47.7070578,11.622009 47.8071806,12.3112451 C47.848196,12.5935913 47.6812827,13.0323962 47.3064408,13.6276598 C46.1380476,14.8395973 45.2826168,15.1530294 44.7401486,14.5679561 C43.9264462,13.6903463 44.8027411,13.5649734 43.5508914,13.6276598 C42.7163249,13.6694508 41.7774375,14.254524 40.7342293,15.3828796 C43.5717555,15.8843709 45.3452093,16.8873536 46.054591,18.3918277 C46.7639726,19.8963016 46.576195,21.233612 45.4912585,22.4037584 C45.0350424,22.843178 44.6803514,23.1357146 44.4271862,23.2813683 C44.1740209,23.4270219 43.5480959,23.698663 42.5494115,24.0962917 C44.0516312,24.4724104 45.0113828,25.078379 45.4286661,25.914198 C46.054591,27.1679264 46.6179233,30.6156793 44.5523712,33.1858225 C42.486819,35.7559656 40.9220067,36.4455163 39.8579344,36.570889 C38.7938621,36.696262 35.5390525,36.8843212 34.7879426,34.0634323 C34.0368328,31.2425435 36.0397925,29.0485189 36.4779398,28.7977732 C36.9160874,28.5470275 37.4794197,28.3589683 37.6046046,28.5470275 C37.7297898,28.7350868 37.6671971,30.4903066 38.7312696,29.9888151 C39.7953419,29.4873237 40.0457118,28.2335953 40.0457118,28.1082226 C40.0457118,27.9828498 40.1708968,26.22763 38.7938621,25.914198 C37.8758388,25.7052432 37.0830007,25.6007658 36.4153474,25.6007658 C33.7447345,32.2037353 32.2425147,35.5261154 31.908688,35.5679064 C31.4079482,35.6305928 34.1447054,37.7210276 33.5360928,39.9559557 C32.409428,38.952973 32.2842431,38.7022273 30.2186907,37.5111854 C29.3423959,38.0126766 28.966841,38.3261088 26.3379564,40.1440149 C24.169578,41.380639 21.7690813,41.4137045 19.8283373,40.7081926 C17.7355271,39.9474007 16.5504908,38.563236 16.3231579,38.0753631 C15.8850105,37.1350669 15.1339006,35.9440248 16.7613053,33.3738818 C17.8879701,34.9619377 18.6599442,36.0276069 19.0772274,36.570889 C19.5779674,38.6186455 21.2471004,39.0574504 24.0846268,37.8873039 C25.3364765,37.2604397 25.7120316,36.4455163 25.9624015,35.8186521 C25.127835,35.7350702 23.9177134,34.2932826 22.332037,31.4932892 C23.4102117,31.7611102 24.2239141,31.9909604 24.7731442,32.1828397 C25.3223742,32.3747192 26.3029899,32.7717332 27.7149912,33.3738818 Z M54.1916147,19.7709289 C55.6530347,19.7709289 53.9412448,21.0873437 53.3153198,22.2783856 C52.689395,23.4694275 52.6381687,23.8322992 52.4390249,24.5350967 C52.2398813,25.2378942 52.1260625,25.6007658 52.0008776,26.7918077 C51.8756926,27.9828498 51.8756926,28.609714 52.2512475,29.6126967 C52.6268025,30.6156793 53.5030974,30.866425 54.0038372,30.8037386 C54.5045772,30.7410521 55.2263994,30.4850192 55.756427,29.9888151 C56.1097788,29.6580123 56.4853337,29.0102528 56.8830918,28.0455361 C55.7231471,27.9831814 54.9511729,27.7742266 54.5671697,27.4186719 C53.9911647,26.88534 53.5030974,26.2903165 53.5656899,24.9739016 C53.6282824,23.6574868 53.8009594,23.2783608 54.0038372,22.7171906 C54.206715,22.1560204 54.6297622,21.4007757 54.8801321,21.0873437 C55.130502,20.7739115 55.631242,20.2724203 56.6327219,20.3977931 C57.6342017,20.5231658 58.2351518,20.8481971 58.8860515,21.5261487 C59.5369513,22.2041003 59.6997539,22.5918178 60.0127164,23.6574868 C60.221358,24.367933 60.221358,25.1828564 60.0127164,26.1022572 C60.5978672,25.9018319 60.9316939,25.6719816 61.0141963,25.4127066 C61.1379497,25.0237939 61.5775286,21.6515214 61.8278987,20.3977931 C62.0782686,19.1440647 62.391231,18.7052597 62.7041935,18.454514 C63.0171559,18.2037685 65.5834481,17.8903363 65.8964105,18.9560054 C65.9772,19.2311021 65.9863517,19.8098621 65.833818,20.5231658 C65.7017575,21.1407296 65.4357492,21.8445374 65.1453006,22.7171906 C64.9886426,23.1878699 64.8008652,23.9192114 64.5819683,24.9112151 C64.8541854,24.3826176 65.1671479,23.8602308 65.5208556,23.3440548 C66.051417,22.5697907 66.4537799,22.0054292 66.7727054,21.7142079 C67.0916308,21.4229865 67.3360378,21.15003 68.0871476,20.7112252 C68.8382575,20.2724203 69.1512201,20.0216746 70.3404774,19.8963016 C71.5297346,19.7709289 71.9678822,20.1470473 72.0930671,20.2724203 C72.2182521,20.3977931 72.644937,20.933601 72.6563994,21.748664 C72.6640412,22.2920395 72.4971279,23.2835367 72.1556596,24.7231559 C73.0319545,23.1768909 73.6578793,22.2365947 74.0334343,21.9022671 C74.5967666,21.4007757 75.2700541,20.7999089 75.8486165,20.5231658 C76.4271789,20.2464229 77.0731559,19.8963016 78.2271311,19.8963016 C79.3811064,19.8963016 79.8027922,20.187889 80.1049058,20.5231658 C80.4070196,20.8584428 80.6352657,21.4967627 80.5430533,22.4664449 C80.450841,23.4361271 79.8045518,24.6480811 79.604166,25.788825 C79.4037802,26.929569 79.3537961,28.609714 79.4163885,29.2992645 C79.478981,29.9888151 79.6058754,30.1693751 79.7919434,30.4903066 C79.9780114,30.8112378 80.2300909,31.179857 80.5430533,31.2425435 C80.8560157,31.30523 80.9220747,31.3081166 81.2315708,31.179857 C81.4379014,31.0943508 81.8134563,30.8645006 82.3582356,30.4903066 C82.1078656,29.7380694 82.0244089,28.5052366 82.1078656,26.7918077 C82.2330506,24.2216647 82.8287398,20.6118845 83.2345304,18.579887 C83.640321,16.5478893 84.6115651,11.8724401 85.1123052,11.3082624 C85.613045,10.7440846 86.8648949,10.5560253 87.7411898,10.5560253 C88.6174847,10.5560253 88.918282,10.7451383 89.1182245,11.0575167 C89.3181671,11.3698951 89.6696455,11.8912958 89.4311871,12.8754228 C89.0715552,14.3596362 87.7447605,17.4182318 87.2404498,18.579887 C86.4058833,20.5022704 85.9051433,22.0485355 85.7382301,23.218682 C86.8545533,21.9196639 87.6682557,21.1047405 88.1793371,20.7739115 C88.9459593,20.2776683 89.8067419,19.8963016 90.9959992,19.8963016 C92.1852567,19.8963016 92.5436,19.915472 93.0615514,20.1470473 C93.5795029,20.3786227 94.290596,20.8717795 94.5011787,21.588835 C94.7117615,22.3058906 94.9393262,23.532114 94.6263637,25.475393 C94.3134013,27.4186719 94.0004389,27.9201633 93.5622914,28.7350868 C93.124144,29.5500102 91.9348866,30.866425 90.9959992,31.4932892 C90.0571119,32.1201534 88.4922997,32.6843311 87.2404498,32.8097039 C85.9886,32.9350768 85.8008226,32.9350768 84.6115651,32.6843311 C83.818727,32.5171674 83.2136662,32.1201534 82.7963829,31.4932892 C82.2834281,32.0131473 81.8035524,32.3683704 81.3567557,32.5589584 C80.6865606,32.8448401 80.6056458,32.8723904 79.4163885,32.9350768 C78.2271311,32.9977633 77.0333275,32.577163 76.4119489,32.1201534 C75.7905704,31.6631438 75.3478765,30.9291113 75.2226916,29.9888151 C75.0975066,29.0485189 75.4490585,25.6412601 75.410469,24.5977831 C75.3718797,23.5543062 75.2226916,23.4067412 74.9723217,23.3440548 C74.7219517,23.2813683 74.3528654,23.4483968 74.0960268,23.7201732 C73.3977314,24.4590817 72.9310654,25.4634638 72.6563994,26.0395708 C72.0928642,27.2215762 71.6549196,29.4246374 71.6549196,30.1768744 C71.6549196,30.9291113 71.8426972,31.8067212 71.8426972,31.9947805 C71.8426972,32.1828397 71.4957025,32.3414862 71.2793647,32.4335854 C70.6904031,32.6843179 70.0961136,32.6948047 69.7771449,32.6843311 C69.1229461,32.6628498 68.4627026,32.4962719 68.1497402,32.1201534 C67.8367777,31.7440349 67.7741852,31.5404448 67.7741852,30.6156793 C67.7741852,29.6909138 67.9477944,29.0176922 68.0245551,27.4186719 C68.101316,25.8196516 68.1729509,24.7360074 68.0871476,24.0962917 C68.0013445,23.456576 67.7115927,23.218682 67.4612228,23.218682 C67.2108527,23.218682 66.8647522,23.4647663 66.6475204,23.6574868 C66.013808,24.2196947 65.6459662,24.9499462 65.333078,25.6007658 C64.7028624,26.9116393 64.2064132,29.5500102 64.2064132,29.9888151 C64.2064132,30.4276201 64.2320557,30.8110703 64.2690057,31.1171707 C64.3458521,31.7537786 64.4505487,32.1044197 64.3941906,32.2455262 C64.2690057,32.5589584 63.3743187,32.8908262 62.766786,32.9350768 C62.1592532,32.9793273 61.2019737,32.7470176 60.9516038,32.3708991 C60.7012337,31.9947805 60.7012337,31.4875032 60.7012337,30.7410521 C60.7012337,30.2434182 60.7846904,28.9270033 60.9516038,26.7918077 L59.5745689,27.5440448 C58.9645622,28.743881 58.4638222,29.5796999 58.0723492,30.0515016 C57.4851395,30.759204 56.1319819,31.8067212 55.8190195,31.9947805 C55.5060571,32.1828397 54.4891869,32.6305327 53.6908748,32.7470176 C52.8925628,32.8635025 52.1163574,32.9752686 51.0932864,32.6843311 C50.0702155,32.3933936 49.2409687,31.9856476 48.620883,31.30523 C48.0007975,30.6248122 47.672132,29.9675032 47.4942182,28.7350868 C47.3163045,27.5026703 47.4369808,26.9477461 47.6819957,25.9768843 C47.9270107,25.0060225 48.3079206,23.970919 48.9338456,23.0306226 C49.5597704,22.0903264 50.3909268,21.3614914 51.0619902,20.8992845 C52.4293918,19.9574619 53.6282824,19.7709289 54.1916147,19.7709289 Z M95.0645112,26.4783757 C95.2588883,25.4401422 96.113321,22.9991619 97.8185808,21.5261487 C99.4080446,20.1531605 100.510058,19.8963016 101.010798,19.8336153 C101.38814,19.7863768 102.301421,19.6056372 102.262647,20.0216746 C102.249968,20.1577264 102.164738,20.6357757 101.887093,20.836598 C100.760428,21.6515214 99.9467254,24.1589782 99.8215405,24.7858424 C99.6963555,25.4127066 98.6948757,30.1768744 100.82302,30.7410521 C102.241783,31.1171707 103.431041,30.2395608 104.390792,28.1082226 C102.429561,27.9410589 101.365489,27.2097173 101.198575,25.914198 C100.948205,23.970919 101.636723,22.5918178 102.32524,21.3380894 C103.013757,20.084361 104.82894,19.8963016 106.393752,21.5261487 C107.43696,22.6127132 107.791651,24.1589782 107.457824,26.1649435 C108.129245,25.7822919 108.588257,25.5315462 108.834859,25.4127066 C109.450152,25.116192 109.35622,24.9528845 109.648561,25.0992744 C110.024116,25.2873338 109.986657,25.4221098 109.898931,25.6007658 C109.652036,26.1035768 108.652491,26.8040078 107.082269,27.5440448 C106.957084,28.1082226 105.58005,30.4276201 103.57709,31.8694077 C101.57413,33.3111953 98.4445056,33.1231361 96.7545083,31.8694077 C95.0645112,30.6156793 94.6889562,28.484341 95.0645112,26.4783757 Z M84.7993428,33.9380595 C86.5519323,34.5649237 88.2419296,34.7738785 89.8693344,34.5649237 C91.4967392,34.3559689 93.3745139,33.7082093 95.5026586,32.6216447 C98.8330515,34.7529829 101.793794,35.2962653 104.384887,34.2514917 C106.97598,33.2067179 108.93918,31.0962752 110.274486,27.9201633 C112.011228,26.3388908 112.991843,25.41949 113.216333,25.1619609 C113.553069,24.7756673 113.801816,24.3971915 113.654481,23.970919 C113.507146,23.5446464 112.970514,23.6269305 112.465224,23.5948005 C111.959933,23.5626704 109.773747,24.0962917 109.773747,23.5948005 C109.773747,23.0933091 108.772267,18.9560054 104.703755,18.454514 C101.991413,18.1201865 99.4042572,19.0186919 96.9422859,21.15003 C96.6919158,20.2306294 96.1703119,19.5201832 95.3774736,19.0186919 C94.5846353,18.5172005 92.8946382,18.4127231 90.3074819,18.7052597 C91.0625398,17.2767388 91.6884646,16.2528606 92.1852567,15.6336253 C94.2374507,13.0756302 96.4429604,11.2663772 97.8185808,10.2425932 C104.641162,5.16499333 108.459304,4.28738346 112.465224,4.03663779 C116.901146,3.75897661 120.172018,5.01996089 122.605207,9.17692412 C124.02397,11.600799 124.336933,15.090343 123.544094,19.6455561 C122.709528,19.6455561 122.146195,20.084361 121.854097,20.9619708 C121.705202,21.4093275 121.854097,22.2156992 122.605207,22.779877 C121.937554,25.2873338 119.705088,28.9022506 115.90781,33.6246275 C115.365342,33.5828364 114.927195,33.7291047 114.593368,34.0634323 C114.259542,34.3977598 114.155221,34.7947739 114.280406,35.2544744 C111.651521,38.1798405 108.208934,40.5828199 103.952645,42.4634124 C102.450425,41.9201301 101.469809,42.2544577 101.010798,43.4663951 C99.0078381,44.5947507 96.0033986,44.78281 91.997479,44.030573 C89.230088,43.5109084 86.7844334,41.3388113 85.5504525,38.3261088 C85.1822791,37.4272317 84.931909,35.9645485 84.7993428,33.9380595 Z M118.724473,35.3798471 C120.018051,34.0634323 121.102987,32.652988 121.979282,31.1485139 C122.855577,29.6440398 123.919649,27.6485222 125.171499,25.1619609 L131.368156,37.1350669 L118.724473,35.3798471 Z M105.955541,45.0963705 C107.590924,44.4918682 109.322674,43.5306489 111.150792,42.2127126 C112.978911,40.8947762 114.59775,39.5276874 116.007311,38.1114462 L118.812666,50.4320325 L105.955541,45.0963705 Z M94.1882338,46.9769643 C95.5235497,46.9351441 96.9631874,46.8724263 98.5071471,46.7888108 C100.051107,46.7051955 101.323832,46.5380048 102.325324,46.2872385 C102.621348,47.9063159 102.87169,49.2436121 103.076351,50.2991275 C103.281011,51.3546427 103.531353,52.7128343 103.827376,54.3737025 C101.951977,53.0352869 100.485083,51.9696567 99.4266936,51.1768122 C98.3683037,50.3839677 96.6221505,48.9840183 94.1882338,46.9769643 Z M86.6771175,43.5917681 C86.1931532,43.5917681 85.8008226,43.1988487 85.8008226,42.7141582 C85.8008226,42.2294676 86.1931532,41.8365483 86.6771175,41.8365483 C87.1610818,41.8365483 87.5534123,42.2294676 87.5534123,42.7141582 C87.5534123,43.1988487 87.1610818,43.5917681 86.6771175,43.5917681 Z M102.700795,44.8454964 C102.216831,44.8454964 101.8245,44.4525771 101.8245,43.9678865 C101.8245,43.483196 102.216831,43.0902766 102.700795,43.0902766 C103.184759,43.0902766 103.57709,43.483196 103.57709,43.9678865 C103.57709,44.4525771 103.184759,44.8454964 102.700795,44.8454964 Z M115.845218,36.0693978 C115.361254,36.0693978 114.968923,35.6764785 114.968923,35.1917879 C114.968923,34.7070973 115.361254,34.314178 115.845218,34.314178 C116.329182,34.314178 116.721513,34.7070973 116.721513,35.1917879 C116.721513,35.6764785 116.329182,36.0693978 115.845218,36.0693978 Z M123.606687,22.2783856 C123.122723,22.2783856 122.730392,21.8854663 122.730392,21.4007757 C122.730392,20.9160851 123.122723,20.5231658 123.606687,20.5231658 C124.090651,20.5231658 124.482982,20.9160851 124.482982,21.4007757 C124.482982,21.8854663 124.090651,22.2783856 123.606687,22.2783856 Z M122.354837,6.35603529 C121.870873,6.35603529 121.478542,5.96311597 121.478542,5.47842542 C121.478542,4.99373488 121.870873,4.60081556 122.354837,4.60081556 C122.838801,4.60081556 123.231132,4.99373488 123.231132,5.47842542 C123.231132,5.96311597 122.838801,6.35603529 122.354837,6.35603529 Z M126.172979,21.4634622 C126.569731,19.1390644 126.799237,17.5092174 126.861496,16.5739215 C126.923756,15.6386256 126.882028,14.4475837 126.736311,13.0007957 L134.310003,22.4037584 L126.172979,21.4634622 Z M131.493341,16.8246672 L134.873335,20.2097338 C135.003961,20.4511869 135.087417,20.6183506 135.123705,20.7112252 C135.159993,20.8040997 135.264314,21.1175317 135.436668,21.6515214 L131.493341,16.8246672 Z M126.736311,22.9052498 L135.937408,23.970919 C136.020864,25.0574835 136.020864,26.0395708 135.937408,26.9171807 C135.853951,27.7947906 135.603581,28.9649369 135.186298,30.4276201 L126.736311,22.9052498 Z M117.41003,38.3887953 L125.421869,46.6634025 C124.294005,47.8616293 123.41771,48.7392392 122.792985,49.2962321 C122.168259,49.8532249 121.333692,50.5009846 120.289285,51.2395111 L117.41003,38.3887953 Z M103.82746,46.9768345 L111.901891,55.2514419 C110.460474,55.6324655 109.375537,55.8623157 108.647082,55.9409924 C107.918626,56.0196692 106.875418,56.0196692 105.517457,55.9409924 L103.82746,46.9768345 Z M126.861496,25.6007658 L134.622965,32.6216447 C134.622965,33.0395542 134.476916,33.6455229 134.184818,34.4395509 C133.89272,35.2335788 133.454572,36.1529796 132.870376,37.1977532 L126.861496,25.6007658 Z M118.974843,36.8216347 L132.056673,38.7022273 C131.472477,39.8305829 130.721367,40.9798339 129.803343,42.1499804 C128.88532,43.3201268 127.988161,44.1977367 127.111866,44.78281 L118.974843,36.8216347 Z M106.205975,46.6007161 L118.974843,52.0544345 C117.959644,52.7045863 117.166805,53.1642866 116.596328,53.4335357 C116.025851,53.7027847 115.003507,54.0997988 113.529296,54.6245777 L106.205975,46.6007161 Z M97.5056182,51.1141382 L103.639682,55.7529332 C103.221834,55.7214486 102.908871,55.6796576 102.700795,55.6275604 C102.492719,55.5754632 102.221484,55.4709858 101.887093,55.3141282 L97.5056182,51.1141382 Z M12.0733436,24.1372633 L14.5144507,22.5074164 L24.0846268,36.5082027 C23.9594418,36.6335755 23.6256151,36.8216347 23.0831469,37.0723805 C22.2694445,37.4484989 21.831297,37.6992446 21.2679647,37.3231262 C20.8924097,37.0723805 17.8275361,32.6770929 12.0733436,24.1372633 Z M5.26033178,20.4855922 C3.27977046,18.2628074 2.60077353,16.6413197 3.22334099,15.6211289 C4.15719217,14.0908428 7.12853685,11.8804296 9.42071702,11.3703342 C10.9488371,11.0302706 12.35784,12.1045155 13.6477255,14.5930688 L5.26033178,20.4855922 Z M6.1831744,21.9022671 L14.5705682,16.0097438 C15.7216944,17.3943078 16.1274664,18.540008 15.7878842,19.4468442 C15.2785108,20.8070985 10.4394638,24.462782 8.91134365,24.1227184 C7.89259691,23.8960094 6.98320716,23.155859 6.1831744,21.9022671 Z M24.5227741,42.087294 C24.9400574,42.0037121 25.3782049,41.8992347 25.8372165,41.7738618 C26.2962282,41.648489 26.7552396,41.4395342 27.2142512,41.1469976 L30.8446157,46.4126568 C31.136714,47.1648938 30.9489366,47.749967 30.2812832,48.1678766 C29.6136301,48.585786 28.9877051,48.4813086 28.4035085,47.8544444 L24.5227741,42.087294 Z M37.5837526,22.9625016 C38.4184799,22.9625016 39.0862618,22.8166408 39.5870982,22.5249196 C40.0879345,22.2331985 40.5470346,21.7539421 40.9643983,21.0871509 C41.2565528,20.462034 41.2565528,19.8369172 40.9643983,19.2118002 C40.6722436,18.5866833 40.1714074,18.2324505 39.4618891,18.1491016 C39.1058511,18.3558895 38.8136966,18.7517967 38.5854253,19.3368236 C38.3571542,19.9218504 38.0232634,21.1304097 37.5837526,22.9625016 Z M86.2274868,30.7764624 C86.9787414,31.0265091 88.7029555,30.4440064 89.8585506,26.2131093 C90.4219916,24.1502236 89.6019621,22.9889463 89.2325051,22.7749664 C88.4563149,22.3254176 86.8213019,24.4424424 86.2274868,25.7130157 C85.7601405,26.7129868 85.2431177,28.1155178 85.2884186,29.1511585 C85.3280754,30.0577634 85.8768148,30.6597451 86.2274868,30.7764624 Z M57.0537672,25.838039 C57.2207126,24.7545031 57.2415808,23.9626886 57.1163717,23.462595 C56.9285581,22.7124547 56.67814,22.5249196 56.5529307,22.5249196 C56.4277217,22.5249196 55.551258,22.462408 55.551258,24.0877119 C55.551258,25.1712478 56.0520945,25.7546901 57.0537672,25.838039 Z M103.88197,22.462408 C103.568947,22.462408 103.318529,22.8999899 103.19332,23.4000833 C103.06811,23.9001767 103.06811,24.0252002 103.06811,24.462782 C103.06811,24.9003637 103.130715,25.1504106 103.506342,25.5254807 C103.75676,25.7755274 104.090651,25.8797135 104.508015,25.838039 C104.716697,25.0878989 104.758433,24.3585959 104.633224,23.65013 C104.445411,22.5874313 104.194992,22.462408 103.88197,22.462408 Z" id="top"></path>
                </g>
            </g>
        </g>
    </g>
</svg>