<?xml version="1.0" encoding="iso-8859-1"?>
<!-- Generator: Adobe Illustrator 19.0.0, SVG Export Plug-In . SVG Version: 6.00 Build 0)  -->
<svg xmlns="http://www.w3.org/2000/svg" xmlns:xlink="http://www.w3.org/1999/xlink" version="1.1" id="Capa_1" x="0px" y="0px" viewBox="0 0 512 512" style="enable-background:new 0 0 512 512;" xml:space="preserve" width="512px" height="512px">
<g>
	<g>
		<path d="M467.478,178.061c-24.565-10.355-56.895-16.058-91.037-16.058c-34.142,0-66.472,5.703-91.037,16.058    c-5.192,2.189-9.955,4.563-14.286,7.097v-69.702v-0.001c0-0.001,0-0.002,0-0.003c0-20.031-15.812-37.73-44.522-49.833    c-24.565-10.355-56.896-16.058-91.037-16.058c-34.142,0-66.473,5.703-91.037,16.058C15.812,77.723,0,95.421,0,115.452    c0,0.001,0,0.002,0,0.003v0.001v281.092c0,20.031,15.812,37.73,44.522,49.832c24.565,10.356,56.895,16.058,91.037,16.058    c34.142,0,66.473-5.703,91.037-16.058c12.213-5.148,22.083-11.312,29.404-18.235c7.32,6.923,17.19,13.086,29.404,18.235    c24.565,10.356,56.896,16.058,91.037,16.058s66.472-5.703,91.037-16.058C496.189,434.278,512,416.58,512,396.549V227.893    C512,207.861,496.189,190.164,467.478,178.061z M240.882,396.549c0,5.073-6.817,13.871-26.031,21.972    c-20.933,8.824-49.092,13.684-79.291,13.684c-30.2,0-58.36-4.86-79.292-13.684c-19.214-8.1-26.031-16.899-26.031-21.972v-13.483    c4.331,2.535,9.094,4.909,14.286,7.097c24.565,10.355,56.895,16.058,91.037,16.058c34.142,0,66.473-5.703,91.037-16.058    c5.192-2.189,9.955-4.563,14.286-7.097V396.549z M240.882,340.33c0,5.074-6.817,13.871-26.031,21.971    c-20.933,8.824-49.092,13.684-79.292,13.684s-58.36-4.86-79.291-13.684c-19.214-8.099-26.031-16.897-26.031-21.971v-13.483    c4.331,2.535,9.094,4.909,14.286,7.097c24.565,10.355,56.895,16.058,91.037,16.058c34.142,0,66.473-5.703,91.037-16.058    c5.192-2.189,9.955-4.563,14.286-7.097V340.33z M240.882,284.112c0,5.074-6.817,13.871-26.031,21.971    c-20.933,8.824-49.092,13.684-79.292,13.684s-58.36-4.86-79.291-13.684c-19.214-8.1-26.031-16.898-26.031-21.971v-13.483    c4.331,2.535,9.094,4.909,14.286,7.097c24.565,10.355,56.895,16.058,91.037,16.058c34.142,0,66.473-5.703,91.037-16.058    c5.192-2.189,9.955-4.563,14.286-7.097V284.112z M240.882,227.894c0,5.074-6.817,13.871-26.031,21.971    c-20.933,8.824-49.092,13.684-79.292,13.684s-58.36-4.86-79.291-13.684c-19.214-8.1-26.031-16.898-26.031-21.972V214.41    c4.331,2.536,9.094,4.909,14.286,7.098c24.565,10.355,56.895,16.058,91.037,16.058c34.142,0,66.473-5.703,91.037-16.058    c5.192-2.189,9.955-4.563,14.286-7.097V227.894z M240.882,171.675c0,5.074-6.817,13.871-26.031,21.971    c-20.933,8.824-49.092,13.684-79.291,13.684c-30.2,0-58.36-4.86-79.292-13.684c-19.214-8.099-26.031-16.897-26.031-21.971v-13.487    c4.331,2.535,9.094,4.909,14.286,7.097c24.565,10.355,56.895,16.058,91.037,16.058c34.142,0,66.473-5.703,91.037-16.058    c5.192-2.189,9.955-4.563,14.286-7.097V171.675z M214.851,137.423c-20.933,8.824-49.092,13.684-79.291,13.684    c-30.2,0-58.36-4.86-79.292-13.684c-19.214-8.099-26.031-16.898-26.031-21.971s6.817-13.871,26.031-21.971    c20.933-8.824,49.092-13.684,79.292-13.684c30.2,0,58.36,4.86,79.291,13.684c19.214,8.099,26.031,16.898,26.031,21.971    S234.065,129.324,214.851,137.423z M481.764,396.549c0,5.073-6.817,13.871-26.03,21.971    c-20.933,8.824-49.093,13.684-79.292,13.684c-30.2,0-58.36-4.86-79.292-13.684c-19.213-8.099-26.03-16.898-26.03-21.971v-13.483    c4.331,2.535,9.094,4.909,14.286,7.097c24.565,10.355,56.895,16.058,91.037,16.058c34.142,0,66.472-5.703,91.037-16.058    c5.192-2.188,9.955-4.563,14.286-7.097V396.549z M481.764,340.33c0,5.074-6.817,13.871-26.03,21.971    c-20.933,8.824-49.093,13.684-79.292,13.684c-30.2,0-58.36-4.86-79.292-13.684c-19.213-8.099-26.03-16.897-26.03-21.971v-13.483    c4.331,2.535,9.094,4.909,14.286,7.097c24.565,10.355,56.895,16.058,91.037,16.058c34.142,0,66.472-5.703,91.037-16.058    c5.192-2.188,9.955-4.563,14.286-7.097V340.33z M481.764,284.112c0,5.074-6.817,13.871-26.03,21.971    c-20.933,8.824-49.093,13.684-79.292,13.684c-30.2,0-58.36-4.86-79.292-13.684c-19.213-8.1-26.03-16.898-26.03-21.971v-13.477    c4.329,2.534,9.096,4.904,14.286,7.091c24.565,10.356,56.895,16.058,91.037,16.058c34.142,0,66.472-5.703,91.037-16.058    c5.189-2.187,9.957-4.558,14.286-7.091V284.112z M455.733,249.864c-20.933,8.824-49.093,13.684-79.292,13.684    c-30.2,0-58.36-4.86-79.292-13.684c-19.213-8.099-26.03-16.897-26.03-21.971c0-5.074,6.817-13.87,26.03-21.971    c20.933-8.824,49.093-13.684,79.292-13.684c30.2,0,58.36,4.86,79.292,13.684c19.213,8.1,26.03,16.898,26.03,21.971    S474.947,241.764,455.733,249.864z" fill="#FFFFFF"/>
	</g>
</g>
<g>
</g>
<g>
</g>
<g>
</g>
<g>
</g>
<g>
</g>
<g>
</g>
<g>
</g>
<g>
</g>
<g>
</g>
<g>
</g>
<g>
</g>
<g>
</g>
<g>
</g>
<g>
</g>
<g>
</g>
</svg>
