<svg xmlns="http://www.w3.org/2000/svg" viewBox="0 0 496.16 496.15"><defs><style>.cls-1{fill:#fafafa;}</style></defs><title>support01</title><g id="Layer_2" data-name="Layer 2"><g id="Layer_1-2" data-name="Layer 1"><path class="cls-1" d="M248.08,0C111.07,0,0,111.06,0,248.08S111.07,496.15,248.08,496.15,496.16,385.08,496.16,248.08,385.09,0,248.08,0Zm20.21,405.62a33.36,33.36,0,0,1-22.85,8.79,34.62,34.62,0,0,1-23.4-8.68q-10-8.69-10-24.28a31.26,31.26,0,0,1,9.67-23.29,32.66,32.66,0,0,1,23.73-9.45,32.28,32.28,0,0,1,32.74,32.74Q278.18,396.83,268.29,405.62Zm82.07-203.47a99.94,99.94,0,0,1-18,24.28q-10.44,10.22-37.46,34.39a150.75,150.75,0,0,0-12,12,48.64,48.64,0,0,0-6.7,9.44,46.56,46.56,0,0,0-3.4,8.57q-1.21,4.29-3.63,15.05Q265,328.72,243,328.72a26.7,26.7,0,0,1-19.22-7.48q-7.8-7.46-7.8-22.19,0-18.45,5.71-32a81.12,81.12,0,0,1,15.16-23.73,350.28,350.28,0,0,1,25.49-24.28q14.06-12.3,20.32-18.56a62.77,62.77,0,0,0,10.55-14,33.69,33.69,0,0,0,4.29-16.7,38.83,38.83,0,0,0-13.08-29.66q-13.06-12.08-33.72-12.08-24.18,0-35.6,12.19t-19.34,35.93q-7.47,24.83-28.34,24.82a27.89,27.89,0,0,1-20.77-8.67q-8.44-8.69-8.45-18.79,0-20.88,13.4-42.3t39.11-35.48q25.71-14.07,60-14.07,31.85,0,56.25,11.76t37.68,32a78.42,78.42,0,0,1,13.29,43.94Q357.94,188.1,350.36,202.15Z"/></g></g></svg>