<svg width="29" height="26" viewBox="0 0 29 26" version="1.1" xmlns="http://www.w3.org/2000/svg" xmlns:xlink="http://www.w3.org/1999/xlink">
<title>Vector</title>
<desc>Created using Figma</desc>
<g id="Canvas" transform="translate(-9623 297)">
<g id="Vector">
<use xlink:href="#path0_fill" transform="translate(9624 -296)" fill="url(#paint0_linear)"/>
<use xlink:href="#path1_stroke" transform="translate(9624 -296)" fill="#445F69"/>
</g>
</g>
<defs>
<linearGradient id="paint0_linear" x1="0" y1="0" x2="1" y2="0" gradientUnits="userSpaceOnUse" gradientTransform="matrix(1.65327e-15 24 12.1095 2.61239e-15 7.44526 -2.04098e-15)">
<stop offset="0" stop-color="#BF2C2C"/>
<stop offset="1" stop-color="#2A77D1"/>
</linearGradient>
<path id="path0_fill" d="M 22.0909 24L 4.75568 24L 4.75568 8.92095L 0 8.92095L 0 3.81352C 0 -0.442666 8.28409 0.0437605 8.28409 0.0437605C 8.89773 5.516 18.2557 5.88081 18.5625 0.0437605C 18.5625 0.0437605 27 -0.685871 27 3.81352L 27 8.92095L 22.0909 8.92095L 22.0909 24Z"/>
<path id="path1_stroke" d="M 4.75568 24L 4.25568 24L 4.25568 24.5L 4.75568 24.5L 4.75568 24ZM 22.0909 24L 22.0909 24.5L 22.5909 24.5L 22.5909 24L 22.0909 24ZM 27 8.92095L 27 9.42095L 27.5 9.42095L 27.5 8.92095L 27 8.92095ZM 18.5625 0.0437605L 18.5194 -0.45438L 18.086 -0.416902L 18.0632 0.0175148L 18.5625 0.0437605ZM 8.28409 0.0437605L 8.78098 -0.0119584L 8.73402 -0.430682L 8.3134 -0.45538L 8.28409 0.0437605ZM 0 8.92095L -0.5 8.92095L -0.5 9.42095L 0 9.42095L 0 8.92095ZM 4.75568 24.5L 22.0909 24.5L 22.0909 23.5L 4.75568 23.5L 4.75568 24.5ZM 22.5909 24L 22.5909 8.92095L 21.5909 8.92095L 21.5909 24L 22.5909 24ZM 22.5909 8.92095L 22.5909 5.516L 21.5909 5.516L 21.5909 8.92095L 22.5909 8.92095ZM 22.0909 9.42095L 27 9.42095L 27 8.42095L 22.0909 8.42095L 22.0909 9.42095ZM 27.5 8.92095L 27.5 3.81352L 26.5 3.81352L 26.5 8.92095L 27.5 8.92095ZM 27.5 3.81352C 27.5 2.50084 26.8716 1.56108 25.972 0.919282C 25.0939 0.29284 23.9556 -0.0551176 22.8699 -0.250709C 21.7763 -0.447735 20.69 -0.497999 19.8821 -0.49994C 19.4768 -0.500913 19.1387 -0.489725 18.9009 -0.478219C 18.7819 -0.472463 18.6879 -0.46662 18.623 -0.462159C 18.5905 -0.459929 18.5653 -0.458043 18.5479 -0.456686C 18.5392 -0.456007 18.5324 -0.455461 18.5276 -0.455069C 18.5252 -0.454873 18.5234 -0.454716 18.522 -0.4546C 18.5213 -0.454542 18.5208 -0.454495 18.5203 -0.454458C 18.5201 -0.45444 18.5199 -0.45442 18.5198 -0.454411C 18.5196 -0.454394 18.5194 -0.45438 18.5625 0.0437605C 18.6056 0.541901 18.6055 0.54191 18.6054 0.541915C 18.6054 0.541914 18.6054 0.541916 18.6054 0.541913C 18.6055 0.541906 18.6057 0.541888 18.6061 0.541859C 18.6067 0.541803 18.6079 0.541704 18.6096 0.541566C 18.6129 0.541291 18.6183 0.54086 18.6255 0.540296C 18.64 0.539166 18.6622 0.537504 18.6915 0.535489C 18.7502 0.531458 18.8375 0.52602 18.9492 0.520613C 19.1728 0.509793 19.4939 0.49913 19.8797 0.500057C 20.6538 0.501917 21.6769 0.550457 22.6926 0.733447C 23.7163 0.917872 24.6873 1.23114 25.3913 1.73335C 26.0737 2.2202 26.5 2.87651 26.5 3.81352L 27.5 3.81352ZM 18.0632 0.0175148C 17.9943 1.3288 17.4248 2.26407 16.6124 2.87654C 15.7877 3.49824 14.6851 3.80596 13.5476 3.78483C 11.2461 3.74207 9.05012 2.38821 8.78098 -0.0119584L 7.78721 0.0994794C 8.13169 3.17155 10.9215 4.73621 13.5291 4.78466C 14.8461 4.80912 16.1789 4.45562 17.2143 3.67506C 18.262 2.88526 18.9773 1.67725 19.0618 0.0700062L 18.0632 0.0175148ZM 8.28409 0.0437605C 8.3134 -0.45538 8.31324 -0.455389 8.31306 -0.4554C 8.31295 -0.455406 8.31273 -0.455419 8.31252 -0.455431C 8.3121 -0.455455 8.31155 -0.455486 8.31088 -0.455524C 8.30954 -0.4556 8.3077 -0.455704 8.30537 -0.455831C 8.3007 -0.456086 8.29406 -0.456439 8.28551 -0.45687C 8.26842 -0.457732 8.24369 -0.458906 8.21183 -0.460231C 8.14814 -0.462881 8.05588 -0.466136 7.93914 -0.468707C 7.70577 -0.473845 7.37392 -0.476262 6.97625 -0.46556C 6.18332 -0.444221 5.11755 -0.370469 4.04485 -0.157891C 2.97996 0.0531391 1.8646 0.40918 1.0044 1.0216C 0.125148 1.64759 -0.5 2.55499 -0.5 3.81352L 0.5 3.81352C 0.5 2.94397 0.910363 2.3161 1.58438 1.83623C 2.27744 1.34281 3.23311 1.02242 4.23924 0.823033C 5.23757 0.625193 6.24282 0.55454 7.00315 0.534078C 7.38211 0.52388 7.69746 0.526214 7.91713 0.531051C 8.02691 0.533468 8.11263 0.536507 8.17028 0.538905C 8.1991 0.540104 8.22089 0.541141 8.23514 0.54186C 8.24227 0.54222 8.24751 0.542499 8.25081 0.542679C 8.25245 0.542769 8.25361 0.542835 8.25428 0.542872C 8.25461 0.542891 8.25482 0.542903 8.25491 0.542908C 8.25495 0.54291 8.25492 0.542909 8.25494 0.54291C 8.25488 0.542906 8.25478 0.542901 8.28409 0.0437605ZM -0.5 3.81352L -0.5 8.92095L 0.5 8.92095L 0.5 3.81352L -0.5 3.81352ZM 4.25568 5.516L 4.25568 8.92095L 5.25568 8.92095L 5.25568 5.516L 4.25568 5.516ZM 4.25568 8.92095L 4.25568 24L 5.25568 24L 5.25568 8.92095L 4.25568 8.92095ZM 0 9.42095L 4.75568 9.42095L 4.75568 8.42095L 0 8.42095L 0 9.42095Z"/>
</defs>
</svg>
